<?xml version="1.0" encoding="UTF-8"?>
<svg width="106px" height="139px" viewBox="0 0 106 139" version="1.1" xmlns="http://www.w3.org/2000/svg" xmlns:xlink="http://www.w3.org/1999/xlink">
    <!-- Generator: Sketch 54.1 (76490) - https://sketchapp.com -->
    <title>Past</title>
    <desc>Created with Sketch.</desc>
    <defs>
        <path d="M89.931044,53.7745309 L49.8956044,8.52651283e-14 L9.85659341,53.7794938 C3.40824176,62.4682634 0,72.8025309 0,83.6645267 C0,111.276798 22.3832418,133.740823 49.8956044,133.740823 C77.407967,133.740823 99.7912088,111.276798 99.7912088,83.6645267 C99.7912088,72.8022551 96.382967,62.4679877 89.931044,53.7745309 Z" id="path-1"></path>
        <filter x="-6.0%" y="-4.5%" width="110.0%" height="107.5%" filterUnits="objectBoundingBox" id="filter-2">
            <feOffset dx="-1" dy="-1" in="SourceAlpha" result="shadowOffsetOuter1"></feOffset>
            <feGaussianBlur stdDeviation="1.5" in="shadowOffsetOuter1" result="shadowBlurOuter1"></feGaussianBlur>
            <feColorMatrix values="0 0 0 0 0   0 0 0 0 0   0 0 0 0 0  0 0 0 0.5 0" type="matrix" in="shadowBlurOuter1"></feColorMatrix>
        </filter>
    </defs>
    <g id="Page-1" stroke="none" stroke-width="1" fill="none" fill-rule="evenodd">
        <g id="Past" transform="translate(-7.000000, -10.000000)">
            <g id="Chasten-Face-Copy" transform="translate(9.000000, 12.000000)">
                <g id="Mask" fill-rule="nonzero" transform="translate(49.895604, 66.870412) rotate(-180.000000) translate(-49.895604, -66.870412) ">
                    <use fill="black" fill-opacity="1" filter="url(#filter-2)" xlink:href="#path-1"></use>
                    <use fill="#B1B1B1" xlink:href="#path-1"></use>
                </g>
                <g id="Pete-Face" opacity="0.261928013" transform="translate(13.000000, 12.000000)" fill="#1D253C">
                    <g id="Combined-Shape">
                        <path d="M24.6529831,11.354048 L24.6460089,11.3466957 C24.5514384,11.4523652 24.4568071,11.5579739 24.218983,11.8236087 C25.1636548,11.7204957 25.9195502,11.6707652 26.6633509,11.5475652 C27.4060575,11.4245478 28.1655997,11.8598261 29.023359,11.4357478 C27.4957658,11.2165565 26.09453,11.0154435 24.8060981,10.8305826 C24.1813006,11.0841043 23.6287075,11.308287 23.0760535,11.5325304 C23.0831037,11.5686261 23.090154,11.6047217 23.0972042,11.6408174 C23.6200162,11.5497565 24.1428281,11.4585739 24.6656401,11.3673913 C24.8627431,11.3081652 25.059846,11.2489391 25.2568882,11.1896522 C25.2686183,11.2586783 25.2803485,11.3277652 25.2920786,11.3967913 C25.0774716,11.3807826 24.8628039,11.3647739 24.6471029,11.3477304 C24.6466723,11.3473471 24.6494527,11.3503117 24.6529831,11.354048 Z M62.2999447,10.5204475 C61.4746159,10.2393714 60.6490262,9.95847252 59.8208874,9.67941739 C59.4831442,9.59687826 59.0034238,9.62134783 58.8420583,9.40623478 C58.3965559,8.8123913 58.0194895,9.13767826 57.4755875,9.36776522 C58.2872771,9.87669565 59.0708266,9.7264087 59.8413695,9.66821739 C60.0492909,9.83177391 60.2637156,9.98778261 60.4634927,10.1607739 C60.7467788,10.4060783 61.0704214,10.6274 61.2827188,10.926087 C61.5221232,11.2628783 61.7420178,11.3413391 62.1106969,11.1706609 C62.2948541,11.0853826 62.5209481,11.0908609 62.8181524,11.0398522 C62.2411264,11.655 61.5972447,11.4758 60.9285656,11.4294174 C61.5269854,11.977 61.8113655,12.0133391 62.4048015,11.7011391 C62.6271272,11.5842087 62.8689627,11.5044696 63.1905997,11.3709217 C63.1185778,12.0059739 62.6054295,11.9599565 62.3732577,12.1862696 C62.3607374,12.560313 62.9924635,12.2059304 62.8706645,12.6790696 C62.8696921,12.6829652 63.0525122,12.7718348 63.1313412,12.7512 C63.3111831,12.7042087 63.4976499,12.6401739 63.6495948,12.5363304 C64.1325972,12.2062348 64.5996151,11.9778522 65.126013,12.4663913 C65.2105551,12.5448522 65.3841977,12.535113 65.5183955,12.5502696 C65.8693274,12.5898348 65.9543558,12.8264957 65.9784238,13.1588435 C65.8132293,13.2424783 65.6496151,13.3252609 65.390154,13.4566174 C65.8838533,13.8452087 66.3373177,14.202087 66.8457253,14.6022435 C66.5771475,14.7401739 66.3674028,14.8479739 66.2315032,14.9177913 C66.084846,15.4439478 65.9575162,15.9007739 65.8288493,16.3621652 C66.1678687,16.4022783 66.5777553,16.4508522 67.0949757,16.512087 C66.6661872,17.1550522 66.271799,17.5454696 65.5651337,17.4874609 C65.3524109,17.4699913 65.1282618,17.5917913 64.7908833,17.6812087 C65.2122569,18.0438696 65.4830835,17.9419739 65.805936,17.8034957 C66.3477107,17.5712174 66.8942261,17.7016 67.4145462,17.9335739 C67.4487034,17.9487913 67.4533833,18.0305391 67.4944084,18.1439391 C67.3628241,18.2294 67.2197528,18.3223478 67.083124,18.4111565 C67.0982577,18.7033913 67.1339344,18.9918522 67.1175243,19.2772696 C67.1112642,19.3864696 66.9731767,19.5864261 66.9166532,19.5791217 C66.3945705,19.5111304 66.5034238,19.8941826 66.3912885,20.1971913 C66.9586507,20.0193913 67.4621961,19.6154609 67.9480551,18.9678696 C68.9724068,19.6507652 68.5255673,20.7380174 68.6918558,21.7077304 C69.3506888,21.5290174 69.3532415,22.2153217 69.7072123,22.4705478 C69.6647285,22.5393913 69.5718598,22.6296 69.5900932,22.6726957 C69.6435778,22.7993043 69.7321313,22.9160522 69.8289506,23.0152087 C69.8494327,23.0362087 70.0264182,22.9567739 70.0238655,22.9393043 C70.0035656,22.799487 69.9734806,22.655287 69.9102107,22.5309304 C69.8891207,22.4894174 69.7628241,22.5015913 69.6846637,22.4892348 C69.8964141,22.2277391 70.122265,22.1075217 70.4598865,22.3111304 C70.6647083,22.4346348 70.9152958,22.4819913 71.1822326,22.5765826 C71.2537682,21.9880348 70.5373784,22.1420348 70.436487,21.7134522 C70.6171799,21.6819217 70.7924635,21.6513043 70.9676864,21.6207478 L70.9497569,21.5990783 C71.1404781,21.829287 71.2939425,22.0765391 71.6759927,22.0436087 C72.0606564,22.0104348 72.3163493,22.2911043 72.3557942,22.6339826 C72.3973055,22.9949391 72.6026742,23.2165652 72.7768639,23.4940696 C73.0214951,23.8838174 73.1655389,24.3368696 73.3552269,24.7689826 C73.0211912,24.9742957 72.8469408,25.1906261 73.1864465,25.4778696 C73.477269,25.7239043 73.6813614,25.9937391 73.546799,26.4651739 C73.1175243,26.2413565 72.7005875,26.0239913 72.1746151,25.7497739 C72.3761548,26.4839217 73.0429498,26.7445652 73.3811183,27.4314174 C72.8385535,27.2394348 72.4271475,27.0938957 71.9248784,26.9162174 C72.2698541,27.443287 72.5516207,27.8738783 72.8585494,28.3428174 C72.6293558,28.454087 72.491329,28.5210435 72.113047,28.704687 C72.4275122,28.8568609 72.6472853,28.9632 72.9178687,29.0940696 C72.6779173,29.3188609 72.5329011,29.4547217 72.3878849,29.5905826 C72.4041126,29.615113 72.4202796,29.6396435 72.4365073,29.6641739 C72.7334684,29.5387217 73.0304903,29.4132696 73.3813614,29.2650522 C73.5283833,29.3928783 73.6957658,29.5384174 73.8631483,29.6840174 C73.8976702,29.6593652 73.9322528,29.6347739 73.9668355,29.6101217 C73.6761345,29.0638783 73.3854943,28.5175739 73.0704822,27.9256174 C73.528748,27.7795913 73.724453,27.9647565 73.8336102,28.3288783 C74.0848663,29.167113 74.3419571,30.0035826 74.6575162,31.0406174 C74.3795786,30.8182609 74.2580835,30.7210522 73.9744327,30.4941304 C74.2062399,31.3571391 74.3245138,32.0829478 74.6090154,32.7362 C74.7510535,33.0623391 74.8413695,33.3159826 74.7581037,33.6549652 C74.6586102,34.0602348 74.6108387,34.4649565 74.9132091,34.832913 C74.9857172,34.9211739 74.9815235,35.0878348 74.9807334,35.2182174 C74.9789708,35.5120348 74.9586102,35.8058522 74.9430511,36.099487 C74.9328404,36.2915913 74.9930105,36.5541826 74.891329,36.662713 C74.527269,37.0513652 74.520705,37.4636957 74.8286669,38.066913 C74.5402755,37.8644 74.422184,37.7814348 74.3040316,37.6984696 C74.6590964,38.3038783 74.5290316,38.8946174 74.3958063,39.5159739 C74.3067058,39.9316522 74.3788493,40.3820261 74.3788493,40.8768957 C73.9586912,40.8088435 73.8984603,41.1162348 73.8891613,41.4186348 C73.879376,41.7347304 73.8503241,42.0127217 73.3808144,42.070913 C73.8808347,42.6605565 73.7458468,43.1705217 73.4999392,43.6983217 C73.4119935,43.8871391 73.426641,44.1230087 73.3892018,44.3364783 C73.347265,44.5759391 73.3690843,44.863487 73.241876,45.0446957 C72.7319489,45.7712348 72.7095219,46.6208522 72.710859,47.4238435 C72.7122569,48.2958609 72.3266207,48.8918957 71.7509319,49.4237739 C71.4939627,49.6611652 71.2445908,49.855887 71.4022488,50.3126522 C72.210231,50.4530174 72.6392626,51.1748087 73.2030997,51.7072957 C73.3861629,51.8802261 73.423359,52.2620609 73.4366086,52.5525304 C73.5172002,54.3144609 73.2077188,56.0353652 72.5661467,57.6555304 C71.9397083,59.2374087 71.1220624,60.7433826 70.3854335,62.281313 C70.3521272,62.3508261 70.2773096,62.4669043 70.2433347,62.4596609 C69.6785251,62.3399304 69.8184968,62.8187304 69.7184562,63.0800435 C69.6703201,63.2056783 69.6724473,63.3509739 69.6545178,63.487687 C69.5412277,64.3492348 69.5338736,64.3628696 68.7445502,65.0817391 C68.3535656,64.8315652 68.3300446,64.1585304 67.6070908,64.1095304 C67.6534036,64.5938087 67.7077998,65.0378522 67.7331442,65.4835391 C67.7450567,65.6932957 67.770705,65.9490087 67.6713938,66.1109217 C66.9698339,67.2547826 66.2374595,68.3796522 65.4264992,69.6489652 C65.4726904,69.0112348 65.5047812,68.5302435 65.5429498,68.0498 C65.6409846,66.8144522 65.695624,65.5729565 65.8622771,64.3468609 C65.9373987,63.7941043 66.1518233,63.2166348 66.4530389,62.7468435 C67.2520867,61.5007217 67.0628849,60.2204522 66.72344,58.9207043 C66.5876621,58.4008174 66.3832658,57.898887 66.1631888,57.2503826 C65.0335089,56.9355652 64.7969003,55.9637826 64.8274109,54.7838261 C64.8435778,54.1573565 64.7397083,53.5151217 64.6023501,52.8996087 C64.2213331,51.1930696 64.3105551,49.4590174 64.2260737,47.7344 C64.2047407,47.2986348 64.1079214,46.865487 64.0309157,46.4337391 C63.8867504,45.6252087 63.6142828,44.8654348 63.256483,44.1210609 C63.0661872,43.7251043 62.8980754,43.3959217 62.4590154,43.2582348 C62.3690032,43.2299913 62.3080429,43.1089217 62.2225284,43.0188348 C62.3067058,42.7339043 62.3876013,42.4600522 62.5068476,42.0563043 C62.1667342,42.1599043 61.9486021,42.226313 61.6416734,42.3198087 C61.7095016,42.1641043 61.7361831,42.0418174 61.8057131,41.9531913 C62.2028971,41.4471217 62.1382901,40.9352696 61.8432739,40.4168435 C61.7889384,40.3214 61.7236021,40.230887 61.6541329,40.1456087 C60.8894854,39.2073043 60.5762966,38.1004522 60.3215762,36.9348609 C60.1121961,35.9768957 59.6862642,35.0661652 59.35156,34.1362 C59.2960697,33.9818957 59.1664303,33.8397652 59.1560981,33.6861913 C59.0933752,32.7587217 59.0814627,31.8272957 59.0025122,30.9015304 C58.9047812,29.7560261 58.7366694,28.6118609 57.9193882,27.7187217 C57.5325365,27.2959217 57.2651135,26.8619217 57.195705,26.2786696 C57.1665924,26.0342174 56.9886953,25.7591478 56.7965762,25.5927304 C56.4057739,25.2541739 55.9944287,24.8965652 55.5273501,24.699713 C54.8919165,24.4319478 54.4969814,23.9841913 54.2036669,23.4083652 C54.0026742,23.0138087 53.7509319,22.7426957 53.2685373,22.7101304 C53.0713128,22.6968 52.8698339,22.5550957 52.6958874,22.4346957 C52.4507091,22.265113 52.2293558,22.0610174 51.8958671,21.7883217 C51.8014182,21.9810957 51.7176053,22.1520783 51.5891207,22.4142435 C50.9318679,21.5778957 50.0250608,21.9349565 49.3129254,21.6044348 C48.6947528,21.8972174 47.9363047,21.5351652 47.3508914,22.0377652 C47.2293355,22.1421565 46.9933347,22.127487 46.808205,22.140513 C45.7687804,22.2134348 44.6911872,22.1322348 43.7001418,22.3886174 C42.8033023,22.6206522 41.9341775,22.6275913 41.0398298,22.6675826 C39.7738857,22.7241913 38.5718801,23.1130261 37.358752,23.4548087 C36.5242099,23.6899478 35.659218,23.870487 34.7971434,23.9373217 C34.0280592,23.996913 33.2781199,24.0448783 32.5209481,24.2438609 C31.437581,24.5285478 30.3099068,24.6409739 29.2204011,24.9062435 C27.5987844,25.3009826 25.9939425,25.7649304 24.2866288,26.2251652 C23.8188209,25.686713 23.2089749,25.7736348 22.5681929,26.115113 C22.3778971,26.2165217 22.1552674,26.2844522 21.9409036,26.3083739 C21.2058549,26.3903043 20.4804092,26.4602435 19.9047812,27.022313 C19.8060778,27.1186696 19.5604741,27.0715565 19.3823339,27.0770957 C19.1389182,27.0845826 18.895077,27.0789826 18.6311183,27.0789826 C18.6204822,27.0100174 18.6382901,26.8098783 18.5541126,26.6723739 C18.4769246,26.546313 18.2997569,26.4430174 18.1487844,26.4086261 C17.8056929,26.3305304 17.5504862,26.1531565 17.6446313,25.7993826 C17.7345827,25.4614957 18.02109,25.3781043 18.3699554,25.5196261 C18.7921799,25.690913 19.0259319,25.3440174 19.2776742,25.1156957 C19.4962925,24.9173826 19.6683549,24.6676348 19.8723865,24.4272609 C19.7498582,24.3448435 19.6287885,24.2634 19.464141,24.1526783 C20.0200162,23.7562348 20.5326175,23.3906522 21.0452188,23.0250696 C21.022731,22.9771652 21.0002431,22.9292 20.977816,22.8812957 C20.7301459,22.9988957 20.4615073,23.0858174 20.2383914,23.2392696 C19.1959279,23.956313 18.1660454,24.6916783 17.1343395,25.4180348 C17.4311183,24.9010087 17.6455429,24.3741826 17.38906,23.7748 C17.6769044,23.9487652 17.9361831,24.2917652 18.3149514,23.9357391 C18.5524716,23.7125304 18.6841167,23.4730087 18.4458063,23.1678696 C18.0012156,23.2552783 17.63047,23.4009391 17.4129457,23.7969565 C16.8477107,24.1807391 16.8111224,24.2875652 17.0070097,24.8881043 C17.0634724,25.0612174 17.0936183,25.2429739 17.1357982,25.4208348 C16.9438006,25.1658522 16.7518031,24.9108696 16.522184,24.6059739 C15.847184,24.9995565 15.2279173,25.6528696 14.3050648,25.5268696 C14.2593598,25.1469217 14.2213736,24.8307652 14.1685575,24.3916522 C13.9733387,24.6190609 13.7966572,24.7381217 13.7513169,24.895287 C13.6470219,25.2563043 13.5726904,25.5834174 13.3017423,25.9054783 C13.128829,26.1110348 13.3041126,26.6103478 13.3266005,27.0413652 C13.2724473,27.0606 13.1389182,27.0890261 13.0246556,27.1522696 C12.6608387,27.3538087 12.5358185,27.5488348 12.7433144,28.0297652 C12.9776135,28.5728435 13.3738857,29.1172609 13.2170786,29.792487 C13.1930713,29.8957826 13.2988857,30.0672522 13.3935778,30.1528957 C13.6545583,30.388887 13.7412277,30.6637739 13.6712115,30.9994696 C14.3793355,31.1458609 13.5539708,31.4286609 13.7241491,31.6560087 C13.8068679,31.766487 13.7592788,31.9747826 13.7713736,32.1485043 C13.9518233,32.2356087 14.1204214,32.3169913 14.284765,32.3963652 C14.284765,32.5022783 14.3014182,32.5871913 14.2816653,32.6625478 C14.2206442,32.8954957 14.0578809,33.1395826 14.0936183,33.3525652 C14.1814425,33.8758609 14.3702796,34.3780957 14.1058347,34.9087565 C14.0563006,35.0080957 14.0953809,35.2115217 14.1706848,35.3036174 C14.6280389,35.8627043 14.3409238,36.2737565 13.9360211,36.6752522 C13.8791937,36.7316174 13.8387763,36.8046609 13.7770259,36.8886609 C13.8951783,36.9554348 14.0011143,37.0153913 14.1489263,37.0989652 C12.8105348,38.0646 11.9855956,39.381087 11.4041329,40.9357565 C11.3424433,40.8297217 11.2986831,40.7545478 11.2417342,40.6566087 C11.1768233,40.7025043 11.0675446,40.7389652 11.0588533,40.7920435 C10.9191248,41.6411739 10.6453201,42.4658957 10.6436791,43.342113 C10.6430713,43.6568087 10.5729943,44.0208696 10.4043963,44.2761565 C9.95269449,44.9602696 9.96880065,45.6740261 10.1124797,46.4226609 C10.2560373,47.1705652 10.2612642,47.8988696 9.82177877,48.5721478 C9.75322123,48.6772087 9.68350891,48.8602435 9.72860616,48.9488087 C10.151013,49.7777913 10.0273298,50.6513913 9.9631483,51.5183565 C9.94534036,51.7594 9.85715154,51.9944783 9.81254052,52.2343652 C9.75784036,52.5285478 9.60510535,52.8622348 9.6898906,53.1125913 C9.86748379,53.6371043 9.74009319,54.1128609 9.66241896,54.6345739 C9.50457861,54.6869217 9.35439627,54.7581391 9.19667747,54.7851652 C8.63508914,54.8812783 8.40212723,55.2042522 8.25626013,55.7652261 C8.08681118,56.4170174 7.74572528,57.0309478 7.43004457,57.6356261 C7.13958671,58.1920348 6.83715559,58.7399217 6.34327391,59.1727043 C5.91138574,59.5511913 5.68820908,60.0584783 5.9316248,60.7225652 C6.69997974,60.9057826 7.20942058,61.8233304 8.250547,61.6038348 C8.30743517,61.4163565 8.37307536,61.2000261 8.47487844,60.864513 C8.70765802,61.2993652 8.62706645,61.8038522 9.13061183,61.9272957 C9.18312399,61.9401391 9.21661264,62.2293913 9.17771475,62.3675043 C9.12878849,62.5415304 8.99629254,62.6919391 8.84203809,62.9488696 C9.13517018,62.9172783 9.33148298,62.8961565 9.52737034,62.8750348 C9.66600486,63.6945217 9.58073339,63.8518696 8.88008509,64.1035043 C8.83820908,64.0694783 8.76667342,64.041113 8.75889384,64.000513 C8.59819692,63.1608783 8.10601702,62.7330261 7.24758914,62.6276609 C6.96570097,62.593087 6.71559968,62.2985391 6.3606564,62.062913 C6.39602917,62.0646783 6.31410049,62.055 6.23265802,62.0574957 C5.29297002,62.0865304 4.92860616,61.7825478 4.81726094,60.8695043 C4.80753647,60.7898261 4.798359,60.7012609 4.82218395,60.6276087 C4.99588736,60.0904348 5.17809968,59.5560609 5.37119125,58.9803565 C4.92368314,58.6418 4.7506483,58.2844348 5.18113857,57.7528 C5.45190438,57.4184435 5.13883712,56.9501739 4.59475284,56.7953217 C4.22814019,56.6909913 3.84712318,56.6374261 3.44197731,56.5549478 C3.33209076,55.7225565 3.23338736,54.901913 2.56233793,54.1462783 C2.53049028,54.403513 2.46624797,54.5568435 2.50380875,54.6787043 C2.73853323,55.4408522 2.91843598,56.2348957 3.27167747,56.9404957 C3.53065235,57.4578261 3.65160049,57.9514783 3.67457455,58.5105652 C3.70253241,59.1908435 3.64175446,59.9077043 4.15775932,60.3934435 C3.52642775,60.8029153 4.09147441,61.7975997 4.52000019,62.3465835 C4.91866352,62.6933654 5.26365592,62.9594041 5.551641,63.2772609 C5.66711912,63.4047217 5.73932334,63.7605043 5.65733387,63.847 C5.21365478,64.3152087 5.09489465,64.7713043 5.6076175,65.3357478 C5.11525527,65.2118783 5.01794976,64.8282783 4.83561588,64.5400609 C4.59207861,64.1551826 4.33474473,63.7834522 4.57986224,63.2531565 C4.65291678,63.0952124 4.58778892,62.873129 4.52313938,62.6103272 C4.01684883,62.31986 3.16199377,61.5304456 3.14343598,60.7077739 C3.10933955,60.6154957 3.10435575,60.4615565 3.15832658,60.3957565 C3.5316248,59.9411826 3.32060373,59.506087 3.12635737,59.0799391 C2.61223663,57.9520261 2.08596029,56.8295913 1.55871151,55.7077043 C1.48960697,55.5607652 1.41326985,55.3430957 1.29450972,55.3063304 C0.741126418,55.1349826 0.670623987,54.6466261 0.523602107,54.2143913 C0.0443071313,52.8049565 -0.165863047,51.3709304 0.280125608,49.9135304 C0.398824959,49.5256696 0.592949757,49.1484 0.816491086,48.8085652 C1.07856564,48.4101739 1.38944489,48.0576174 1.97540519,48.352287 C2.12169773,48.4258174 2.64384117,48.8102696 2.63150324,48.9825913 C3.63239465,49.6393739 4.5915316,50.2687652 5.59910859,50.9299304 C5.85917747,50.5866261 5.65004052,50.2866609 5.3826175,50.0682 C4.7649919,49.563713 4.44973663,48.8839217 4.13192869,48.1828261 C3.97937601,47.8462783 3.71207455,47.5483217 3.44933144,47.2793391 C3.20178282,47.0258174 2.86720016,46.858487 2.61448541,46.6089826 C1.98178687,45.9842174 1.56023096,45.2847043 2.15798217,44.194713 C1.91657212,44.3347739 1.85391005,44.371113 1.79143031,44.4074522 C1.58192869,43.7988174 1.3397893,43.1983391 1.18237439,42.5764348 C1.13527147,42.3903565 1.30751621,42.1356174 1.4101094,41.9276261 C1.5590154,41.625713 1.92192058,41.3770609 1.6022893,40.9836 C1.15867099,40.6355478 1.7677269,40.3252957 1.6006483,39.7774087 C1.40518639,40.268687 1.27645867,40.5922696 1.10628039,41.0200609 C1.37352107,40.9920609 1.49884522,40.978913 1.62416937,40.9658261 C1.48808752,41.3167391 1.39874392,41.7000348 1.05437601,41.8841652 C0.821900324,41.3018261 0.565660454,40.7636783 0.395664506,40.1995391 C0.270948136,39.7855652 0.11012966,39.2833913 0.241166937,38.9203652 C0.36071718,38.5891739 0.292098865,38.3648087 0.258002431,38.0774435 C0.214424635,37.7101565 0.173460292,37.3184 0.254294976,36.9654174 C0.431888169,36.1901217 0.238006483,35.3722783 0.554902755,34.6193826 C0.647589141,34.3992174 0.725992707,34.173087 0.814910859,33.9512174 C0.942787682,33.6321391 1.07425041,33.3145217 1.2041329,32.9962957 C1.14487439,32.9541739 1.08567666,32.912113 1.02641815,32.8699913 C0.963938412,33.0129739 0.901458671,33.1559565 0.839039708,33.2989391 C0.69821718,32.6033217 1.10439627,32.147713 1.38610211,31.5763304 C1.26345219,31.5350609 1.14912885,31.4965913 1.02945705,31.4562957 C1.00715154,31.0217478 1.20401135,30.8187478 1.64781199,30.7984174 C2.01181118,30.7818 2.37289303,30.702913 2.73531199,30.6516609 C2.72662075,30.5847043 2.7179295,30.517687 2.70923825,30.4507304 C2.36383712,30.4761739 2.01606564,30.5366174 1.67400729,30.5131826 C1.48596029,30.5002783 1.25336305,30.3894957 1.13806726,30.2449913 C0.980226904,30.0472261 1.0673825,29.8004 1.30496353,29.6966174 C1.74833874,29.5029304 1.238594,29.3776 1.28411669,29.2045478 C1.40190438,28.7568522 1.5137966,28.3052609 1.5873987,27.8486783 C1.72937601,26.9683217 2.22836305,26.3281565 2.8814222,25.7688261 C3.0154376,25.654087 3.14331442,25.4649652 3.16452593,25.2963565 C3.28918152,24.3041217 3.68727715,23.4079391 4.0072731,22.473713 C4.49057942,21.0628174 5.25224878,19.8071391 5.87735008,18.4772609 C5.91004862,18.4077478 5.99070097,18.3608783 6.04813614,18.3043304 C6.06612642,18.2860087 6.10362642,18.2702435 6.15960292,18.2580087 C6.28158428,18.6672957 6.33652755,19.043713 5.93952593,19.374113 C5.83413695,19.4618261 5.88239465,19.7347043 5.86008914,19.9226087 C6.11924635,19.8722696 6.24906807,19.7821826 6.31252026,19.6581304 C6.4613047,19.367113 6.57951783,19.0602696 6.70800243,18.7589043 C6.84396272,18.4400087 7.03802674,18.2692696 7.41861831,18.1823478 C7.8678282,18.0797217 8.27267018,17.7821304 8.69671799,17.5690261 C8.68517018,17.5181391 8.67368314,17.467313 8.66213533,17.4164261 C8.35763776,17.3551304 8.05307942,17.2937739 7.75411264,17.2335739 C7.68664911,17.4749217 7.64143031,17.6368957 7.59001216,17.8208435 C7.07747164,17.6823652 7.06908428,17.3797217 7.25002026,17.0518783 C7.44423196,16.6999293 7.68568309,16.3741596 7.90772522,16.0376787 C7.90773144,16.0419962 7.90778188,16.0462756 7.90788088,16.050513 L7.91855999,16.0212272 C7.91901171,16.0205399 7.91946336,16.0198526 7.91991491,16.0191652 L7.90830632,16.051 C8.21395867,15.5112087 8.46339141,14.9273478 8.84106564,14.4439217 C9.223359,13.9545913 9.63865478,13.4174174 10.4115681,13.4490696 C9.92516207,13.978513 9.49856159,14.5495913 9.03440032,15.0752 C8.5447731,15.6296609 8.52933549,16.3645391 7.94787277,17.0400087 C8.55650324,16.8598348 8.85401135,16.5273043 9.001641,16.1974522 C9.36296596,15.3900783 9.96485008,14.9660609 10.7843193,14.7710348 C10.8583468,14.7534435 10.9210697,14.688313 10.9920583,14.6432696 C10.4323541,14.2974087 10.4108995,13.9723652 10.9570502,13.6800087 C11.3569692,13.4659304 11.6833468,13.2213565 11.9056118,12.8042174 C12.0261345,12.5779652 12.277816,12.3977304 12.5075567,12.2580348 C13.5374392,11.6319304 14.6525324,11.1424174 15.5540519,10.3116087 C15.6700162,10.2047217 15.8439627,10.1604087 15.9920178,10.0891304 C16.5869125,9.8028 17.1962723,9.54270435 17.7726904,9.22295652 C18.1977107,8.9872087 18.5463938,8.5910087 18.9880065,8.41211304 C19.9983793,8.00270435 21.0448541,7.68253043 22.1186791,7.31165217 C22.1107172,7.19624348 22.1003849,7.04565217 22.0852512,6.82615652 C23.0298622,6.64476522 23.9092585,6.14453913 24.9378647,6.37547826 C24.4651945,6.46836522 23.9925243,6.5611913 23.5199149,6.65407826 C23.5183955,6.71166087 23.5169368,6.76918261 23.5154173,6.82676522 C23.6744125,6.87053043 23.8317058,6.94296522 23.9927066,6.95264348 C24.4886548,6.98253043 25.0164506,6.75670435 25.464141,7.17737391 C25.5139789,7.22418261 25.7082861,7.13032174 25.8290519,7.08442609 C25.9716977,7.0301913 26.1241288,6.87886957 26.2431321,6.90467826 C27.1190032,7.09446957 27.8308955,6.56630435 28.6200972,6.38935652 C29.1652755,6.26713043 29.6970219,6.08561739 30.2398906,5.95146087 C30.3608995,5.92157391 30.6064425,5.95012174 30.6207253,6.00088696 C30.8305916,6.74623478 31.6186994,6.55047826 32.2128039,7.01789565 C31.4731969,6.83869565 30.8986629,6.69954783 30.2107172,6.53282609 C30.3077796,6.74544348 30.3340357,6.8144087 30.370077,6.87783478 C30.3952391,6.92208696 30.4337723,6.95873043 30.5049433,7.0462 C29.9883914,7.10603478 29.4565843,7.05289565 29.0335697,7.2428087 C28.3582658,7.546 27.6273501,7.47575652 26.9642626,7.70213043 C26.2295786,7.95297391 25.5020665,7.83476522 24.7693882,7.84115652 C24.6621759,7.84206957 24.510231,7.74029565 24.4538898,7.78363478 C23.8530389,8.24630435 23.2758306,8.08652174 22.6955835,7.75313913 C22.6738857,7.74066087 22.6248379,7.73469565 22.6164506,7.74613913 C22.2020057,8.31393043 21.6285656,7.78637391 21.0411467,7.99442609 C21.3079619,8.09729565 21.4870746,8.21787826 21.6719611,8.22761739 C22.1530186,8.25306087 22.4349676,8.49215652 22.5742099,8.93346087 C21.9162277,8.87606087 21.2589141,8.81926957 20.5067261,8.75432174 C20.6992707,8.92633913 20.8268436,9.13433043 20.9876013,9.1644 C21.3236426,9.22727826 21.6810778,9.2302 22.0219206,9.1903913 C22.207658,9.16829565 22.3780186,9.00912174 22.5555511,8.91191304 C23.1145867,9.28084348 23.7313614,9.39071304 24.3869733,9.3142 C24.9247366,9.25138261 25.4615883,9.18089565 25.9988047,9.11393913 C26.0805511,9.10377391 26.1675851,9.10888696 26.243436,9.08216522 C27.2241491,8.73618261 27.2209887,8.75833913 28.1653566,8.87070435 C28.638513,8.9270087 29.123825,8.88050435 29.6036669,8.88050435 C29.6129052,8.81866087 29.6222042,8.75681739 29.6315032,8.69497391 C29.3068882,8.62777391 28.9822731,8.56057391 28.5465559,8.47030435 C28.9178485,8.44187826 29.187581,8.45125217 29.4413898,8.39214783 C29.6358185,8.34686087 29.871637,8.2607913 29.9811588,8.11275652 C30.2483387,7.7518 30.585778,7.67583478 30.9901945,7.71886957 C31.0986224,7.73043478 31.2213331,7.76908696 31.3149919,7.73445217 C32.3604943,7.34744348 33.4744327,7.55987826 34.5375608,7.35432174 C35.0604335,7.25327826 35.5714546,7.09093913 36.2012358,6.77648696 C36.0326985,6.70356522 35.864222,6.63064348 35.6956848,6.55778261 C35.7175041,6.52984348 35.7392626,6.50184348 35.7610818,6.47390435 C35.8355956,6.4785913 35.9186791,6.46313043 35.9832253,6.4910087 C36.853748,6.86663478 37.8154984,6.68664348 38.7059562,6.94369565 C38.9913088,7.02605217 39.2889992,7.06628696 39.5818882,7.12161739 C39.7701783,7.15722609 39.9891613,7.26271304 40.1442666,7.20403478 C41.1498379,6.82353913 42.1067869,7.32145217 43.0871961,7.32778261 C43.7376418,7.33198261 44.4070502,7.4004 44.9982374,6.83327826 C44.7128849,6.77289565 44.4681929,6.71914783 44.2226499,6.66947826 C43.3111021,6.48510435 42.4035656,6.30109565 41.5422812,5.91956522 C41.1216977,5.73324348 40.6708468,5.67334783 40.1771475,5.77737391 C39.8358793,5.84926087 39.4454417,5.68716522 39.0274716,5.62185217 C39.4462925,4.81027826 40.1059765,5.52336522 40.6109806,5.17263478 C40.4036062,5.03738261 40.2213331,4.91856522 40.03906,4.79968696 C40.0446515,4.77004348 40.0502431,4.7404 40.0558347,4.71075652 C41.258205,4.94023478 42.4617301,5.16435652 43.6616694,5.40594783 C43.8137358,5.43656522 43.9474473,5.5586087 44.0885737,5.63713043 C43.6554092,5.60511304 43.2237034,5.55629565 42.7912682,5.54868696 C42.4125,5.5419913 42.0378039,5.12107826 41.5422204,5.55203478 C42.150547,5.67121739 42.6525729,5.81876522 43.1618314,5.8506 C43.4594611,5.86922609 43.7686386,5.70311304 44.0725891,5.62014783 C44.7132496,5.49146957 45.3438209,5.27166957 46.0080024,5.5685913 C46.1422002,5.6286087 46.3612439,5.47527826 46.545158,5.45135652 C46.945624,5.39931304 47.3551459,5.30332174 47.7490478,5.3431913 C48.2505875,5.39395652 48.7403971,5.56134783 49.2945705,5.69252174 C49.1982982,5.88103478 49.0954619,6.08233043 48.9761548,6.3160087 C49.1516207,6.3160087 49.2952391,6.3160087 49.5241288,6.3160087 C49.2371961,6.5176087 49.0248379,6.6668 48.6792545,6.9096087 C49.4428079,6.83327826 50.0472447,6.79462609 50.6431726,6.70131304 C50.8476297,6.66929565 51.2012966,6.59874783 50.9257901,6.22324348 C51.0207253,6.16633043 51.1156605,6.10941739 51.2669976,6.01866087 C51.304376,6.23444348 51.3297812,6.38089565 51.3632699,6.57403478 C51.1073947,6.70666957 50.8472042,6.84149565 50.5435575,6.99884348 C51.2947123,7.31786087 51.9824149,7.0552087 52.673825,6.90747826 C52.5782212,7.02130435 52.4826175,7.1351913 52.375466,7.26271304 C52.4826175,7.31146957 52.5340964,7.35815652 52.5734198,7.34945217 C53.4661264,7.15186957 54.3568274,6.9454 55.2494125,6.74726957 C55.527459,6.68555333 55.7557304,6.58540614 55.778454,6.26338621 C55.1147676,6.34512539 54.451023,6.42692293 53.7873379,6.50866087 C54.4258447,6.21554821 55.0660216,5.93659238 55.7791832,6.25169262 C55.7794096,6.24752144 55.7796022,6.24331388 55.7797609,6.23906957 C56.4395665,6.08117391 57.0994327,5.92327826 57.7850689,5.75917391 C57.7988655,5.67450435 57.8192869,5.54886957 57.8426864,5.40546087 C57.9305105,5.44715652 58.0030186,5.47972174 58.0739465,5.51551304 C58.4569692,5.70877391 58.8443679,5.89406087 59.2199757,6.10095652 C59.3716775,6.18453043 59.4992504,6.31345217 59.6338736,6.42636522 C59.7103323,6.49046087 59.7697123,6.60970435 59.8524311,6.62632174 C60.7199149,6.80077391 61.0417342,7.48306087 61.4113857,8.31989565 C61.0133509,8.22895652 60.7107374,8.15731304 60.4069084,8.09084348 C59.6365478,7.92235652 58.865701,7.75612174 58.0948541,7.58909565 C58.0866491,7.46364348 58.0785656,7.33806957 58.0666532,7.15247826 C57.9122164,7.29485217 57.7963128,7.40173913 57.6174433,7.56657391 C57.85703,7.56657391 57.9869125,7.56657391 58.1168558,7.56657391 C57.9294165,7.62981739 57.7362034,7.68015652 57.5564222,7.76062609 C57.4303079,7.81705217 57.3224878,7.91444348 57.2035454,7.99144348 C56.8268436,7.96173913 56.4530592,7.93416522 56.0793355,7.9065913 C56.0806118,7.97269565 56.0819489,8.0388 56.0832253,8.10496522 C56.453363,8.06521739 56.8235008,8.02546957 57.1936386,7.98566087 C58.3202796,8.00361739 59.3834684,8.32908696 60.4566248,8.68937391 C60.213513,8.76686087 59.9704619,8.84428696 59.7043152,8.92913913 C60.2649311,9.57204348 60.9943274,8.9004087 61.6834887,9.31383478 C61.4220219,9.39509565 61.2689222,9.44263478 61.0879254,9.49887826 C61.1368517,9.5669913 61.1684562,9.66328696 61.2254052,9.68203478 C61.8430308,9.8854 62.4646677,10.0765304 63.2652958,10.3274348 C62.9364263,10.4746174 62.7772488,10.5458348 62.6181321,10.6170522 C62.6183752,10.6169913 62.6336912,10.6339739 62.6318071,10.6318435 L62.6334481,10.6340348 C62.6221808,10.6301972 62.6109134,10.6263595 62.599646,10.6225219 C62.3484337,10.6967016 62.0972228,10.7708262 61.8460697,10.8450087 C61.834218,10.7823739 61.8223055,10.7196783 61.8104538,10.6570435 C61.9638508,10.5310145 62.1280762,10.4954204 62.2999447,10.5204475 Z M16.851521,4.10605563 L16.8500203,4.10912174 C16.7161264,4.11904348 16.5823541,4.12896522 16.4485818,4.1390087 C16.7278566,3.30077391 17.4001823,2.98358261 18.2637763,2.9141913 C17.9299838,3.15371304 17.5850081,3.37953913 17.2670178,3.63853913 C17.1089696,3.76729846 16.9965258,3.95219997 16.8657553,4.11395057 C17.3222511,4.50057514 17.5244293,3.94793361 17.8233185,3.76478261 C17.5002229,3.8857913 17.1770665,4.0068 16.8545178,4.12774783 C16.8547408,4.12774554 16.8535035,4.12271922 16.8522469,4.117896 C16.8511698,4.11374398 16.8498987,4.10912174 16.8498987,4.10912174 C16.8498987,4.10912174 16.8506914,4.10756447 16.851521,4.10605563 Z M16.851521,4.10605563 L16.8530592,4.10291304 C16.8528109,4.10349433 16.8525627,4.10407561 16.8523144,4.1046569 Z M36.7877566,4.99208148 C36.799215,5.16048911 36.8110092,5.33448872 36.8299838,5.61308696 C36.189141,5.86405217 35.4099068,5.93806957 34.5669165,5.91993043 C34.5669165,6.01111304 34.5669165,6.12621739 34.5669165,6.24728696 C33.3953606,6.90747826 32.2651945,6.33609565 31.1208063,6.19913913 C31.414607,5.75953913 31.7424433,5.65253043 32.7163493,5.6868 C33.0261345,5.08546957 33.5208063,4.92306957 34.2006686,5.09788696 C34.7552066,5.24044348 35.3287682,5.21889565 35.8981361,5.04663478 C36.1738857,4.96318261 36.4879254,5.00694783 36.7845219,4.99367826 C36.7844611,4.99398261 36.7847802,4.98638913 36.7851145,4.97871957 C36.7854487,4.97105 36.7857982,4.96330435 36.7857982,4.96330435 C37.0644044,5.25310435 37.0644044,5.25310435 37.3114668,4.73498261 C37.0692418,4.85361979 36.9282325,4.92274178 36.7877566,4.99208148 Z M13.4212318,11.0492261 C13.8165316,10.793513 14.2118314,10.5378 14.6071313,10.2821478 C14.6356969,10.3316348 14.6642018,10.3811217 14.6927674,10.4306696 C14.3121151,10.7247913 13.9073947,10.9734435 13.4009927,11.0302957 C13.4004311,11.0299207 13.4057801,11.0349198 13.411119,11.039874 L13.3998987,11.0295652 C12.950081,11.3326348 12.5237237,11.682513 12.0429092,11.9234957 C11.6735616,12.1086609 11.2357172,12.156687 10.7291937,12.2922435 C11.3049433,11.144913 12.6860008,10.1923652 14.8010737,9.45766957 C14.4639384,9.84193913 14.2700567,10.1318609 14.0105956,10.3394261 C13.7451175,10.5518 13.4153363,10.6834609 12.9374392,10.948 C13.2361317,11.0104329 13.3286707,11.0297968 13.4211463,11.0491473 Z M50.5451517,5.53397729 C50.5478476,5.53091055 50.5550407,5.52281884 50.5582658,5.52007826 C51.3190843,5.51666957 52.0758914,5.51666957 52.9777755,5.51666957 C52.3019854,5.1359913 51.5463331,5.16971304 50.5441045,5.53517391 C50.9307972,4.92800735 51.5628748,5.12771178 52.1121151,5.05923478 C52.4105348,5.02204348 52.7106564,4.9987913 53.0099878,4.9692087 C52.4049433,4.837 51.8102917,4.83231304 51.229376,4.74015652 C50.2643343,4.58710058 49.3081485,4.37809551 48.3482751,4.19258147 C46.225519,4.36955488 44.1030031,4.5485068 41.9797002,4.71806087 C41.8586912,4.72773913 41.7314222,4.65968696 41.5936386,4.46849565 C42.1030794,4.3518087 42.6124595,4.23518261 43.1931929,4.10218261 C43.1014789,4.01733043 43.0524311,3.97922609 43.0129862,3.93302609 C42.9830835,3.89802609 42.9653971,3.85255652 42.9240681,3.77957391 C43.6860413,3.6588087 44.4020057,3.53353913 45.1958266,3.66623478 C45.8832861,3.78109565 46.6723055,3.66994783 47.3400729,3.43809565 C48.6305105,2.99003478 49.8669165,2.85338261 51.1591775,3.38337391 C51.3916532,3.47869565 51.7171191,3.34673043 52.1805511,3.30241739 C51.9877634,3.53962609 51.8956848,3.75729565 51.7923015,3.76283478 C51.2286467,3.79296522 50.7486831,4.10498261 50.2290924,4.20687826 C49.6315315,4.32405239 48.9887242,4.2098242 48.3648962,4.19265121 C48.253201,4.3308087 48.1365073,4.46758261 48.0617504,4.55517391 C48.4571718,4.66906087 48.8391613,4.86171304 49.2238857,4.86725217 C49.6320097,4.87309565 50.0269449,4.78325217 50.5229538,5.15053913 C50.1157415,5.15053913 49.8709279,5.15053913 49.5398703,5.15053913 C50.0753241,5.52415652 50.0753241,5.52415652 50.5543152,5.52342609 L50.5451517,5.53397729 Z M48.3557225,4.19196058 C48.3574077,4.1918201 48.3590928,4.19167961 48.360778,4.19153913 L48.3508422,4.191934 C48.3523441,4.19192514 48.3540286,4.19192917 48.3557225,4.19196058 Z M48.3459341,4.19212906 L48.3508422,4.191934 Z M28.2734198,9.98729565 C28.4525932,9.92356522 28.6318274,9.85977391 28.8110008,9.79604348 C28.7968395,9.77175652 28.7826783,9.7474087 28.7684562,9.72312174 C28.6061791,9.81193043 28.4439627,9.90073913 28.2768233,9.98717391 C28.020158,9.95113913 27.7634927,9.91504348 27.5067666,9.8790087 C27.5048217,9.91510435 27.502816,9.9512 27.5008712,9.98735652 C27.7583874,9.98729565 28.0159036,9.98729565 28.2734198,9.98729565 Z M13.9639789,14.8150435 C14.332658,14.7619043 14.7597447,14.9907739 15.0447934,14.5406435 C14.6838331,14.6328 14.322812,14.7248957 13.9618517,14.8170522 C14.0930105,14.7116261 14.2241086,14.6062609 14.3552674,14.5008348 C14.3295583,14.4656522 14.3038493,14.4304087 14.278201,14.3952261 C14.1123379,14.4361304 13.9464749,14.4770957 13.7350284,14.5293217 C13.8403566,14.6615913 13.9016815,14.7385304 13.9639789,14.8150435 Z M45.6130065,8.00453043 C45.3353728,7.9597913 45.0577391,7.91505217 44.7801661,7.87025217 C44.7774919,7.91109565 44.7748177,7.95193913 44.7722042,7.99278261 C45.0589546,7.99278261 45.3457658,7.99278261 45.6325162,7.99278261 C46.0554092,8.37766087 46.0554092,8.37766087 46.6200972,8.25604348 C46.2206645,8.15372174 45.9202391,8.07678261 45.6130065,8.00453043 Z M49.0455632,13.0094087 C48.8093801,12.845 48.5929498,12.6035304 48.0889789,12.9020348 C48.5200162,12.9409304 48.7936386,12.9655826 49.0672609,12.9902957 C49.3555308,13.8842261 50.1646677,13.5759826 50.7948136,13.6961391 C50.5839749,13.5050696 50.3444489,13.3590435 50.085231,13.272 C49.7480348,13.1588435 49.395158,13.0924957 49.0455632,13.0094087 Z M56.796637,10.2006435 C56.920624,10.22 57.0445502,10.2393565 57.3310575,10.2840957 C57.0472245,10.0815217 56.8971029,9.8511913 56.84453,10.2407565 C56.4683752,10.1627826 56.0953201,10.0574783 55.7152755,10.0148087 C55.3639789,9.97536522 55.0052066,10.0013565 54.6497164,10.0015391 C54.2785454,10.0017217 53.9073744,10.0054957 53.5362642,10.0076261 C53.5148096,10.6308696 52.8270462,10.0905913 52.6821515,10.4982348 C53.8931524,10.7607652 54.2068882,10.7185826 54.2829822,10.2952348 C55.0027755,10.1039826 55.6999595,10.2426435 56.3925243,10.4251304 C56.6095016,10.4824087 56.7788898,10.4873391 56.796637,10.2006435 Z M39.1834887,10.2534783 C38.6760535,10.2985826 38.1686183,10.3436261 37.6612439,10.3887304 C38.2039303,10.5622087 38.7381686,10.6675739 39.191329,10.2318696 C39.2946515,10.334313 39.4111021,10.5351217 39.4991086,10.5233739 C40.0912682,10.4439391 40.690235,10.3626783 41.2601499,10.1919391 C41.5627026,10.1013043 41.7584076,10.0871826 41.9506483,10.3400957 C41.9661467,10.360487 42.0520867,10.3272522 42.135231,10.3142261 C42.2006888,10.1589478 42.2724676,9.98869565 42.3280794,9.85685217 C43.2361021,9.53801739 44.1899514,9.8846087 45.0575567,9.56114783 C45.0548217,9.49297391 45.0520867,9.42486087 45.0493517,9.35668696 C44.3446313,9.35668696 43.6398501,9.35668696 42.9306929,9.36088696 C42.87344,9.25253913 42.8161872,9.14425217 42.713047,8.94910435 C43.4417747,8.94910435 44.0702796,8.94910435 44.856017,8.94910435 C43.4594003,8.48369565 41.8162075,8.61943478 41.1514789,9.22764348 C41.5318882,9.14315652 41.8510332,8.95458261 42.1771677,9.3205913 C42.2951985,9.45304348 42.6874595,9.34043478 42.9545786,9.33970435 C42.8355754,9.39832174 42.722346,9.47958261 42.5965964,9.51196522 C41.6940438,9.74418261 40.7906402,9.97372174 39.8833468,10.1865826 C39.6598663,10.2388696 39.4211305,10.226513 39.1834887,10.2534783 Z M26.3741086,13.8837391 C26.3083468,13.9550174 26.2425243,14.0263565 26.1379862,14.1396348 C26.6669368,14.3125043 26.8983793,14.0305565 27.2762358,13.6252261 C26.9826783,13.586087 26.8112237,13.5110348 26.6920381,13.5610087 C26.554923,13.6184696 26.4639992,13.7864696 26.3529579,13.9064435 C26.3952593,13.5517565 26.2737642,13.2981739 25.890316,13.2816174 C25.5375,13.2664 25.1618922,13.2298174 24.8325972,13.3265391 C23.917342,13.5953391 23.0166734,13.9167304 22.1198947,14.2438435 C21.8647488,14.336913 21.6426053,14.5206174 21.4052674,14.6628087 C21.4298825,14.7182609 21.4545583,14.773713 21.4791734,14.8291652 C22.1426256,14.6006 22.7986021,14.3458 23.4720827,14.1521739 C23.9662075,14.0101043 24.479842,13.9100348 24.9913493,13.8620087 C25.447731,13.8190957 25.9131078,13.8732087 26.3741086,13.8837391 Z M17.9601297,12.7335478 C17.6587318,12.7277043 17.3572123,12.7237478 17.0558752,12.7154696 C16.6967382,12.7056087 16.4231159,12.7427391 16.1442058,13.0898174 C15.7757091,13.5483478 15.1884724,13.5051913 14.4686183,13.3028 C14.9871151,12.922913 15.3792545,12.6034696 15.8031199,12.3341217 C16.2272285,12.0645913 16.6830632,11.8451565 17.2022285,11.5615652 C16.6583874,11.2966609 16.3065438,11.5092783 15.98594,11.7542174 C15.2518639,12.3151304 14.5327391,12.8956435 13.8120948,13.4739043 C13.7376418,13.5336174 13.6939425,13.6316783 13.5723865,13.7999826 C13.9428282,13.8999304 14.2271475,13.9766261 14.511406,14.0533217 C14.5211305,14.0202087 14.5308549,13.9871565 14.5405186,13.9540435 C14.4384117,13.8610348 14.3363047,13.7680261 14.2675648,13.7053913 C14.7671596,13.7053913 15.2655389,13.6540783 15.7488452,13.7177478 C16.4236629,13.8066783 16.9503039,13.4015304 17.5503039,13.2531304 C17.7089344,13.2138696 17.7964546,12.8861478 17.9166734,12.6908783 C18.5887561,12.7628261 19.3310981,12.4265826 19.6010737,11.7990783 C19.0038695,12.045113 18.5127836,12.2392261 18.0322731,12.4567739 C17.9776945,12.4816087 17.9827391,12.6381043 17.9601297,12.7335478 Z M3.89872366,54.9296087 C3.88012561,54.9328348 3.86152755,54.936 3.84286872,54.9392261 C3.84286872,55.0763652 3.83302269,55.2143565 3.84450972,55.3505217 C3.90449757,56.0615391 4.29007293,56.3698435 5.19833874,56.1403652 C5.35192464,56.1015304 5.50739465,55.9290261 5.63527147,55.954287 C6.13431929,56.052713 6.32321718,55.7422783 6.51053485,55.3861913 C6.62504052,55.1686435 6.74811588,54.9520696 6.8953201,54.7561304 C7.21865883,54.3255391 7.18128039,53.9326261 6.92358185,53.4638696 C6.42550648,52.5576435 5.67745138,51.9609391 4.78875608,51.4906609 C4.26643031,51.2142522 4.12542545,51.2615478 3.93877634,51.8617826 C3.84110616,52.1759304 3.73845219,52.4886783 3.64606969,52.8043478 C3.5023906,53.2953826 3.4921799,53.7641391 3.7684765,54.2347217 C3.88079417,54.4257913 3.85933955,54.6956261 3.89872366,54.9296087 Z M38.4375,11.6075826 C38.4286872,11.567287 38.4198744,11.5269913 38.4110616,11.4866348 C38.5602715,11.3842522 38.7095421,11.2818696 38.8312196,11.1983565 C38.0948339,11.1616522 37.3897488,11.1277478 36.6849068,11.0907391 C36.3802269,11.0747304 36.0644246,11.0375391 36.1422204,11.5122609 C36.4826985,11.5893217 36.8231767,11.6664435 37.3300041,11.7811826 C36.6100284,11.9768783 36.0575567,12.1270435 35.4106969,12.3028348 C35.5770462,12.3610261 35.6272488,12.3925565 35.6780592,12.3935304 C35.787581,12.3956609 35.8976499,12.3737478 36.0071718,12.3763652 C37.1666937,12.4036957 38.2247771,11.6249304 39.4832455,12.1009913 C40.083124,12.327913 40.8781605,12.0712261 41.5792342,11.9873478 C42.4468395,11.8835652 43.3109198,11.7442348 44.1720219,11.5943739 C44.499372,11.5374 44.8142626,11.4086 45.1348055,11.3125478 C45.1194287,11.2506435 45.1041126,11.1887391 45.0887358,11.1268348 C44.9448136,11.1411391 44.8005267,11.1702957 44.6569692,11.1670696 C44.1204214,11.1550783 43.5178687,11.2826609 43.0622164,11.081 C42.2420786,10.7180348 41.7777958,10.5468087 40.8748177,10.7456696 C41.2410656,10.8641217 41.5843395,10.9752087 41.9275527,11.0862348 C41.4117301,11.196287 40.9127431,11.1452174 40.4287075,11.2086435 C39.7590559,11.2964783 39.1007091,11.4705043 38.4375,11.6075826 Z M46.8846637,14.5041826 C46.8842382,14.4626696 46.8838736,14.4211565 46.8834481,14.3796435 C45.9571921,14.3571826 45.0309968,14.3176174 44.1047407,14.3170087 C43.1480348,14.3163391 42.1860413,14.4500696 41.2503039,14.1212522 C41.1354943,14.0808957 40.9715154,14.0868 40.8625405,14.1388435 C40.1322934,14.4878087 39.3667342,14.395287 38.6035454,14.3482957 C38.4394449,14.3381913 38.1964546,14.2446348 38.1254052,14.3191391 C37.7719206,14.6898957 37.3574757,14.4452 36.9764587,14.4935304 C36.8611629,14.5081391 36.750547,14.5600609 36.4763776,14.6447304 C36.77656,14.762087 36.9260737,14.8771304 37.0651337,14.8656261 C37.9243517,14.7945304 38.7941451,15.2972522 39.6463128,14.8191217 C39.7092788,14.7838174 39.8079822,14.8111478 39.8900932,14.8114522 C40.5427877,14.8136435 41.1954214,14.8166261 41.8481159,14.8186957 C42.2854741,14.8200348 42.76094,14.9310609 43.1516815,14.7962348 C43.8275932,14.5630435 44.4990073,14.6367565 45.1755875,14.6063217 C45.745624,14.5806348 46.3149919,14.5388174 46.8846637,14.5041826 Z M45.2311994,10.2151304 C45.7022893,10.5593478 50.3827998,11.654513 50.9468801,11.6093478 C50.5034441,11.3853478 50.0967788,11.1595217 49.6733995,10.9715565 C49.2289911,10.7742783 48.7640397,10.6238087 48.3164708,10.4331043 C47.9417139,10.2733826 47.5790519,10.085113 47.2109806,9.90950435 C47.2086102,10.0665478 47.2612439,10.1235217 47.3147285,10.1798261 C47.3738047,10.2419739 47.4336102,10.3033913 47.5628241,10.437487 C46.770705,10.361887 46.1012358,10.2980957 45.2311994,10.2151304 Z M23.1538493,10.6391478 C23.140235,10.5887478 23.12656,10.5383478 23.1129457,10.487887 C22.3816045,10.3978609 21.6506888,10.3042435 20.9184968,10.2218261 C20.8182739,10.2105652 20.6407415,10.2252348 20.6192869,10.2775217 C20.4112439,10.7834087 19.9725486,10.5460174 19.6391207,10.5784 C19.1789708,10.6230174 18.7112237,10.5896 18.1407618,10.5896 C18.2930713,10.6651391 18.3534238,10.7008087 18.4177877,10.7261304 C19.042342,10.9722261 19.6467788,11.4607652 20.3422609,10.8870696 C20.3775122,10.8580348 20.4490478,10.8704522 20.5038695,10.8682609 C21.0794976,10.8454348 21.6560981,10.8376435 22.2303282,10.795887 C22.5402958,10.7734261 22.8461305,10.6933217 23.1538493,10.6391478 Z M26.9051256,9.92295652 C26.8983185,9.86616522 26.8915113,9.80937391 26.8847042,9.75258261 C26.3317464,9.73438261 25.7785454,9.72172174 25.2258914,9.6964 C24.6895259,9.6718087 24.134684,9.70966957 23.6234198,9.57989565 C23.1701985,9.46491304 22.796171,9.44196522 22.3614263,9.72890435 C22.4752634,9.85715652 22.5528768,10.025887 22.6464749,10.0353217 C22.9627026,10.0672174 23.2989263,9.83986957 23.598987,10.1160957 C23.9358185,9.77431304 24.3172609,10.0052522 24.6871556,10.0204696 C25.3166329,10.0464 25.9474473,10.0462174 26.5775932,10.0416522 C26.6869935,10.0409217 26.7959076,9.96446957 26.9051256,9.92295652 Z M70.4398298,58.7898348 C70.5088128,57.6878522 70.4087723,56.7917913 70.1187399,56.2257652 C69.9262561,56.4711913 69.7490276,56.6972 69.6257091,56.8543652 C69.9284441,57.5740261 70.189607,58.1948957 70.4398298,58.7898348 Z M39.8556929,16.8866174 C39.8583063,16.8018261 39.8609198,16.7169739 39.863594,16.6321826 C38.6812196,16.5580435 37.4981159,16.6148957 36.1933955,16.6853217 C36.5770259,17.0998435 36.9168963,17.0343478 37.2754254,16.9931391 C37.8135535,16.9312957 38.3570908,16.912913 38.8988655,16.8891739 C39.2172204,16.8752348 39.5366694,16.8866174 39.8556929,16.8866174 Z M70.4369733,24.9331478 C70.8,24.6181478 70.8,24.6181478 70.4845624,24.0223565 C70.5821718,23.8162522 70.6814222,23.6065565 70.8040721,23.3474957 C70.510393,23.3120087 70.2808347,23.284313 69.9471029,23.2440174 C70.3006483,23.7812522 69.8060981,24.4488696 70.4369733,24.9331478 Z M13.30156,24.5718261 C13.1481564,23.6795391 13.656017,23.2224087 14.2199757,22.7953478 C14.1786467,23.5019826 14.023359,24.147687 13.30156,24.5718261 Z M15.5338736,24.186887 C16.1491288,23.8612957 16.4869935,23.4544435 16.4662682,22.6758609 C15.9896475,23.0814957 15.5905794,23.4181043 15.1971637,23.7613478 C15.1647083,23.7896522 15.17109,23.8625739 15.1471434,23.9693391 C15.2702796,24.0385478 15.4061791,24.115 15.5338736,24.186887 Z M54.9171394,10.6627652 C54.9126418,10.6779826 54.908205,10.6932609 54.9037682,10.7084783 C55.7959887,10.863087 56.6881483,11.0177565 57.5803687,11.1723652 C57.5666937,10.9126957 57.4661669,10.6834609 57.3571921,10.6793826 C56.5447731,10.6487652 55.7306524,10.6627652 54.9171394,10.6627652 Z M67.6748582,55.7200609 C67.4539303,56.4567652 68.0671191,56.3036174 68.3302269,56.4629739 C68.42656,56.521287 68.6417747,56.3825652 68.8027755,56.333687 C68.7130065,56.1615478 68.6631686,55.8988957 68.524534,55.8375391 C68.2895665,55.7335739 67.9986224,55.7567652 67.6748582,55.7200609 Z M20.2455632,12.2308261 C20.7223055,11.7561652 21.7032618,11.5216348 22.5464951,11.6579217 C21.8296191,12.0589913 21.0018841,11.9952 20.2455632,12.2308261 Z M39.7459279,9.21504348 C39.7371151,9.1588 39.728363,9.10255652 39.7195502,9.04631304 C39.2895462,9.07206087 38.859846,9.10572174 38.4295381,9.12136522 C38.035393,9.13566957 37.6198541,9.00833043 37.2567058,9.19690435 C37.2653971,9.26264348 37.2741491,9.32844348 37.2828404,9.39418261 C38.1038898,9.3344087 38.9248784,9.27475652 39.7459279,9.21504348 Z M62.8695097,13.5674609 C62.9846232,13.7716783 63.0801053,13.9410783 63.1530389,14.0704261 C63.5536264,13.9629913 63.9412075,13.8590261 64.3257496,13.7558522 C63.9024311,13.2670087 63.3911062,13.4364696 62.8695097,13.5674609 Z M48.0419368,7.53492174 C47.7701985,7.59177391 47.5496961,7.66676522 47.3263979,7.67632174 C47.11641,7.68526957 46.9034441,7.6251913 46.6918152,7.59548696 C46.6800243,7.67711304 46.6681726,7.75873913 46.6563817,7.84036522 C47.1294773,7.91797391 47.6025729,7.99552174 48.1368112,8.08317391 C48.0952998,7.84322609 48.0698339,7.69598261 48.0419368,7.53492174 Z M20.0617099,25.5826261 C20.1023703,25.6307739 20.1430308,25.6788609 20.1836912,25.7270087 C20.6269449,25.4532174 21.0701378,25.179487 21.5133914,24.9056957 C21.4809968,24.8540783 21.4486021,24.8024 21.4162075,24.7507826 C20.8701175,24.8710609 20.4527553,25.2049913 20.0617099,25.5826261 Z M59.2867707,12.2106783 C59.7598663,12.262113 60.2330227,12.3135478 60.7061183,12.3649217 C59.784299,12.5939739 59.784299,12.5939739 59.2867707,12.2106783 Z M47.788128,11.9334783 C47.3760535,11.8468 46.9639789,11.7601217 46.5519044,11.6733826 C46.5371353,11.7458783 46.5223663,11.8183739 46.5075972,11.8908696 C46.9123784,12.0153478 47.294064,12.2540174 47.788128,11.9334783 Z M53.6730146,15.2216522 C54.0982172,15.3070522 54.422893,15.5053652 54.5688209,16.0272609 C54.0498379,15.9287739 53.9189222,15.5036 53.6730146,15.2216522 Z M72.3072326,25.1218435 C72.3619327,25.0617043 72.4166329,25.0015652 72.4713331,24.9414261 C72.1216775,24.7656957 72.0308144,24.2809304 71.5035049,24.3078348 C71.7714141,24.5791304 72.0393233,24.850487 72.3072326,25.1218435 Z M50.2180308,8.46786957 C50.2349271,8.38106957 50.2518233,8.29426957 50.2686588,8.20746957 C49.8785251,8.16066087 49.4884522,8.11385217 49.0983185,8.06704348 C49.0884117,8.13692174 49.0784441,8.20673913 49.0685373,8.27661739 C49.4517423,8.34034783 49.8348865,8.40407826 50.2180308,8.46786957 Z M67.3455024,22.5959391 C67.422812,22.6148087 67.5001823,22.6337391 67.5774919,22.6526087 C67.7208063,22.3268348 67.888128,22.0051391 67.6664708,21.5181826 C67.5405389,21.941287 67.4430511,22.2685826 67.3455024,22.5959391 Z M63.2180105,15.5368957 C63.2153971,15.6038522 63.2127836,15.6708087 63.2101094,15.7377652 C63.553201,15.8165913 63.8855348,15.981487 64.244611,15.9317565 C64.25391,15.8720435 64.2631483,15.8123304 64.2724473,15.7525565 C63.9209684,15.6806696 63.5694895,15.6087826 63.2180105,15.5368957 Z M18.8081645,23.1645217 C18.8538695,23.2172957 18.8995746,23.2700696 18.9452188,23.3228435 C19.2034643,23.1354261 19.4616491,22.9480696 19.7198947,22.7606522 C19.6896272,22.7180435 19.659299,22.6754957 19.6290316,22.632887 C19.3554092,22.8100783 19.0817869,22.9872696 18.8081645,23.1645217 Z M42.7195502,7.76062609 C42.7159643,7.81504348 42.7123177,7.86952174 42.7087318,7.92393913 C43.4156402,8.04123478 43.4156402,8.04123478 43.7824352,7.76062609 C43.4263979,7.76062609 43.0729741,7.76062609 42.7195502,7.76062609 Z M46.1766613,12.5455217 C46.1829214,12.5032783 46.1892423,12.4610957 46.1955024,12.4188522 C45.8438412,12.359687 45.4921191,12.3004609 45.1404579,12.2412957 C45.1312196,12.3116609 45.1219206,12.3820261 45.1126823,12.4523913 C45.4673217,12.4834348 45.8219611,12.5144783 46.1766613,12.5455217 Z M18.0320908,13.2494783 C18.0318476,13.2992087 18.0316653,13.3488783 18.0314222,13.3986087 C18.4235008,13.3986087 18.8155794,13.3986087 19.2077188,13.3986087 C19.2079619,13.3488783 19.208205,13.2992087 19.2084481,13.2494783 C18.8163088,13.2494783 18.4241694,13.2494783 18.0320908,13.2494783 Z M16.7411669,15.0651565 C17.1126418,14.9758 17.3820705,14.9110348 17.72109,14.8294696 C17.5066045,15.3987826 17.2036264,15.3333478 16.7411669,15.0651565 Z M58.1654173,6.79170435 C57.8071313,6.83078261 57.5513169,6.85866087 57.2358185,6.89311304 C57.8040316,6.34212174 57.8157618,6.34047826 58.1654173,6.79170435 Z M36.4307942,13.5222348 C36.4173015,13.5956435 36.4038088,13.669113 36.3902553,13.7425217 C36.6803485,13.7746 36.9704417,13.8066783 37.2605348,13.8387565 C37.2681321,13.7797739 37.2757293,13.7207913 37.2833266,13.6618696 C36.9991288,13.6153043 36.7149311,13.5688 36.4307942,13.5222348 Z M48.1687804,14.6396783 C48.1664708,14.5727217 48.164222,14.5057652 48.1619125,14.4388087 C48.0113047,14.4543304 47.8607577,14.4698522 47.7101499,14.485313 C47.7134927,14.5280435 47.7167747,14.5707739 47.7201175,14.6135043 C47.8696921,14.6222696 48.0192666,14.6309739 48.1687804,14.6396783 Z M15.0150122,24.4973217 C14.9575162,24.4727304 14.8999595,24.4480783 14.8424635,24.423487 C14.7569489,24.6477304 14.6714344,24.8719739 14.5859198,25.0961565 C14.640863,25.1167913 14.6957455,25.1374261 14.7506888,25.1580609 C14.8388169,24.9377739 14.9269449,24.7175478 15.0150122,24.4973217 Z M38.4724473,17.2224957 C38.4729943,17.1764174 38.4734806,17.1302783 38.4740276,17.0842 C38.228363,17.0842 37.9826985,17.0842 37.737034,17.0842 C37.7374595,17.1162174 37.7379457,17.1482348 37.7383712,17.1802522 C37.9830632,17.194313 38.2277553,17.2083739 38.4724473,17.2224957 Z M73.4174635,30.8491217 C73.5143436,30.8182 73.5971232,30.796713 73.59609,30.7912957 C73.5599878,30.6022348 73.5159846,30.4146957 73.4731361,30.2269739 C73.4133914,30.2407304 73.3537075,30.2545478 73.2939627,30.2683043 C73.334684,30.4599826 73.3754052,30.6516 73.4174635,30.8491217 Z M70.2173217,27.0002174 C70.250628,27.0064261 70.2838736,27.0126348 70.3171799,27.0189043 C70.3676256,26.8564435 70.4265194,26.6955652 70.4592788,26.5295739 C70.4640194,26.5055913 70.3436791,26.4567739 70.2173217,26.3812957 C70.2173217,26.625687 70.2173217,26.8129826 70.2173217,27.0002174 Z M40.0087318,13.5869391 C40.0241086,13.6496957 40.0394854,13.712513 40.0548622,13.7752696 C40.2942666,13.735887 40.533671,13.6964435 40.7730754,13.6570609 C40.7657212,13.616887 40.7583671,13.576713 40.751013,13.5365391 C40.5035859,13.5533391 40.2561588,13.5701391 40.0087318,13.5869391 Z M64.4385535,15.4273304 C64.4209887,15.4774261 64.4034846,15.5275826 64.3859198,15.5776783 C64.5677674,15.6358696 64.7495543,15.694 64.9313412,15.7521913 C64.9447123,15.7120783 64.9581442,15.6719652 64.9715154,15.6318522 C64.7939222,15.5637391 64.6162682,15.4955043 64.4385535,15.4273304 Z M38.026641,13.2812522 C38.0238452,13.2307913 38.0209887,13.1802696 38.0181929,13.1298087 C37.8813817,13.1373565 37.7445097,13.1449652 37.6076985,13.152513 C37.6104943,13.2029739 37.6133509,13.2534957 37.6161467,13.3039565 C37.7529579,13.2964087 37.8898298,13.2888 38.026641,13.2812522 Z M33.1552877,8.99341739 C33.1679903,8.94685217 33.1807536,8.90028696 33.1934562,8.85372174 C33.0307536,8.81178261 32.8680511,8.76984348 32.7052877,8.72790435 C32.6962925,8.7675913 32.6872366,8.80727826 32.6782415,8.84702609 C32.8372366,8.89578261 32.9962318,8.9446 33.1552877,8.99341739 Z M40.4767828,15.5263043 C40.4864465,15.4726174 40.4961102,15.4189304 40.5058347,15.3652435 C40.3768031,15.3362696 40.2478323,15.3072957 40.1188006,15.2783217 C40.1071921,15.3233043 40.0956442,15.368287 40.0840357,15.4133304 C40.2149514,15.4509478 40.3458671,15.4886261 40.4767828,15.5263043 Z M68.04609,22.0588261 C68.0941045,22.0813478 68.1421799,22.1038087 68.1901945,22.1263304 C68.2391815,21.9901043 68.2882293,21.8538783 68.3372164,21.7176522 C68.294064,21.7 68.2509117,21.6823478 68.2078201,21.6646957 C68.15391,21.7960522 68.1,21.9274696 68.04609,22.0588261 Z M57.1696313,7.54946957 C57.1492707,7.48805217 57.12891,7.42657391 57.1086102,7.36509565 C56.9544165,7.4402087 56.8002836,7.51532174 56.64609,7.59043478 C56.6671799,7.63888696 56.6882699,7.68727826 56.7093598,7.73573043 C56.8628241,7.67364348 57.0162277,7.61155652 57.1696313,7.54946957 Z M21.1583874,9.66712174 C21.1437399,9.60168696 21.1290316,9.53625217 21.1143841,9.47081739 C21.0057131,9.5094087 20.8969814,9.548 20.7883104,9.58665217 C20.7983995,9.62609565 20.8084887,9.66547826 20.818517,9.70492174 C20.9318071,9.69226087 21.0450972,9.67966087 21.1583874,9.66712174 Z M28.0619733,9.45346957 C28.0606361,9.47885217 28.0593598,9.50423478 28.0580227,9.52961739 C28.2506888,9.54221739 28.4433549,9.55475652 28.6360211,9.56735652 C28.6376013,9.52937391 28.6392423,9.49145217 28.6408225,9.45353043 C28.4479133,9.45346957 28.2549433,9.45346957 28.0619733,9.45346957 Z M57.7498784,10.1976 C57.8318679,10.3358348 57.859765,10.4133217 57.8798217,10.411313 C57.95859,10.4034609 58.0348663,10.3706522 58.1120543,10.3470348 C58.0188817,10.3085652 57.9257091,10.2701565 57.7498784,10.1976 Z M58.4991491,11.4966174 C58.512581,11.4593043 58.526013,11.4219913 58.5394449,11.3846783 C58.4189222,11.3420696 58.2983995,11.2995217 58.1778768,11.256913 C58.1651135,11.2924609 58.1523501,11.3280087 58.1395867,11.3634957 C58.2593801,11.4079304 58.379295,11.4523043 58.4991491,11.4966174 Z M46.0478728,13.8625478 C46.0578404,13.8292422 46.0678079,13.7958535 46.0777755,13.7625478 C45.9543963,13.7625478 45.831017,13.7625478 45.7076378,13.7625478 C45.7063006,13.7839764 45.7050243,13.8053219 45.7036872,13.8267505 C45.818436,13.8386276 45.933124,13.8505877 46.0478728,13.8625478 Z M65.8623987,18.3742696 C65.8189425,18.3076783 65.7889789,18.2343304 65.7694692,18.2370087 C65.7043152,18.2460174 65.6429295,18.2822348 65.5800851,18.3080435 C65.6062804,18.3451739 65.6301053,18.4110957 65.6591572,18.4134696 C65.7215154,18.4186435 65.7866086,18.3910696 65.8623987,18.3742696 Z M60.5865073,47.4877565 C60.9740883,47.6674435 60.8376418,47.9372174 60.6715357,48.1658435 C60.485312,48.4221043 60.2516815,48.6438522 59.9795178,48.9464348 C60.2752026,49.0128435 60.4958874,49.0623913 60.7713331,49.1242957 C60.6519652,49.3602261 60.5456645,49.5704696 60.3832658,49.8914957 C60.5090762,49.9681304 60.6669165,50.0642435 60.8351499,50.166687 C60.7329214,50.2351652 60.6925648,50.2841043 60.6472853,50.2892783 C59.6672407,50.4011565 58.6861021,50.4658 57.7348663,50.7918783 C56.8227107,51.1046261 55.904295,50.8402087 54.8987844,50.6919913 C55.089141,50.3407739 55.2384117,50.0654 55.3976499,49.7716435 C54.8730146,49.2017217 54.2525324,49.2780522 53.6274919,49.4091652 C53.4683752,49.4425217 53.3248784,49.5468522 53.166248,49.5876348 C52.7006888,49.7073043 52.5151337,49.6083913 52.161406,49.0496696 C52.6946718,48.7735652 52.9345016,48.3421217 52.7617707,47.6883826 C52.4068882,47.7655043 52.3634927,48.0750261 52.2461912,48.2880696 C51.9456442,48.8341913 51.5057334,49.0761478 50.8896272,49.0287913 C50.2099473,48.9765043 49.5271677,48.9548348 48.8510737,48.8743652 C48.7022285,48.8566522 48.5213533,48.6738609 48.4492099,48.5222957 C48.1700567,47.9358783 47.9288898,47.3313826 47.640316,46.6558522 C47.0590357,46.8975652 46.5468598,47.3151304 46.2799838,48.1303565 C46.6985008,48.3706087 47.1151945,48.6097652 47.7216977,48.9579391 C46.3745543,49.0284261 45.0991288,48.7737478 44.2614263,49.8666609 C43.5323947,49.6730957 43.4925851,49.6856348 42.9382293,50.3250087 C43.3286669,50.3737652 43.6618517,50.4153391 44.0648703,50.4656174 C43.7053687,51.1955652 44.1689222,51.5884174 44.783752,51.9109652 C44.7477715,51.9531478 44.7117909,51.9952696 44.6758104,52.0374522 C44.4796799,51.9973391 44.2848865,51.9483391 44.0871151,51.919 C43.7160049,51.8639739 43.5646677,52.010913 43.6334076,52.3792348 C43.6848865,52.6549739 43.7729538,52.9238957 43.8447326,53.1958609 C43.7755065,53.2255043 43.7063412,53.2551478 43.6371151,53.2847913 C43.4863857,53.042287 43.3265397,52.8048957 43.187419,52.5558174 C43.0332253,52.279713 42.8490681,51.9666609 42.5085292,52.0925391 C42.2981159,52.1702696 42.1208266,52.4511217 42.0159238,52.6807826 C41.7066248,53.3580783 41.8122569,54.0298957 42.1789303,54.6558174 C42.3509319,54.9493913 42.4092788,55.2342 42.4332861,55.5789652 C42.4620948,55.9926348 42.6160454,56.441913 42.8482172,56.7861913 C43.1599473,57.248313 43.2313614,57.7011826 43.2321515,58.1942261 C43.1656605,58.2266087 43.0991086,58.2589913 43.0326175,58.2913739 C42.8800041,58.0910522 42.6619935,57.912887 42.585778,57.6867565 C42.216795,56.5915304 41.6686994,55.6414783 40.7318679,54.9190174 C40.4453606,54.6980609 40.2378039,54.328887 40.0883509,53.986313 C39.8816451,53.5124435 39.7010737,53.046487 39.3663088,52.6295304 C39.1568071,52.3686435 39.2686994,51.9925304 39.5044571,51.7130174 C39.796799,51.3664261 40.0571718,51.0142957 39.7005875,50.5571652 C39.6768233,49.2145652 39.4958874,47.8681913 39.8241491,46.5343565 C39.8891815,46.2700609 39.8711912,45.9864087 39.9178687,45.7162087 C39.9681321,45.4254348 40.040154,45.1375217 40.1193476,44.8530174 C40.2195705,44.4928522 40.3365073,44.1373739 40.4949554,43.6212 C40.5262561,43.6028174 40.7087723,43.4956261 40.8674028,43.4024348 C40.9431929,43.1394174 40.9464141,42.8235043 41.1056524,42.6706 C41.2376013,42.5439304 41.5847042,42.5315739 41.7798622,42.6100348 C42.0085697,42.7019478 42.1758914,42.9469478 42.379376,43.1343043 C43.0834887,41.9979913 44.0071313,41.495513 45.2964141,41.6906609 C45.666795,41.7467217 46.0674433,41.6745913 46.4435981,41.6044087 C47.165701,41.4696435 47.8794773,41.2905043 48.5985413,41.1383304 C48.785859,41.0987043 48.9797407,41.0904261 49.1706442,41.0677826 C49.8778566,40.9840261 50.583124,40.8681913 51.2927674,40.8236957 C52.5497164,40.7448696 53.8143233,40.6092522 55.0522488,40.9901739 C55.2091167,41.0384435 55.4308347,41.0658957 55.4995138,41.1783217 C55.8285656,41.7169565 56.4419976,41.8035739 56.9013574,42.1279478 C57.2148501,42.3493304 57.5190438,42.5876957 57.8048825,42.843713 C58.3831848,43.361713 58.9389384,43.9050957 59.521799,44.4177391 C59.6351499,44.5174435 59.8303687,44.521887 59.9858387,44.5760609 C60.2369733,44.6635913 60.486406,44.7558696 60.7774716,44.8608696 C60.7191856,45.1423913 60.7019854,45.3593913 60.6286872,45.5553304 C60.3845421,46.2075478 60.7224068,46.8601913 60.6068679,47.5094261 C59.975081,47.4421652 59.3672407,47.5250087 58.8228525,47.8632609 C58.6581442,47.9655826 58.4369733,48.1627391 58.4406199,48.3115652 C58.4478525,48.6076957 58.739222,48.552 58.958205,48.5435391 C59.7105146,48.5142609 60.2820705,48.2083913 60.5865073,47.4877565 Z M49.0732172,45.1580348 C49.278282,45.2160435 49.3979538,45.274113 49.5204214,45.2807478 C50.8884724,45.3545826 52.2584076,45.4002348 53.6245746,45.4981739 C54.1893233,45.5386522 54.7507901,45.6664783 55.3055713,45.7912 C55.8672204,45.9174435 56.4183549,46.0805739 57.0323947,45.6725652 C56.8308549,45.467313 56.6243922,45.1060522 56.471718,45.1276 C55.8193274,45.2196348 55.3107982,44.9516261 54.7751621,44.6688261 C54.4025932,44.4720957 53.9909441,44.3496261 53.4880065,44.1510087 C52.9528566,44.7194696 52.1872974,44.6494087 51.4143233,44.5524435 C51.1700567,44.5217652 50.9223258,44.4945565 50.6770259,44.5005826 C50.0997569,44.5147652 49.5621759,44.6442348 49.0732172,45.1580348 Z M57.0364668,46.9510696 C57.3718395,46.8777826 57.7072123,46.8044957 58.0425851,46.7311478 C58.0295178,46.675513 58.0163898,46.6198783 58.0033225,46.5642435 C57.6388979,46.5185304 57.2589749,46.4089043 57.0364668,46.9510696 Z M50.0190438,46.5153652 C49.6993517,46.6139739 49.5161062,46.6704609 49.2175648,46.7624348 C49.4964141,46.3183304 49.4964141,46.3183304 50.0190438,46.5153652 Z M45.7713938,48.3038957 C45.7802674,48.2521565 45.7892018,48.2004783 45.7980754,48.1487391 C45.6983995,48.1410087 45.596171,48.1158696 45.4998987,48.1304174 C45.40156,48.1452696 45.3091167,48.1991391 45.0387763,48.3038957 C45.41797,48.3038957 45.5947123,48.3038957 45.7713938,48.3038957 Z M27.4058144,48.0771565 C27.7228323,47.9991217 27.9979133,47.9703304 28.2361021,47.8609478 C28.4411062,47.7668435 28.7220219,47.6026783 28.7538088,47.4297478 C28.7881483,47.2428783 28.6081848,46.9778522 28.4551459,46.8065652 C28.3168152,46.6517739 28.0886548,46.5774522 27.8250608,46.4239391 C27.6688006,46.7978609 27.4976499,47.1336174 27.387581,47.4884261 C27.226641,48.0071565 26.8795381,48.2414435 26.3633509,48.2968957 C26.0910656,48.326113 25.8170178,48.4509565 25.553363,48.4269739 C24.8729538,48.3651304 24.1916937,48.2727304 23.525081,48.1268261 C23.3647488,48.0917652 23.2479335,47.8090261 23.1329417,47.6262957 C22.9782618,47.3804435 22.8448541,47.1212 22.6192464,46.7200087 C22.3470827,47.0484 21.9807131,47.3461739 22.0304295,47.4574435 C22.1809765,47.7942348 22.4927674,48.058713 22.7369733,48.3457739 C22.2432739,48.3457739 21.6585292,48.3242261 21.0759117,48.3507652 C20.1723865,48.391913 19.2899514,48.5252174 18.4752229,48.9758348 C18.2473663,49.1018348 17.9389182,49.1781652 17.6853525,49.1440174 C16.659846,49.0058435 15.6412682,48.815687 14.6288898,48.530087 C15.0519652,48.5066522 15.4751013,48.4832174 15.9598055,48.4563739 C15.9406605,48.2675565 15.9256483,48.1195826 15.9097853,47.9634522 C15.9319084,47.9523739 15.9748784,47.9116522 16.0159643,47.9134174 C16.2901945,47.925287 16.5641207,47.9616261 16.8379862,47.9604696 C17.1982172,47.9589478 17.374534,47.7426174 17.5977715,47.4510522 C18.2229943,46.6347304 18.884137,45.798687 20.0996961,45.8782435 C20.3084684,45.8919391 20.5319489,45.8411739 20.7335494,45.7745217 C21.5149716,45.5161304 22.2959076,45.2812957 23.1356159,45.3272522 C23.4083874,45.3421652 23.6851702,45.3005304 23.9590357,45.2739913 C24.5554498,45.2162261 25.1516815,45.1556 25.7467585,45.0859043 C25.8503241,45.0737913 25.9480551,45.0117652 26.0428687,44.9749391 C25.9777147,44.422 25.7366694,44.0901391 25.1988452,44.0707826 C24.4447123,44.0436957 23.7490478,43.7976609 23.0254254,43.6699565 C22.4968395,43.5766435 21.9385332,43.5775565 21.3792545,43.8376522 C20.7767626,44.1178348 20.0818882,44.1940435 19.4378849,44.3933913 C19.3158428,44.4311913 19.2430916,44.6286522 19.1373987,44.7655478 C18.5716167,44.8662261 17.955936,44.9757304 17.3402553,45.0852957 C17.6539911,45.2150696 18.0037682,45.2569478 18.0397488,45.7827391 C17.8133509,45.7677043 17.6063412,45.7810348 17.4131888,45.7354435 C17.0435373,45.6482174 16.7311994,45.6929565 16.3997164,45.9116609 C15.7733995,46.3250261 15.5075567,46.242 14.9454214,45.5362174 C15.0567666,45.4307913 15.1627026,45.3110609 15.2882091,45.217687 C15.3935373,45.1393478 15.521718,45.0917478 15.6472245,45.0266783 C15.4875,44.2443826 16.0165721,43.9299304 16.539141,43.6182174 C16.6751621,43.5370783 16.8991288,43.5350696 16.9704214,43.4242261 C17.7144044,42.2674 19.0922407,42.1360435 20.130389,41.4592957 C20.3528363,41.3142435 20.7177472,41.3883217 21.0670989,41.3569739 C21.2456645,41.0085565 21.4867707,40.674687 21.9945097,40.8183391 C22.9764384,40.301313 23.9965964,40.6469913 24.9928687,40.7255739 C25.4845624,40.7643478 25.9594206,41.0205478 26.4410251,41.181 C26.5964951,41.2328 26.7472853,41.3348783 26.9034846,41.342 C27.6815032,41.377487 28.4082253,41.5434783 29.0976297,41.9387652 C29.2905389,42.0493652 29.6245138,41.8971304 29.8941856,41.8934174 C30.2987237,41.8878174 30.7050243,41.8911043 31.1074959,41.9262261 C31.2140397,41.9355391 31.3895665,42.0689652 31.3961305,42.1558261 C31.4274311,42.5707739 31.772346,42.6516696 32.0344206,42.6916 C32.5954011,42.7771217 33.1707253,42.7678696 33.8716167,42.8042696 C33.9052877,42.9444522 33.9804092,43.2208 34.0369327,43.5009826 C34.1208063,43.9170261 34.1970827,44.3347739 34.2664303,44.7534957 C34.3698744,45.3785043 34.4527755,45.9914 34.1929498,46.6189652 C34.1006888,46.8418696 34.2214546,47.1563826 34.2549433,47.4278609 C34.3552877,48.2424174 34.2103323,48.9909913 33.7005875,49.7081565 C33.5411669,49.2224783 33.4076985,48.8045478 33.2668152,48.3890522 C33.0250405,47.6760261 32.9439627,47.6395652 32.2360818,47.8898609 C32.1626013,47.9158522 32.0798825,47.9156087 32.0014789,47.9274783 C32.0186183,48.1710783 32.1167747,48.4454783 32.0245138,48.6171913 C31.9529781,48.7503739 31.6469003,48.772713 31.4391005,48.8139217 C30.9338533,48.914113 30.4251418,48.9965304 29.8659846,49.0953217 C29.9037277,49.3926696 29.9298622,49.598287 29.9560575,49.8046957 C28.9536467,50.4580696 25.1267018,51.2326957 24.0416937,50.9690696 C24.308205,50.4848522 24.7670178,50.4153391 25.1645665,50.5141304 C26.5528566,50.8592 27.7497569,50.1599913 29.0192261,49.8720783 C29.1767626,49.8363478 29.3837115,49.5904957 29.393983,49.4307739 C29.4100284,49.181513 29.1981564,49.1639217 28.9353525,49.1411565 C28.3148096,49.0877739 27.6675851,48.970113 27.4058144,48.0771565 Z M24.9376823,46.1414435 C24.6354335,45.797287 24.4407618,45.8069652 24.2695502,46.1191652 C24.2530794,46.1491739 24.2963533,46.2120522 24.3359198,46.3330609 C24.5121151,46.2769391 24.6886143,46.2207565 24.9376823,46.1414435 Z M31.2507496,0.787226087 L30.2514992,0.787226087 L30.2360616,0.601330435 C31.9744327,0.770608696 33.604923,0.160330435 35.3093193,0.0518 C34.25859,0.347504348 33.2082253,0.644365217 32.1570705,0.938426087 C31.5514182,1.10782609 30.948987,1.29244348 30.3368314,1.4342087 C29.6695502,1.58869565 28.9950972,1.76570435 28.3150527,1.45782609 C28.2266207,1.41777391 28.1045178,1.45234783 27.8211102,1.45234783 C28.1127229,1.66831304 28.2753647,1.78871304 28.5024919,1.95695652 C28.2872771,2.01033913 28.1374595,2.06633913 27.9836912,2.08125217 C27.7404579,2.10486957 27.4922407,2.06013043 27.3574352,2.36386957 C27.3167139,2.45566087 27.1226499,2.53442609 27.0040721,2.5276087 C25.9882901,2.46935652 25.1102917,2.97402609 24.1660454,3.20313913 C24.0878849,3.22206957 24.0130065,3.28610435 23.9384319,3.28312174 C23.5063006,3.26565217 22.9991086,3.08073043 22.6622771,3.24702609 C22.2501418,3.45045217 21.8636548,3.54333913 21.3094206,3.61066087 C21.442889,3.40833043 21.5073744,3.20368696 21.5962925,3.19242609 C22.4330835,3.08657391 23.063047,2.4906 23.8460494,2.26787826 C23.975081,2.23117391 24.1102512,2.16549565 24.2363655,2.17773043 C24.9510535,2.24718261 25.5898298,2.10042609 26.1652147,1.64244348 C26.3232982,1.51662609 26.5769246,1.50311304 26.790863,1.4574 C27.2976904,1.34905217 27.8126621,1.27430435 28.3139587,1.14556522 C29.0330227,0.960947826 29.7423015,0.79526087 30.4949757,0.959121739 C30.7361426,1.01165217 31.0027147,0.946765217 31.2576783,0.935565217 C31.2553687,0.88613913 31.2530592,0.836713043 31.2507496,0.787226087 Z M55.3549838,51.848513 C54.8713128,51.9328174 54.5513169,51.9886348 54.2003241,52.0498087 C54.216248,52.2259652 54.2294976,52.3731478 54.2492504,52.591487 C52.9383306,52.591487 51.6352512,52.7312435 50.3764789,52.5545391 C48.9491086,52.3541565 47.5620948,51.8677478 46.155936,51.5119043 C45.8704011,51.4396522 45.5778768,51.394913 45.2862642,51.3370261 C45.2897285,51.3079304 45.2909441,51.2195478 45.3017018,51.2183913 C46.6089141,51.0748609 47.9169165,50.9585391 49.2257699,51.2025652 C49.2526945,51.2076174 49.2793152,51.2235043 49.3054498,51.2221652 C50.5729133,51.1585565 51.7529173,51.7289652 53.0084684,51.7349304 C53.3305916,51.7364522 53.6648703,51.7041913 53.9726499,51.6150174 C54.4194287,51.4856087 54.8229943,51.4932174 55.3549838,51.848513 Z M14.2555916,6.4267913 C13.8144044,6.93523478 13.3732172,7.44361739 12.9234603,7.96192174 C12.9882496,8.04275652 13.0544976,8.12547826 13.1367301,8.22810435 C11.6381888,9.35510435 10.140316,10.4816174 8.51578201,11.7033913 C8.66645057,11.1389478 8.90895462,10.8278435 9.23673015,10.5371913 C9.46768639,10.3324261 9.63980956,10.0509043 9.80366694,9.78246957 C10.2075972,9.12063478 10.8125203,8.71603478 11.4957253,8.40304348 C11.4687399,8.232 11.3623784,8.01201739 11.4309968,7.90908696 C11.6478525,7.58386087 11.8753444,7.19965217 12.1991694,7.02629565 C12.8079822,6.7004 13.4866896,6.50543478 14.1364668,6.25635652 C14.0633509,6.34078261 14.1514789,6.46678261 14.2555916,6.4267913 Z M15.6150729,8.6639913 C15.6593193,8.24502609 15.7928485,8.00002609 16.1606159,7.88516522 C16.626722,7.73968696 17.0753849,7.5382087 17.5316451,7.36101739 C17.6325972,7.32181739 17.7605956,7.31043478 17.8307942,7.24055652 C18.6747569,6.40049565 19.8563412,6.56746087 20.8616694,6.21283478 C20.8753444,6.20802609 20.903363,6.244 20.9971434,6.31850435 C20.7959076,6.4140087 20.6243314,6.50178261 20.4477107,6.57768696 C20.1992504,6.68445217 19.8813817,6.71963478 19.7109603,6.89816522 C19.41953,7.20342609 19.1051864,7.26873913 18.7094003,7.33533043 C18.1172407,7.43497391 17.5394854,7.66469565 16.9812399,7.90013913 C16.7695502,7.98943478 16.8509319,8.42118261 16.4856564,8.46111304 C16.2167747,8.49051304 15.9546394,8.58218261 15.6150729,8.6639913 Z M70.9678687,21.620687 C71.0398298,21.5120957 71.1117909,21.4035043 71.2006483,21.2694087 C70.8357982,21.230087 70.5189627,21.1959391 70.1780592,21.1592348 C70.101175,20.6333217 69.5060373,20.3177739 69.6046191,19.5452174 C69.9796799,20.0658957 70.2580429,20.4524174 70.5748784,20.8923217 C70.6428282,20.7545739 70.6867099,20.6655217 70.7594611,20.517913 C71.1073541,20.8218957 71.5839141,20.9904435 71.6411062,21.5544609 C71.4002431,21.7724348 71.1786467,21.7285478 70.9511548,21.6004783 C70.95,21.5990174 70.9678687,21.620687 70.9678687,21.620687 Z M30.546637,4.06371304 C30.8331442,4.06371304 31.1206848,4.04855652 31.4059765,4.06712174 C31.875547,4.09773913 32.2830632,4.03425217 32.7075972,3.7527913 C33.1274514,3.47437391 33.6579822,3.46871304 34.1250608,3.75693043 C33.5617707,3.97155652 33.0414506,4.28302609 32.4915924,4.34967826 C31.8581037,4.42643478 31.1985413,4.28704348 30.5502836,4.24145217 C30.5490073,4.18222609 30.5477917,4.123 30.546637,4.06371304 Z M35.3924635,2.26106087 C34.8424838,2.66998261 34.3681726,2.78904348 33.9017018,2.85441739 C33.0897083,2.96812174 32.2684157,3.01596522 31.450466,3.08541739 C31.3540721,3.09357391 31.2545178,3.06423478 31.1502836,2.95211304 C32.5018639,2.73194783 33.8534441,2.51178261 35.3924635,2.26106087 Z M25.2308144,5.0519913 C24.0449149,5.42828696 22.8590154,5.80458261 21.5948339,6.20577391 C21.6987034,5.89095652 21.8194692,5.66592174 22.1393436,5.58837391 C22.9084279,5.40186957 23.6744733,5.20197391 24.4466572,5.02977391 C24.6971232,4.97389565 24.962966,4.98710435 25.2217585,4.96872174 C25.2247366,4.99641739 25.2277755,5.02423478 25.2308144,5.0519913 Z M36.1739465,2.53509565 C37.3470219,2.2568 38.4607172,1.65796522 39.7980754,1.7548087 C38.6437804,2.54544348 37.3699352,2.35090435 36.1739465,2.53509565 Z M46.4333266,2.5088 C45.3367099,2.58488696 44.3144854,3.22042609 43.1722853,2.95351304 C43.1639587,2.89641739 43.1556929,2.83926087 43.1473663,2.78216522 C44.2416126,2.62810435 45.3359198,2.47410435 46.4301661,2.32004348 C46.4311994,2.38298261 46.4322326,2.44592174 46.4333266,2.5088 Z M17.4438209,6.16773043 C17.9183752,5.86289565 18.3638169,5.48714783 18.8768436,5.27617391 C19.2737844,5.11292174 19.7552674,5.15595652 20.2140194,5.16758261 C19.3834279,5.77798261 18.3468598,5.8156 17.4438209,6.16773043 Z M64.0960697,10.0355043 C64.3270867,10.3905565 64.5122771,10.6751826 64.7271272,11.0054 C64.1853525,11.212113 63.7583874,11.0960957 63.27891,10.7470087 C63.5604335,10.501887 63.7944895,10.2981565 64.0960697,10.0355043 Z M4.389141,20.2861826 C4.36057536,20.9229391 4.10798217,21.2724522 3.58820908,21.4511043 C3.36004862,20.7037478 3.36004862,20.7037478 4.389141,20.2861826 Z M56.0145462,5.35633913 C55.1938006,5.31811304 54.3730551,5.27988696 53.5523096,5.24166087 C54.3802877,5.01486087 55.2045583,4.9146087 56.0145462,5.35633913 Z M4.00976499,19.6410261 C4.33334684,19.0971565 4.30155997,18.4471913 5.08626418,18.2256261 C4.86959076,18.8284174 4.81337115,19.4193391 4.00976499,19.6410261 Z M52.7628647,3.22395652 C53.6077998,3.18676522 54.343517,3.47583478 55.0049635,3.98610435 C54.2576378,3.73209565 53.5102512,3.47802609 52.7628647,3.22395652 Z M42.4593598,2.93610435 C42.3329417,3.21166087 42.3104538,3.33589565 42.2670583,3.34374783 C41.7220624,3.44193043 41.1739668,3.52331304 40.6053282,3.50054783 C41.1233387,3.15365217 41.7612034,3.29474783 42.4593598,2.93610435 Z M39.265235,4.08556522 C39.6720219,3.82863478 40.1219611,3.91695652 40.5831442,4.06024348 C40.1533225,4.1356 39.72344,4.21089565 39.2936183,4.28625217 C39.2841977,4.21935652 39.2747164,4.15246087 39.265235,4.08556522 Z M24.502816,8.45271304 C24.9902553,8.37802609 25.3774716,8.31873913 25.764688,8.25945217 C25.3950365,8.42477391 25.0495138,8.7262 24.502816,8.45271304 Z M6.15917747,18.2574 C6.10320097,18.2696957 6.06576175,18.2854 6.0477107,18.3037217 C5.65654376,18.1098522 6.06697731,17.878913 6.01884117,17.6697043 C6.01884117,17.6697043 5.99106564,17.6961217 5.99112642,17.6961217 C6.12836305,17.6509565 6.26566045,17.6057304 6.40289708,17.5605043 C6.43766207,17.5980609 6.47242707,17.6356174 6.50719206,17.673113 C6.39116694,17.8678957 6.27520259,18.0626783 6.15917747,18.2574 Z M51.368983,49.3525565 C51.5705227,49.4059391 51.7720624,49.4592609 52.1186791,49.551113 C51.7117099,49.8400609 51.51406,49.7444957 51.3270462,49.5625565 C51.3410251,49.4924957 51.3550041,49.4225565 51.368983,49.3525565 Z M29.6696718,4.58743478 C29.354842,4.58743478 29.0400122,4.58743478 28.6925446,4.58743478 C28.9775932,4.25015652 28.9864668,4.24966957 29.6696718,4.58743478 Z M15.2004457,8.58242609 C14.957577,8.65108696 14.7147083,8.71974783 14.4718395,8.78834783 C14.6149109,8.38825217 14.8865883,8.41375652 15.1496353,8.41113913 C15.1665316,8.46823478 15.1834887,8.52533043 15.2004457,8.58242609 Z M16.4830429,9.14851304 C16.0389992,9.32728696 15.7118922,9.4590087 15.2219003,9.65628696 C15.5998177,9.15423478 15.922731,9.0104 16.4830429,9.14851304 Z M11.1190235,12.6269652 C10.9497569,12.7754261 10.7804903,12.923887 10.4972042,13.1722957 C10.5096029,12.6199043 10.715701,12.5126522 11.1190235,12.6269652 Z M12.2462115,9.63613913 C12.0548217,9.76938261 11.8634927,9.90268696 11.5418558,10.126687 C11.6422609,9.59377391 11.8997771,9.55250435 12.2462115,9.63613913 Z M14.9137561,7.56438261 L14.9332658,7.58605217 C14.6136345,7.60796522 14.2342585,7.45682609 14.1057131,7.99454783 C14.375081,7.8512 14.6443882,7.7077913 14.9137561,7.56438261 Z M53.6265194,6.05506087 C53.3669368,6.07131304 53.1074149,6.08762609 52.8478323,6.10387826 C52.8450365,6.06333913 52.8422407,6.02286087 52.8394449,5.98232174 C53.0990276,5.96661739 53.358671,5.95091304 53.6183144,5.9352087 C53.6210494,5.97513913 53.6237844,6.01513043 53.6265194,6.05506087 Z M51.3721434,3.04268696 C51.1499392,2.98297391 50.9276742,2.92332174 50.70547,2.8636087 C50.7083266,2.8454087 50.7111831,2.8272087 50.7140397,2.8090087 C50.9413493,2.84053913 51.1686588,2.8720087 51.3960292,2.90353913 C51.3880673,2.94998261 51.3801661,2.99630435 51.3721434,3.04268696 Z M40.1714951,3.55551304 C40.0846434,3.5804087 39.9919571,3.6365913 39.912581,3.62161739 C39.8272488,3.60554783 39.754376,3.52276522 39.7138371,3.34545217 C39.8658428,3.36578261 40.0178485,3.38605217 40.1698541,3.40638261 C40.1704011,3.45611304 40.1709481,3.50578261 40.1714951,3.55551304 Z M17.7013371,4.55894783 C17.8675041,4.45321739 18.033671,4.34748696 18.1998987,4.24175652 C18.2278566,4.28351304 18.2557536,4.3252087 18.2836507,4.36696522 C18.1161467,4.47555652 17.9487034,4.58408696 17.7811994,4.69267826 C17.7545786,4.64812174 17.7279579,4.60350435 17.7013371,4.55894783 Z M19.9988655,3.4320087 C19.7607982,3.50146087 19.5226702,3.57091304 19.2846029,3.64036522 C19.2686183,3.5819913 19.2526337,3.52361739 19.2366491,3.46524348 C19.475081,3.39682609 19.713513,3.32834783 19.9518841,3.25993043 C19.9675648,3.31726957 19.9831848,3.37466957 19.9988655,3.4320087 Z M14.9332658,7.58605217 C15.068983,7.2891913 15.3366491,7.23386087 15.5897893,7.15205217 C15.6153768,7.2078087 15.6409036,7.26362609 15.6664911,7.31938261 C15.415782,7.4011913 15.1650729,7.48293913 14.9139992,7.56456522 C14.9137561,7.56438261 14.9332658,7.58605217 14.9332658,7.58605217 Z M8.59497569,13.7708261 C8.59497569,13.7708261 8.61199352,13.7523217 8.61405997,13.7498261 C8.92530389,13.9619565 9.02595219,13.695713 9.30814425,13.3783391 C8.95909643,13.5704435 8.77700567,13.6706348 8.59497569,13.7708261 Z M3.17935575,21.9571739 C3.31343193,21.8924087 3.4475081,21.8277043 3.58158428,21.7629391 C3.60869125,21.787713 3.63579822,21.8125478 3.66290519,21.8373217 C3.56797002,21.9418957 3.47297407,22.0465304 3.3780389,22.1511043 C3.31179092,22.0864609 3.24554295,22.0218174 3.17935575,21.9571739 Z M23.7397488,8.55941957 C23.5975891,8.55941957 23.4554295,8.55941957 23.3133306,8.55941957 C23.3133306,8.53591957 23.3133914,8.51241957 23.3133914,8.48891957 C23.4555511,8.48891957 23.5977107,8.48891957 23.7398703,8.48891957 C23.7398096,8.51241957 23.7398096,8.53591957 23.7397488,8.55941957 Z M40.8833266,11.5968935 C41.0592788,11.5968935 41.2351702,11.5968935 41.4111224,11.5968935 C41.4111224,11.6247935 41.4111224,11.6526935 41.4111831,11.6805935 C41.235231,11.6805935 41.0592788,11.6805935 40.8833266,11.6805935 C40.8833266,11.6526935 40.8833266,11.6247935 40.8833266,11.5968935 Z M22.3672002,4.05823478 C22.5333671,3.95250435 22.699534,3.84683478 22.8657618,3.74104348 C22.8936588,3.7828 22.9216167,3.82449565 22.9495138,3.86625217 C22.7820097,3.97484348 22.6145665,4.08343478 22.4470624,4.19196522 C22.4204417,4.1474087 22.3938209,4.1027913 22.3672002,4.05823478 Z M23.7332455,67.0485565 C23.4765194,68.2391043 26.0166734,69.1335217 26.0166734,69.1331565 C25.7882091,69.2581826 25.5883104,69.3675043 25.2933549,69.5288696 C25.5233995,69.715313 25.6482982,69.8535478 25.8029173,69.9357217 C26.7223055,70.4245043 27.6233387,70.9704435 28.7119935,70.9945478 C28.9317058,70.9994174 29.1543963,71.0303391 29.3705835,71.0050174 C31.5425446,70.7504609 33.7067869,70.8392087 35.8669571,71.1352174 C36.3094206,71.1959043 36.3084481,71.2032087 36.945705,70.8228348 C36.9622366,70.9016609 36.979923,70.9667913 36.9885535,71.0331391 C36.9949959,71.0829304 36.9898298,71.1341826 36.9898298,71.2078348 C37.522731,71.378087 38.0063412,71.1867739 38.5034441,71.0160348 C38.862034,70.8928348 39.240316,70.7756609 39.6144652,70.7589217 C40.7615883,70.7075478 41.9109603,70.7080348 43.0593598,70.6832609 C43.3232577,70.6776 43.4823136,70.567487 43.3835494,70.2137739 C43.11953,70.1705565 42.8360008,70.124113 42.4451985,70.0601391 C42.6313614,69.8449652 42.7567464,69.7000348 42.9714749,69.4518087 C42.6964546,69.4518087 36.1165113,68.507113 35.729295,68.4243304 C35.520705,67.6114174 36.0988857,67.7580522 36.0988857,67.3879043 C36.0899514,67.2062696 30.8426256,64.1158609 30.5456645,63.4931652 C30.2174028,62.8047913 30.5040924,62.3863739 31.2638776,62.3197826 C31.7565438,62.2766261 32.2508509,62.2391304 32.7396272,62.1666348 C33.9399311,61.9885913 35.010231,62.3499739 36.028748,62.9329826 C36.1939425,63.0275739 36.3432131,63.1891826 36.4846434,63.2734261 C37.7990276,64.0564522 39.2555105,63.2990522 39.2555105,63.2990522 C39.8688209,62.797913 40.0166329,62.2796696 39.6170178,61.2685652 C39.3882496,60.6898783 39.5588533,60.4673391 40.1387358,60.384313 C40.253363,60.3679391 40.729376,60.4040348 41.2751621,60.5003304 C42.3986426,60.6985217 43.8176256,61.1516348 42.9873379,61.9262609 C43.4858387,62.3362174 44.0420786,62.5160261 44.6068274,62.4291043 C45.0846637,62.3555739 45.6240681,61.3166522 45.5887561,60.7504435 C45.5705227,60.4581478 45.5370948,60.1668261 45.5104741,59.8750783 C45.5659643,59.8436087 45.6213938,59.8122 45.6768841,59.7807304 C45.8722245,59.9854957 46.0997164,60.1685304 46.2562196,60.399713 C46.5814425,60.8799739 47.0100486,61.1801826 47.560393,61.3534174 C48.9700162,61.7970348 50.0973865,62.6321652 50.9788493,63.8257565 C51.4025932,64.3995739 51.9046191,64.9149565 52.3616086,65.4647304 C52.7995746,65.9916174 53.2346232,66.521487 53.6533225,67.063713 C54.0105146,67.5262609 54.4163898,67.8511217 55.0465964,67.6640696 C55.3622164,68.1653913 55.3555916,68.6600783 55.1194084,69.1134348 C54.8421394,69.6456783 54.7270867,70.1954522 54.7299433,70.7809565 C54.7351702,71.8509217 53.9395259,72.4317391 53.2766207,73.0569304 C53.0602512,73.2610261 52.60156,73.2724696 52.2574352,73.2607826 C51.6753647,73.241 51.3131888,73.4925739 51.0892828,73.994687 C50.8047204,74.6327826 48.1372974,78.2998087 48.1199149,78.4841826 C48.1013169,78.6817652 48.0996759,78.980087 48.2152147,79.0656696 C48.3533023,79.1679913 48.6415721,79.1429739 48.8310778,79.0765652 C48.9922609,79.0200783 49.1343598,78.8455043 49.2354943,78.6907739 C49.791248,77.8403043 50.3273096,76.9769304 50.884218,76.1271913 C50.9450567,76.0343652 51.0959684,76.0007652 51.2753849,75.9002696 C51.4045381,76.7935913 50.067423,78.6306348 49.8145867,78.9323652 C49.4433549,79.3754957 49.0961912,79.8387739 48.7311588,80.2872 C48.4067261,80.6857739 46.6405186,82.2717304 45.9951175,82.8311217 C45.6383509,83.1404 41.0060373,84.8550348 33.1254457,84.2467652 C32.8185778,84.290287 32.4839344,84.1374435 32.1388371,84.0701826 C34.2845421,83.4715913 29.2997771,80.5528957 29.2509117,79.9362261 C29.2020462,79.3195565 30.13906,79.5939565 30.6014587,79.722513 C31.6723055,80.020287 32.7987034,80.1346 33.9097853,80.2579826 C34.158124,80.2855565 34.4362439,80.0446348 34.8410859,79.8650696 C35.5949149,80.3400348 36.4988655,80.3060696 37.3997164,79.8058435 C36.301094,79.4781826 35.0206848,79.886313 34.0768031,79.0245217 C34.0784441,78.9522696 34.0800243,78.8799565 34.0816653,78.8077043 C34.4177674,78.7555391 34.754295,78.6583304 35.0899109,78.6615565 C35.6067058,78.666487 36.1231361,78.7788522 36.6392018,78.7753826 C37.3292139,78.7707565 38.0265802,78.7149391 38.3674838,77.8720783 C38.5134724,78.1494609 38.6279781,78.3669478 38.742423,78.5844348 C38.7994935,78.585713 38.856564,78.5869304 38.9136345,78.5882087 C39.014222,78.2405826 39.1147488,77.8928957 39.2390397,77.4632174 C38.4423015,77.2683739 37.7316856,77.3553565 37.1319287,77.7453478 C36.5700365,78.1107478 36.0676459,78.2592087 35.4370138,77.9828 C35.2258712,77.8902783 34.9530997,77.9386087 34.6623987,77.9195565 C34.3642828,77.1629478 33.5735008,77.1596609 32.9503444,76.8714435 C32.952107,76.8757652 32.9538695,76.880087 32.9556321,76.8844087 C32.4246151,76.6211478 31.8935981,76.3579478 31.3769246,76.1018087 C31.2509319,76.5292957 31.1373379,76.9145391 30.9930511,77.4039913 C31.551722,77.7247739 32.2061183,78.1005826 33.0191451,78.5674522 C32.6567261,78.6043391 32.4342788,78.6924174 32.2624595,78.6331913 C31.4601904,78.3567217 30.6719003,78.0395304 29.8786264,77.7369478 C29.3882091,76.7167739 28.2333063,76.5104261 27.4910859,75.7834609 C26.6529579,74.9626348 25.7962318,74.1671913 25.0719408,73.2386261 C24.379376,72.3507826 23.5444084,71.6588174 22.420077,71.3797304 C22.2367099,71.3342 22.0670178,71.2334609 21.8463331,71.139113 C21.5284643,71.3647565 21.2051256,71.5943565 20.8182131,71.8690609 C21.536487,72.3481043 21.5261548,74.3605739 21.322184,75.4625565 C21.1486021,74.9934957 20.9394044,74.5340522 20.8094611,74.0531217 C20.5994733,73.2759391 20.3363655,72.533513 19.8967585,71.8493391 C19.6614263,71.4830261 19.5209076,71.0562696 19.3295178,70.6606783 C19.2586507,70.5142261 19.15703,70.3691739 19.0757699,70.2467652 C18.0621759,68.7205826 18.2817058,68.592087 17.96797,67.7405217 C17.8663493,67.4648435 16.7926459,64.4118087 19.7623177,65.315113 C20.8711507,65.7593391 21.7828809,64.4276957 22.2774311,63.9014783 C23.0096232,63.1224696 23.7677066,62.3679304 24.516795,61.6049304 C24.6322123,61.4873304 26.2507293,60.2519217 27.0720827,59.9461739 C27.2941653,60.4211391 26.8780186,60.7431391 26.563128,61.0212522 C25.2720827,62.1616435 24.4839141,63.4828783 23.6595827,65.0001739 C23.3358793,65.5959652 22.8285049,66.0918696 22.4030592,66.6319043 C22.1858387,66.9076435 21.9647285,67.1802783 21.7440438,67.4560783 C22.0896272,68.0856522 22.4067058,67.5337478 22.7068274,67.4550435 C23.040316,67.3675739 23.3536264,67.2029826 23.7332455,67.0485565 Z M42.2889384,75.268687 C42.6106969,74.8198348 42.6368314,73.7955217 42.2820097,73.4710261 C41.6497974,72.8930087 41.1234603,73.4529478 40.5987034,73.7135304 C39.5773906,72.6817304 38.1130673,72.6706522 36.9994935,73.6692174 C36.9453404,73.6120609 36.888513,73.5567304 36.8368517,73.4968957 C36.1484806,72.6994435 34.8345827,72.4290609 33.9327593,72.9501043 C33.6066856,73.1384957 33.371171,73.1087304 33.1186994,72.886313 C32.770624,72.5797739 32.3550851,72.5142174 31.9640397,72.700113 C31.529842,72.9065217 31.1240883,73.0087826 30.6360413,72.9312348 C30.2969003,72.8773652 29.9936791,73.0577217 29.9311386,73.4693217 C29.8674433,73.8885304 30.0247974,74.4120696 30.3263169,74.4635652 C30.8568476,74.5541391 31.2235818,74.8310957 31.6391207,75.1530348 C32.1088736,75.5169739 32.7592585,75.5571478 33.3819287,75.2848783 C33.5527147,75.6290348 33.7006483,75.9591913 34.1401337,75.9622348 C34.9038088,75.9674696 35.6675446,76.0098348 36.4307942,76.000887 C36.6283225,75.9985739 36.8242707,75.8634435 37.0066653,75.7946609 C37.8025527,76.4000696 39.7252634,76.1671217 40.8212115,75.3522609 C41.6494935,75.7076783 41.9880875,75.6883826 42.2889384,75.268687 Z M43.3795989,74.9580696 C43.8165316,74.5156696 44.0803687,74.0280435 43.8677674,73.2598087 C43.4423217,73.510713 43.1192869,73.7011739 42.7873177,73.8969913 C42.9088128,74.2978174 42.7181524,74.8341391 43.3795989,74.9580696 Z M28.4850486,89.3016174 C28.6448947,89.5517913 28.7984806,89.8471304 28.9705429,90.1508696 C26.6988452,89.0917391 24.1328606,87.489713 20.331564,85.2689478 C15.7066045,82.1107913 13.6659846,78.5446261 12.801175,76.419487 C13.0397893,73.6112087 12.2741086,70.6670696 12.0911669,67.7843478 C12.0466167,67.0825826 11.5571718,64.2786261 12.7529173,64.9047304 C17.2823339,70.2260087 17.6445097,81.0175739 18.8753241,82.1204696 C19.6162682,82.7843739 22.3800851,84.5682174 25.2458266,86.1995826 C26.0257293,86.7394957 27.6149514,87.9399652 28.4850486,89.3016174 Z M61.5953606,66.5359739 C62.0747164,68.0614261 62.6318071,69.712087 62.8440438,71.3223304 C62.45391,73.1119565 61.8581037,75.2589478 60.9540316,77.4578 C58.6792342,82.9907826 52.8295381,85.9200087 50.2297002,87.5473565 C48.5464546,88.6010087 45.5005065,90.0638261 42.0627229,90.9643304 C43.6049028,90.2093043 45.4874392,87.4878261 46.4562399,87.0385478 C46.5117909,87.0127391 46.5323947,86.9910087 46.5251621,86.9724435 C47.4156199,86.5345478 49.474534,85.3048 50.1438817,84.4155565 C52.6868922,81.0372957 53.8779579,78.5150435 56.1064425,74.9300696 C56.8658023,73.7084174 57.2402553,72.7924522 56.8947934,70.3361826 C56.5493314,67.8798522 56.9446313,68.1283826 57.9794976,66.573713 C59.0143639,65.0190435 61.0716977,64.869487 61.5953606,66.5359739 Z"></path>
                    </g>
                </g>
            </g>
        </g>
    </g>
</svg>