<svg height="158" viewBox="0 0 118 158" width="118" xmlns="http://www.w3.org/2000/svg" xmlns:xlink="http://www.w3.org/1999/xlink"><defs><path id="a" d="m89.931044 53.7745309-40.0354396-53.7745309-40.03901099 53.7794938c-6.44835165 8.6887696-9.85659341 19.0230371-9.85659341 29.8850329 0 27.6122713 22.3832418 50.0762963 49.8956044 50.0762963s49.8956044-22.464025 49.8956044-50.0762963c0-10.8622716-3.4082418-21.196539-9.8601648-29.8899958z"/><filter id="b" height="107.5%" width="110%" x="-6%" y="-4.5%"><feOffset dx="-1" dy="-1" in="SourceAlpha" result="shadowOffsetOuter1"/><feGaussianBlur in="shadowOffsetOuter1" result="shadowBlurOuter1" stdDeviation="1.5"/><feColorMatrix in="shadowBlurOuter1" type="matrix" values="0 0 0 0 0   0 0 0 0 0   0 0 0 0 0  0 0 0 0.5 0"/></filter></defs><g fill="none" fill-rule="evenodd" transform="translate(9 12)"><g fill-rule="nonzero" transform="matrix(-1 0 0 -1 99.791208 133.740824)"><use fill="#000" filter="url(#b)" xlink:href="#a"/><use fill="#f2ba42" xlink:href="#a"/></g><path d="m24.6529831 11.354048-.0069742-.0073523c-.0945705.1056695-.1892018.2112782-.4270259.476913.9446718-.103113 1.7005672-.1528435 2.4443679-.2760435.7427066-.1230174 1.5022488.3122609 2.3600081-.1118174-1.5275932-.2191913-2.928829-.4203043-4.2172609-.6051652-.6247975.2535217-1.1773906.4777044-1.7300446.7019478.0070502.0360957.0141005.0721913.0211507.108287.522812-.0910609 1.0456239-.1822435 1.5684359-.2734261.197103-.0592261.3942059-.1184522.5912481-.1777391.0117301.0690261.0234603.138113.0351904.2071391-.214607-.0160087-.4292747-.0320174-.6449757-.0490609-.0004306-.0003833.0023498.0025813.0058802.0063176zm37.6469616-.8336005c-.8253288-.2810761-1.6509185-.56197498-2.4790573-.84103011-.3377432-.08253913-.8174636-.05806956-.9788291-.27318261-.4455024-.59384348-.8225688-.26855652-1.3664708-.03846956.8116896.50893043 1.5952391.35864348 2.365782.30045217.2079214.16355652.4223461.31956522.6221232.49255651.2832861.2453044.6069287.4666261.8192261.7653131.2394044.3367913.459299.4152521.8279781.2445739.1841572-.0852783.4102512-.0798.7074555-.1308087-.577026.6151478-1.2209077.4359478-1.8895868.3895652.5984198.5475826.8827999.5839217 1.4762359.2717217.2223257-.1169304.4641612-.1966695.7857982-.3302174-.0720219.6350522-.5851702.5890348-.817342.8153479-.0125203.3740434.6192058.0196608.4974068.4928-.0009724.0038956.1818477.0927652.2606767.0721304.1798419-.0469913.3663087-.1110261.5182536-.2148696.4830024-.3300956.9500203-.5584782 1.4764182-.0699391.0845421.0784609.2581847.0687217.3923825.0838783.3509319.0395652.4359603.2762261.4600283.6085739-.1651945.0836348-.3288087.1664174-.5882698.2977739.4936993.3885913.9471637.7454696 1.4555713 1.1456261-.2685778.1379304-.4783225.2457304-.6142221.3155478-.1466572.5261565-.273987.9829826-.4026539 1.4443739.3390194.0401131.748906.088687 1.2661264.1499218-.4287885.6429652-.8231767 1.0333826-1.529842.9753739-.2127228-.0174696-.4368719.1043304-.7742504.1937478.4213736.3626609.6922002.2607652 1.0150527.122287.5417747-.2322783 1.0882901-.1018957 1.6086102.1300782.0341572.0152174.0388371.0969652.0798622.2103652-.1315843.0854609-.2746556.1784087-.4112844.2672174.0151337.2922348.0508104.5806957.0344003.8661131-.0062601.1092-.1443476.3091565-.2008711.3018521-.5220827-.0679913-.4132294.3150609-.5253647.6180696.5673622-.1778 1.0709076-.5817304 1.5567666-1.2293217 1.0243517.6828956.5775122 1.7701478.7438007 2.7398608.658833-.178713.6613857.5075913 1.0153565.7628174-.0424838.0688435-.1353525.1590522-.1171191.2021479.0534846.1266086.1420381.2433565.2388574.342513.0204821.021.1974676-.0584348.1949149-.0759044-.0202999-.1398173-.0503849-.2840173-.1136548-.4083739-.02109-.041513-.1473866-.0293391-.225547-.0416956.2117504-.2614957.4376013-.3817131.7752228-.1781044.2048218.1235044.4554093.1708609.7223461.2654522.0715356-.5885478-.6448542-.4345478-.7457456-.8631304.1806929-.0315305.3559765-.0621479.5311994-.0927044l-.0179295-.0216695c.1907212.2302087.3441856.4774608.7262358.4445304.3846637-.0331739.6403566.2474956.6798015.5903739.0415113.3609565.24688.5825826.4210697.860087.2446312.3897478.388675.8428.578363 1.274913-.3340357.2053131-.5082861.4216435-.1687804.708887.2908225.2460347.4949149.5158695.3603525.9873043-.4292747-.2238174-.8462115-.4411826-1.3721839-.7154.2015397.7341478.8683347.9947913 1.2065032 1.6816435-.5425648-.1919826-.9539708-.3375217-1.4562399-.5152.3449757.5270696.6267423.9576609.933671 1.4266-.2291936.1112696-.3672204.1782261-.7455024.3618696.3144652.1521739.5342383.258513.8048217.3893826-.2399514.2247913-.3849676.3606521-.5299838.496513.0162277.0245304.0323947.0490609.0486224.0735913.2969611-.1254522.593983-.2509043.9448541-.3991217.1470219.1278261.3144044.2733652.4817869.4189652.0345219-.0246522.0691045-.0492435.1036872-.0738957-.290701-.5462434-.5813412-1.0925478-.8963533-1.6845043.4582658-.1460261.6539708.0391391.763128.4032609.2512561.8382347.5083469 1.6747043.823906 2.7117391-.2779376-.2223565-.3994327-.3195652-.6830835-.546487.2318072.8630087.3500811 1.5888174.6345827 2.2420696.1420381.3261391.2323541.5797826.1490883.9187652-.0994935.4052696-.147265.8099913.1551054 1.1779478.0725081.0882609.0683144.2549218.0675243.3853044-.0017626.2938174-.0221232.5876348-.0376823.8812696-.0102107.1921043.0499594.4546956-.0517221.563226-.36406.3886522-.370624.8009827-.0626621 1.4042-.2883914-.202513-.4064829-.2854782-.5246353-.3684434.3550648.6054087.225 1.1961478.0917747 1.8175043-.0891005.4156783-.016957.8660522-.016957 1.3609218-.4201581-.0680522-.480389.2393391-.489688.5417391-.0097853.3160956-.0388372.5940869-.5083469.6522782.5000203.5896435.3650324 1.0996087.1191248 1.6274087-.0879457.1888174-.0732982.424687-.1107374.6381566-.0419368.2394608-.0201175.5270087-.1473258.7082174-.5099271.7265391-.5323541 1.5761565-.531017 2.3791478.0013979.8720174-.3842383 1.4680522-.9599271 1.9999304-.2569692.2373913-.5063411.4321131-.3486831.8888783.8079822.1403652 1.2370138.8621565 1.8008509 1.3946435.1830632.1729304.2202593.5547652.2335089.8452347.0805916 1.7619305-.2288898 3.4828348-.8704619 5.103-.6264384 1.5818783-1.4440843 3.0878522-2.1807132 4.6257826-.0333063.0695131-.1081239.1855913-.1420988.1783479-.5648096-.1197305-.4248379.3590695-.5248785.6203826-.0481361.1256348-.0460089.2709304-.0639384.4076435-.1132901.8615478-.1206442.8751826-.9099676 1.5940521-.3909846-.2501739-.4145056-.9232087-1.1374594-.9722087.0463128.4842783.100709.9283218.1260534 1.3740087.0119125.2097566.0375608.4654696-.0617504.6273826-.7015599 1.1438609-1.4339343 2.2687305-2.2448946 3.5380435.0461912-.6377304.078282-1.1187217.1164506-1.5991652.0980348-1.2353478.1526742-2.4768435.3193273-3.7029391.0751216-.5527566.2895462-1.1302261.5907618-1.6000174.7990478-1.2461218.609846-2.5263913.2704011-3.8261392-.1357779-.5198869-.3401742-1.0218173-.5602512-1.6703217-1.1296799-.3148174-1.3662885-1.2866-1.3357779-2.4665565.0161669-.6264696-.0877026-1.2687044-.2250608-1.8842174-.381017-1.7065391-.291795-3.4405913-.3762764-5.1652087-.021333-.4357652-.1181523-.868913-.195158-1.3006609-.1441653-.8085304-.4166329-1.5683043-.7744327-2.3126782-.1902958-.3959566-.3584076-.7251392-.7974676-.8628261-.0900122-.0282435-.1509725-.1493131-.236487-.2394.0841774-.2849305.1650729-.5587826.2843192-.9625305-.3401134.1036-.5582455.1700087-.8651742.2635044.0678282-.1557044.0945097-.2779913.1640397-.3666174.397184-.5060696.332577-1.0179217.0375608-1.5363478-.0543355-.0954435-.1196718-.1859565-.189141-.2712348-.7646475-.9383044-1.0778363-2.0451565-1.3325567-3.2107478-.2093801-.9579652-.635312-1.8686957-.9700162-2.7986609-.0554903-.1543043-.1851297-.2964348-.1954619-.4500087-.0627229-.9274696-.0746354-1.8588956-.1535859-2.7846609-.097731-1.1455043-.2658428-2.2896695-1.083124-3.1828087-.3868517-.4228-.6542747-.8568-.7236832-1.4400521-.0291126-.2444522-.2070097-.5195218-.3991288-.6859392-.3908023-.3385565-.8021475-.6961652-1.2692261-.8930174-.6354336-.2677652-1.0303687-.7155217-1.3236832-1.2913478-.2009927-.3945565-.452735-.6656695-.9351296-.6982348-.1972245-.0133304-.3987034-.1550347-.5726499-.2754347-.2451783-.1695827-.4665316-.3736783-.8000203-.646374-.0944489.192774-.1782618.3637566-.3067464.6259218-.6572528-.8363478-1.5640599-.479287-2.2761953-.8098087-.6181726.2927826-1.3766207-.0692696-1.962034.4333304-.1215559.1043913-.3575567.0897218-.5426864.1027478-1.0394246.0729218-2.1170178-.0082782-3.1080632.2481044-.8968395.2320348-1.7659643.2389739-2.660312.2789652-1.2659441.0566087-2.4679497.4454435-3.6810778.7872261-.8345421.2351391-1.699534.4156783-2.5616086.482513-.7690842.0595913-1.5190235.1075566-2.2761953.3065392-1.0833671.2846869-2.2110413.397113-3.300547.6623826-1.6216167.3947391-3.2264586.8586869-4.9337723 1.3189217-.4678079-.5384522-1.0776539-.4515304-1.7184359-.1100522-.1902958.1014087-.4129255.1693392-.6272893.1932609-.7350487.0819304-1.4604944.1518696-2.0361224.7139391-.0987034.0963566-.3443071.0492435-.5224473.0547827-.2434157.0074869-.4872569.0018869-.7512156.0018869-.0106361-.0689652.0071718-.2691043-.0770057-.4066087-.077188-.1260609-.2543557-.2293565-.4053282-.2637478-.3430915-.0780957-.5982982-.2554696-.5041531-.6092435.0899514-.3378869.3764587-.4212783.7253241-.2797565.4222245.1712869.6559765-.1756087.9077188-.4039304.2186183-.1983131.3906807-.4480609.5947123-.6884348-.1225283-.0824174-.243598-.1638609-.4082455-.2745826.5558752-.3964435 1.0684765-.7620261 1.5810778-1.1276087-.0224878-.0479044-.0449757-.0958696-.0674028-.1437739-.2476701.1176-.5163087.2045217-.7394246.3579739-1.0424635.7170434-2.072346 1.4524087-3.1040519 2.1787652.2967788-.5170261.5112034-1.0438522.2547205-1.6432348.2878444.1739652.5471231.5169652.9258914.1609391.2375202-.2232087.3691653-.4627304.1308549-.7678695-.4445907.0874087-.8153363.2330695-1.0328606.6290869-.565235.3837826-.6018233.4906087-.405936 1.0911478.0564627.1731131.0866086.3548696.1287885.5327305-.1919976-.2549826-.3839951-.5099652-.6136142-.8148609-.675.3935826-1.2942667 1.0468957-2.2171192.9208957-.045705-.3799479-.0836912-.6961044-.1365073-1.1352174-.1952188.2274087-.3719003.3464695-.4172406.5036348-.104295.3610173-.1786265.6881304-.4495746 1.0101913-.1729133.2055565.0023703.7048695.0248582 1.1358869-.0541532.0192348-.1876823.0476609-.3019449.1109044-.3638169.2015391-.4888371.3965652-.2813412.8774956.2342991.5430783.6305713 1.0874957.4737642 1.7627218-.0240073.1032956.0818071.2747652.1764992.3604087.2609805.2359913.3476499.5108782.2776337.8465739.708124.1463913-.1172407.4291913.0529376.6565391.0827188.1104783.0351297.3187739.0472245.4924956.1804497.0871044.3490478.168487.5133914.2478609 0 .1059131.0166532.1908261-.0030997.2661826-.0610211.2329479-.2237844.4770348-.188047.6900174.0878242.5232957.2766613 1.0255305.0122164 1.5561913-.0495341.0993392-.0104538.3027652.0648501.3948609.4573541.5590869.170239.9701391-.2346637 1.3716348-.0568274.0563652-.0972448.1294087-.1589952.2134087.1181524.0667739.2240884.1267304.3719004.2103043-1.3383915.9656348-2.1633307 2.2821218-2.7447934 3.8367913-.0616896-.1060348-.1054498-.1812087-.1623987-.2791478-.0649109.0458956-.1741896.0823565-.1828809.1354348-.1397285.8491304-.4135332 1.6738522-.4151742 2.5500695-.0006078.3146957-.0706848.6787566-.2392828.9340435-.45170181.6841131-.43559565 1.3978696-.2919166 2.1465044.1435576.7479043.1487845 1.4762087-.29070093 2.1494869-.06855754.1050609-.13826986.2880957-.09317261.3766609.42240684.8289826.29872364 1.7025826.23454214 2.5695478-.01780794.2410435-.10599676.4761218-.15060778.7160087-.05470016.2941826-.20743517.6278696-.12264992.8782261.17759319.524513.05020259 1.0002696-.02747164 1.5219826-.15784035.0523478-.30802269.1235652-.46574149.1505913-.56158833.0961131-.79455024.419087-.94041734.9800609-.16944895.6517913-.51053485 1.2657217-.82621556 1.8704-.29045786.5564087-.59288898 1.1042956-1.08677066 1.5370782-.43188817.378487-.65506483.885774-.41164911 1.5498609.76835494.1832174 1.27779578 1.1007652 2.3189222.8812696.05688817-.1874783.12252836-.4038087.22433144-.7393218.23277958.4348522.15218801.9393392.65573339 1.0627827.05251216.0128434.08600081.3020956.04710292.4402086-.04892626.1740261-.18142221.3244348-.33567666.5813653.29313209-.0315913.48944489-.0527131.68533225-.0738348.13863452.8194869.05336305.9768348-.64728525 1.2284695-.04187601-.034026-.11341167-.0623913-.12119125-.1029913-.16069692-.8396347-.65287682-1.2674869-1.5113047-1.3728521-.28188817-.0345739-.53198946-.3291218-.88693274-.5647479.03537277.0017653-.04655591-.007913-.12799838-.0054173-.939688.0290347-1.30405186-.2749479-1.41539708-1.1879914-.00972447-.0796782-.01890194-.1682434.00492301-.2418956.17370341-.5371739.35591573-1.0715478.5490073-1.6472522-.44750811-.3385565-.62054295-.6959217-.19005268-1.2275565.27076581-.3343565-.04230145-.8026261-.58638573-.9574783-.36661265-.1043304-.74762966-.1578956-1.15277553-.2403739-.10988655-.8323913-.20858995-1.6530348-.87963938-2.4086695-.03184765.2572347-.09608996.4105652-.05852918.532426.23472448.7621479.41462723 1.5561914.76786872 2.2617914.25897488.5173304.37992302 1.0109826.40289708 1.5700695.02795786.6802783-.03282009 1.3971391.48318477 1.8828783-.63133157.4094718-.06628491 1.4041562.36224087 1.95314.39866333.3467819.74365573.6128206 1.03164081.9306774.11547812.1274608.18768234.4832434.10569287.5697391-.44367909.4682087-.56243922.9243043-.04971637 1.4887478-.49236223-.1238695-.58966774-.5074695-.77200162-.7956869-.24353727-.3848783-.50087115-.7566087-.25575364-1.2869044.07305454-.1579441.00792668-.3800275-.05672286-.6428293-.50629055-.2904672-1.36114561-1.0798816-1.3797034-1.9025533-.03409643-.0922782-.03908023-.2462174.0148906-.3120174.37329822-.4545739.16227715-.8896695-.03196921-1.3158174-.51412074-1.127913-1.04039708-2.2503478-1.56764586-3.3722348-.06910454-.1469391-.14544166-.3646086-.26420179-.4013739-.5533833-.1713478-.62388573-.6597043-.77090761-1.0919391-.47929498-1.4094348-.68946516-2.8434609-.2434765-4.3008609.11869935-.3878608.31282415-.7651304.53636548-1.1049652.26207455-.3983913.5729538-.7509478 1.1589141-.4562782.14629254.0735304.66843598.4579826.65609805.6303043 1.00089141.6567826 1.96002836 1.2861739 2.96760535 1.9473391.26006888-.3433043.05093193-.6432695-.21649109-.8617304-.6176256-.504487-.93288087-1.1842783-1.25068881-1.8853739-.15255268-.3365478-.41985414-.6345044-.68259725-.903487-.24754862-.2535217-.58213128-.4208521-.83484603-.6703565-.63269854-.6247652-1.05425445-1.3242783-.45650324-2.4142696-.24141005.1400609-.30407212.1764-.36655186.2127392-.20950162-.6086348-.45164101-1.2091131-.60905592-1.8310174-.04710292-.1860783.12514182-.4408174.22773501-.6488087.148906-.3019131.51181118-.5505652.1921799-.9440261-.44361831-.3480522.1654376-.6583043-.001641-1.2061913-.19546191.4912783-.32418963.8148609-.49436791 1.2426522.26724068-.028.39256483-.0411479.51788898-.0542348-.13608185.350913-.22542545.7342087-.56979336.9183391-.23247569-.5823391-.48871556-1.1204869-.6587115-1.6846261-.12471637-.4139739-.28553485-.9161478-.15449757-1.2791739.11955024-.3311913.05093193-.5555565.01683549-.8429217-.04357779-.367287-.08454214-.7590435-.00370745-1.1120261.17759319-.7752957-.0162885-1.5931391.30060778-2.3460348.09268638-.2201652.17108995-.4462956.2600081-.6681652.12787682-.3190783.25933955-.6366957.38922204-.9549217-.05925851-.0421218-.11845624-.0841827-.17771475-.1263044-.06247974.1429826-.12495948.2859652-.18737844.4289478-.14082253-.6956174.26535656-1.1512261.5470624-1.7226087-.12264992-.0412695-.23697326-.0797391-.35664506-.1200347-.02230551-.4345479.1745543-.6375479.61835494-.6578783.36399919-.0166174.72508104-.0955044 1.0875-.1467565-.00869124-.0669566-.01738249-.1339739-.02607374-.2009305-.34540113.0254435-.69317261.085887-1.03523096.0624522-.188047-.0129043-.42064424-.1236869-.53594003-.2681913-.15784036-.1977652-.07068476-.4445913.16689627-.5483739.44337521-.193687-.06636953-.3190174-.02084684-.4920696.11778769-.4476956.22967991-.8992869.30328201-1.3558695.14197731-.8803566.64096435-1.5205218 1.2940235-2.0798522.1340154-.1147391.26189222-.3038609.28310373-.4724696.12465559-.9922348.52275122-1.8884174.84274717-2.8226435.48330632-1.4108956 1.24497568-2.6665739 1.87007698-3.9964521.03269854-.0695131.11335089-.1163826.17078606-.1729305.01799028-.0183217.05549028-.0340869.11146678-.0463217.12198136.409287.17692463.7857043-.22007699 1.1161043-.10538898.0877131-.05713128.3605913-.07943679.5484957.25915721-.0503391.38897893-.1404261.45243112-.2644783.14878444-.2910174.26699757-.5978608.39548217-.8992261.13596029-.3188956.33002431-.4896347.71061588-.5765565.44920989-.1026261.85405187-.4002174 1.27809968-.6133217-.01154781-.050887-.02303485-.1017131-.03458266-.1526-.30449757-.0612957-.60905591-.1226522-.90802269-.1828522-.06746353.2413478-.11268233.4033218-.16410048.5872696-.51254052-.1384783-.52092788-.4411218-.3399919-.7689652.1942117-.351949.43566283-.6777187.65770496-1.0141996.00000622.0043175.00005666.0085969.00015566.0128343l.01067911-.0292858c.00045172-.0006873.00090337-.0013746.00135492-.002062l-.01160859.0318348c.30565235-.5397913.55508509-1.1236522.93275932-1.6070783.38229336-.4893304.79758914-1.0265043 1.57050246-.9948521-.48640603.5294434-.91300651 1.1005217-1.37716778 1.6261304-.48962722.5544609-.50506483 1.2893391-1.08652755 1.9648087.60863047-.1801739.90613858-.5127044 1.05376823-.8425565.36132496-.8073739.96320908-1.2313913 1.7826783-1.4264174.0740275-.0175913.1367504-.0827218.207739-.1277652-.5597042-.3458609-.5811588-.6709044-.0350081-.9632609.399919-.2140783.7262966-.4586522.9485616-.8757913.1205227-.2262522.3722042-.406487.6019449-.5461826 1.0298825-.6261044 2.1449757-1.1156174 3.0464952-1.9464261.1159643-.106887.2899108-.1512.4379659-.2224783.5948947-.2863304 1.2042545-.54642605 1.7806726-.86617388.4250203-.23574782.7737034-.63194782 1.2153161-.81084348 1.0103728-.40940869 2.0568476-.72958261 3.1306726-1.10046087-.0079619-.11540869-.0182942-.266-.0334279-.48549565.944611-.1813913 1.8240073-.68161739 2.8526135-.45067826-.4726702.09288696-.9453404.18571304-1.4179498.2786-.0015194.05758261-.0029781.11510435-.0044976.17268696.1589952.04376521.3162885.1162.4772893.12587826.4959482.02988695 1.023744-.19593913 1.4714344.22473043.0498379.0468087.2441451-.04705217.3649109-.09294782.1426458-.05423479.2950769-.20555652.4140802-.17974783.8758711.18979131 1.5877634-.33837391 2.3769651-.51532174.5451783-.12222609 1.0769247-.30373913 1.6197934-.43789565.1210089-.02988696.3665519-.00133913.3808347.04942609.2098663.74534782.9979741.5495913 1.5920786 1.01700869-.739607-.1792-1.314141-.31834782-2.0020867-.48506956.0970624.21261739.1233185.28158261.1593598.34500869.0251621.04425218.0636953.08089565.1348663.16836522-.5165519.05983478-1.048359.00669565-1.4713736.1966087-.6753039.3031913-1.4062196.23294782-2.0693071.45932173-.734684.25084348-1.4621961.13263479-2.1948744.13902609-.1072123.00091305-.2591572-.10086087-.3154984-.05752174-.6008509.46266957-1.1780592.30288696-1.7583063-.03049565-.0216978-.01247826-.0707456-.01844348-.0791329-.007-.4144449.5677913-.987885.04023478-1.5753039.24828696.2668152.10286956.4459279.22345217.6308144.2331913.4810575.02544348.7630065.26453913.9022488.70584348-.6579822-.0574-1.3152958-.1141913-2.0674838-.17913913.1925446.17201739.3201175.38000869.4808752.41007826.3360413.06287826.6934765.0658 1.0343193.0259913.1857374-.02209565.356098-.18126956.5336305-.27847826.5590356.36893044 1.1758103.4788 1.8314222.40228696.5377633-.06281739 1.074615-.13330435 1.6118314-.20026087.0817464-.01016522.1687804-.00505217.2446313-.03177391.9807131-.34598261.9775527-.32382609 1.9219206-.21146087.4731564.05630435.9584684.0098 1.4383103.0098.0092383-.06184348.0185373-.12368696.0278363-.18553044-.324615-.0672-.6492301-.1344-1.0849473-.22466956.3712926-.02842609.6410251-.01905218.8948339-.07815652.1944287-.04528696.4302472-.13135653.539769-.27939131.2671799-.36095652.6046192-.43692174 1.0090357-.39388695.1084279.01156521.2311386.05021739.3247974.0155826 1.0455024-.38700869 2.1594408-.17457391 3.2225689-.38013043.5228727-.10104348 1.0338938-.26338261 1.663675-.57783478-.1685373-.07292174-.3370138-.14584348-.505551-.21870435.0218193-.02793913.0435778-.05593913.065397-.08387826.0745138.00468695.1575973-.01077392.2221435.01710435.8705227.37562608 1.8322731.19563478 2.7227309.45268695.2853526.08235652.583043.12259131.875932.17792174.1882901.0356087.4072731.14109565.5623784.08241739 1.0055713-.38049565 1.9625203.11741739 2.9429295.12374783.6504457.0042 1.3198541.07261739 1.9110413-.49450435-.2853525-.06038261-.5300445-.11413043-.7755875-.1638-.9115478-.18437391-1.8190843-.36838261-2.6803687-.74991304-.4205835-.18632174-.8714344-.24621739-1.3651337-.14219131-.3412682.07188696-.7317058-.09020869-1.1496759-.15552174.4188209-.81157391 1.0785049-.09848695 1.583509-.44921739-.2073744-.13525217-.3896475-.25406956-.5719206-.37294782.0055915-.02964348.0111831-.05928696.0167747-.08893044 1.2023703.22947826 2.4058954.4536 3.6058347.69519131.1520664.03061739.2857779.15266087.4269043.2311826-.4331645-.03201739-.8648703-.08083478-1.2973055-.08844347-.3787682-.00669566-.7534643-.4276087-1.2490478.00334782.6083266.11918261 1.1103525.26673044 1.619611.29856522.2976297.01862609.6068072-.14748696.9107577-.23045217.6406605-.12867826 1.2712318-.34847826 1.9354133-.05155653.1341978.0600174.3532415-.09331304.5371556-.11723478.400466-.05204348.8099879-.14803478 1.2038898-.10816522.5015397.05076522.9913493.21815653 1.5455227.34933044-.0962723.18851304-.1991086.38980869-.3184157.62348696h.547974c-.2869327.2016-.4992909.3507913-.8448743.5936.7635534-.07633044 1.3679902-.11498261 1.9639181-.20829566.2044571-.03201739.558124-.10256521.2826175-.47806956.0949352-.05691305.1898704-.11382609.3412075-.20458261.0373784.21578261.0627836.36223478.0962723.55537391-.2558752.13263479-.5160657.26746087-.8197124.4248087.7511548.31901739 1.4388574.05636522 2.1302675-.09136522-.0956038.11382609-.1912075.22771304-.298359.35523478.1071515.04875653.1586304.09544348.1979538.08673913.8927066-.1975826 1.7834076-.40405217 2.6759927-.6021826.2780465-.06171624.5063179-.16186343.5290415-.48388336-.6636864.08173918-1.327431.16353672-1.9911161.24527466.6385068-.29311266 1.2786837-.57206849 1.9918453-.25696825.0002264-.00417118.000419-.00837874.0005777-.01262305.6598056-.15789566 1.3196718-.31579131 2.005308-.47989566.0137966-.08466956.034218-.21030434.0576175-.35371304.0878241.04169565.1603322.07426087.2312601.11005217.3830227.19326087.7704214.37854783 1.1460292.58544348.1517018.08357391.2792747.21249565.4138979.3254087.0764587.06409565.1358387.18333913.2185575.19995652.8674838.17445217 1.1893031.85673913 1.5589546 1.69357391-.3980348-.09093913-.7006483-.16258261-1.0044773-.22905217-.7703606-.16848696-1.5412074-.33472174-2.3120543-.50174783-.008205-.12545217-.0162885-.25102608-.0282009-.43661739-.1544368.14237391-.2703404.24926087-.4492099.41409565h.4994125c-.1874393.06324348-.3806524.11358261-.5604336.19405218-.1261143.05642608-.2339344.15381739-.3528768.23081739-.3767018-.02970435-.7504862-.05727826-1.1242099-.08485218.0012763.06610435.0026134.1322087.0038898.19837392.3701377-.03974783.7402755-.07949565 1.1104133-.11930435 1.126641.01795652 2.1898298.34342609 3.2629862.70371304-.2431118.07748696-.4861629.15491305-.7523096.23976522.5606159.64290435 1.2900122-.02873043 1.9791735.38469565-.2614668.08126087-.4145665.1288-.5955633.18504348.0489263.06811304.0805308.1644087.1374798.18315652.6176256.20336522 1.2392625.39449562 2.0398906.64540002-.3288695.1471826-.488047.2184-.6471637.2896174.0002431-.0000609.0155591.0169217.013675.0147913l.001641.0021913c-.0112673-.0038376-.0225347-.0076753-.0338021-.0115129-.2512123.0741797-.5024232.1483043-.7535763.2224868-.0118517-.0626348-.0237642-.1253304-.0356159-.1879652.153397-.126029.3176224-.1616231.4894909-.136596zm-45.4484237-6.41439187-.0015007.00306611c-.1338939.00992174-.2676662.01984348-.4014385.02988696.2792748-.83823479.9516005-1.15542609 1.8151945-1.2248174-.3337925.23952174-.6787682.46534783-.9967585.72434783-.1580482.12875933-.270492.31366084-.4012625.47541144.4564958.38662457.658674-.16601696.9575632-.34916796-.3230956.12100869-.646252.24201739-.9688007.36296522.000223-.00000229-.0010143-.00502861-.0022709-.00985183-.0010771-.00415202-.0023482-.00877426-.0023482-.00877426s.0007927-.00155727.0016223-.00306611zm0 0 .0015382-.00314259c-.0002483.00058129-.0004965.00116257-.0007448.00174386zm19.9362356.88602585c.0114584.16840763.0232526.34240724.0422272.62100548-.6408428.25096521-1.420077.32498261-2.2630673.30684347v.32735653c-1.1715559.6601913-2.301722.08880869-3.4461102-.04814783.2938007-.4396.621637-.5466087 1.595543-.51233913.3097852-.60133043.804457-.76373043 1.4843193-.58891304.554538.14255652 1.1280996.12100869 1.6974675-.05125218.2757496-.08345217.5897893-.03968695.8863858-.05295652-.0000608.00030435.0002583-.00728913.0005926-.01495869.0003342-.00766957.0006837-.01541522.0006837-.01541522.2786062.2898.2786062.2898.5256686-.22832174-.242225.11863718-.3832343.18775917-.5237102.25709887zm-23.3665248 6.05714462c.3952998-.2557131.7905996-.5114261 1.1858995-.7670783.0285656.049487.0570705.0989739.0856361.1485218-.3806523.2941217-.7853727.5427739-1.2917747.5996261-.0005616-.000375.0047874.0046241.0101263.0095783l-.0112203-.0103088c-.4498177.3030696-.876175.6529478-1.3569895.8939305-.3693476.1851652-.807192.2331913-1.3137155.3687478.5757496-1.1473305 1.9568071-2.0998783 4.07188-2.83457393-.3371353.38426956-.531017.67419133-.7904781.88175653-.2654781.2123739-.5952593.3440348-1.0731564.6085739.2986925.0624329.3912315.0817968.4837071.1011473zm37.1239199-5.51524881c.0026959-.00306674.009889-.01115845.0131141-.01389903.7608185-.00340869 1.5176256-.00340869 2.4195097-.00340869-.6757901-.38067827-1.4314424-.34695653-2.433671.01850434.3866927-.60716656 1.0187703-.40746213 1.5680106-.47593913.2984197-.0371913.5985413-.06044348.8978727-.09002608-.6050445-.1322087-1.1996961-.13689566-1.7806118-.22905218-.9650417-.15305594-1.9212275-.36206101-2.8811009-.54757505-2.1227561.17697341-4.245272.35592533-6.3685749.5254794-.121009.00967826-.248278-.05837391-.3860616-.24956522.5094408-.11668695 1.0188209-.23331304 1.5995543-.36631304-.091714-.08485218-.1407618-.12295652-.1802067-.16915652-.0299027-.035-.0475891-.08046957-.0889181-.15345218.7619732-.12076521 1.4779376-.24603478 2.2717585-.11333913.6874595.11486087 1.4764789.00371305 2.1442463-.22813913 1.2904376-.44806087 2.5268436-.58471304 3.8191046-.05472174.2324757.09532174.5579416-.03664348 1.0213736-.08095652-.1927877.2372087-.2848663.45487826-.3882496.46041739-.5636548.03013044-1.0436184.34214783-1.5632091.44404348-.5975609.11717413-1.2403682.00294594-1.8641962-.01422705-.1116952.13815749-.2283889.2749314-.3031458.3625227.3954214.11388696.7774109.30653913 1.1621353.31207826.408124.00584348.8030592-.084 1.2990681.28328696-.4072123 0-.6520259 0-.9830835 0 .5354538.37361739.5354538.37361739 1.0144449.37288696zm-2.1894292-1.34201671c.0016852-.00014048.0033703-.00028097.0050555-.00042145l-.0099358.00039487c.0015019-.00000886.0031864-.00000483.0048803.00002658zm-.0097884.00016848.0049081-.00019506zm-20.0725143 5.79516659c.1791734-.06373043.3584076-.12752174.537581-.19125217-.0141613-.02428696-.0283225-.04863478-.0425446-.07292174-.1622771.08880869-.3244935.17761739-.4916329.26405217-.2566653-.03603478-.5133306-.07213043-.7700567-.10816521-.0019449.03609565-.0039506.0721913-.0058954.10834782.2575162-.00006087.5150324-.00006087.7725486-.00006087zm-14.3094409 4.82774785c.3686791-.0531392.7957658.1757304 1.0808145-.2744-.3609603.0921565-.7219814.1842522-1.0829417.2764087.1311588-.1054261.2622569-.2107913.3934157-.3162174-.0257091-.0351826-.0514181-.0704261-.0770664-.1056087-.1658631.0409043-.3317261.0818696-.5431726.1340956.1053282.1322696.1666531.2092087.2289505.2857218zm31.6490276-6.81051307c-.2776337-.04473913-.5552674-.08947826-.8328404-.13427826-.0026742.04084348-.0053484.08168696-.0079619.12253044h.860312c.422893.38487826.422893.38487826.987581.26326087-.3994327-.10232174-.6998581-.17926087-1.0070907-.25151305zm3.4325567 5.00487827c-.2361831-.1644087-.4526134-.4058783-.9565843-.1073739.4310373.0388956.7046597.0635478.978282.0882609.2882699.8939304 1.0974068.5856869 1.7275527.7058434-.2108387-.1910695-.4503647-.3370956-.7095826-.4241391-.3371962-.1131565-.690073-.1795043-1.0396678-.2625913zm7.7510738-2.8087652c.123987.0193565.2479132.038713.5344205.0834522-.283833-.202574-.4339546-.4329044-.4865275-.0433392-.3761548-.0779739-.7492099-.1832782-1.1292545-.2259478-.3512966-.03944348-.7100689-.0134522-1.0655591-.0132696-.371171.0001826-.742342.0039566-1.1134522.006087-.0214546.6232435-.709218.0829652-.8541127.4906087 1.2110009.2625304 1.5247367.2203478 1.6008307-.203.7197933-.1912522 1.4169773-.0525913 2.1095421.1298956.2169773.0572783.3863655.0622087.4041127-.2244869zm-17.6131483.0528348c-.5074352.0451043-1.0148704.0901478-1.5222448.1352521.5426864.1734783 1.0769247.2788435 1.5300851-.1568608.1033225.1024434.2197731.3032521.3077796.2915043.5921596-.0794348 1.1911264-.1606956 1.7610413-.3314348.3025527-.0906348.4982577-.1047565.6904984.1481566.0154984.0203913.1014384-.0128435.1845827-.0258696.0654578-.1552783.1372366-.32553045.1928484-.45737393.9080227-.31883478 1.861872.02775653 2.7294773-.29570434-.002735-.06817392-.00547-.13628696-.008205-.20446087-.7047204 0-1.4095016 0-2.1186588.0042-.0572529-.10834783-.1145057-.21663479-.2176459-.41178261h2.14297c-1.3966167-.4654087-3.0398095-.32966957-3.7045381.27853913.3804093-.08448696.6995543-.27306087 1.0256888.09294782.1180308.13245218.5102918.01984348.7774109.01911305-.1190032.05861739-.2322326.13987826-.3579822.17226087-.9025526.23221739-1.8059562.46175652-2.7132496.67461738-.2234805.052287-.4622163.0399304-.6998581.0668957zm-12.8093801 3.6302608c-.0657618.0712783-.1315843.1426174-.2361224.2558957.5289506.1728695.7603931-.1090783 1.1382496-.5144087-.2935575-.0391391-.4650121-.1141913-.5841977-.0642174-.1371151.0574609-.2280389.2254609-.3390802.3454348.0423014-.354687-.0791937-.6082696-.4626419-.6248261-.352816-.0152174-.7284238-.0518-1.0577188.0449217-.9152552.2688-1.8159238.5901913-2.7127025.9173044-.2551459.0930695-.4772894.2767739-.7146273.4189652.0246151.0554522.0492909.1109043.073906.1663565.6634522-.2285652 1.3194287-.4833652 1.9929093-.6769913.4941248-.1420696 1.0077593-.2421391 1.5192666-.2901652.4563817-.042913.9217585.0112 1.3827593.0217304zm-8.4139789-1.1501913c-.3013979-.0058435-.6029174-.0098-.9042545-.0180782-.359137-.0098609-.6327593.0272695-.9116694.3743478-.3684967.4585304-.9557334.4153739-1.6755875.2129826.5184968-.379887.9106362-.6993304 1.3345016-.9686783.4241086-.2695304.8799433-.4889652 1.3991086-.7725565-.5438411-.2649043-.8956847-.0522869-1.2162885.1926522-.7340761.560913-1.4532009 1.1414261-2.1738452 1.7196869-.074453.0597131-.1181523.157774-.2397083.3260783.3704417.0999478.654761.1766435.9390195.2533391.0097245-.033113.0194489-.0661652.0291126-.0992782-.1021069-.0930087-.2042139-.1860174-.2729538-.2486522.4995948 0 .9979741-.051313 1.4812804.0123565.6748177.0889305 1.2014587-.3162174 1.8014587-.4646174.1586305-.0392608.2461507-.3669826.3663695-.5622521.6720827.0719478 1.4144247-.2642957 1.6844003-.8918-.5972042.2460347-1.0882901.4401478-1.5688006.6576956-.0545786.0248348-.049534.1813304-.0721434.2767739zm-14.06140604 42.1960609c-.01859805.0032261-.03719611.0063913-.05585494.0096174 0 .1371391-.00984603.2751304.001641.4112956.05998785.7110174.44556321 1.0193218 1.35382902.7898435.1535859-.0388348.30905591-.2113391.43693273-.1860782.49904782.098426.68794571-.2120087.87526338-.5680957.11450567-.2175478.23758103-.4341217.38478525-.6300609.32333873-.4305913.28596029-.8235043.02826175-1.2922608-.49807537-.9062261-1.24613047-1.5029305-2.13482577-1.9732087-.52232577-.2764087-.66333063-.2291131-.84997974.3711217-.09767018.3141478-.20032415.6268957-.29270665.9425652-.14367909.4910348-.15388979.9597913.12240681 1.4303739.11231767.1910696.09086305.4609044.13024716.694887zm34.53877634-43.3220261c-.0088128-.0402956-.0176256-.0805913-.0264384-.1209478.1492099-.1023826.2984805-.2047652.420158-.2882783-.7363857-.0367043-1.4414708-.0706087-2.1463128-.1076174-.3046799-.0160087-.6204822-.0532-.5426864.4215218.3404781.0770608.6809563.1541826 1.1877837.2689217-.7199757.1956957-1.2724474.3458609-1.9193072.5216522.1663493.0581913.2165519.0897217.2673623.0906956.1095218.0021305.2195907-.0197826.3291126-.0171652 1.1595219.0273305 2.2176053-.7514348 3.4760737-.2753739.5998785.2269217 1.394915-.0297652 2.0959887-.1136435.8676053-.1037826 1.7316856-.243113 2.5927877-.3929739.3273501-.0569739.6422407-.1857739.9627836-.2818261-.0153768-.0619043-.0306929-.1238087-.0460697-.185713-.1439222.0143043-.2882091.0434609-.4317666.0402348-.5365478-.0119913-1.1391005.1155913-1.5947528-.0860696-.8201378-.3629652-1.2844206-.5341913-2.1873987-.3353304.3662479.1184521.7095218.2295391 1.052735.3405652-.5158226.1100522-1.0148096.0589826-1.4988452.1224087-.6696516.0878348-1.3279984.2618608-1.9912075.3989391zm8.4471637 2.8966c-.0004255-.041513-.0007901-.0830261-.0012156-.1245391-.926256-.0224609-1.8524513-.0620261-2.7787074-.0626348-.9567059-.0006696-1.9186994.1330609-2.8544368-.1957565-.1148096-.0403565-.2787885-.0344522-.3877634.0175913-.7302471.3489652-1.4958063.2564435-2.2589951.2094522-.1641005-.0101044-.4070908-.1036609-.4781402-.0291566-.3534846.3707566-.7679295.1260609-1.1489465.1743913-.1152958.0146087-.2259117.0665305-.5000811.1512.3001824.1173566.4496961.2324.5887561.2208957.859218-.0710957 1.7290114.4316261 2.5811791-.0465044.062966-.0353043.1616694-.0079739.2437804-.0076695.6526945.0021913 1.3053282.0051739 1.9580227.0072435.4373582.0013391.9128241.1123652 1.3035656-.0224609.6759117-.2331913 1.3473258-.1594783 2.023906-.1899131.5700365-.0256869 1.1394044-.0675043 1.7090762-.1021391zm-1.6534643-4.2890522c.4710899.3442174 5.1516004 1.4393826 5.7156807 1.3942174-.443436-.224-.8501013-.4498261-1.2734806-.6377913-.4444084-.1972782-.9093598-.3477478-1.3569287-.5384522-.3747569-.1597217-.7374189-.3479913-1.1054902-.52359995-.0023704.15704345.0502633.21401735.1037479.27032175.0590762.0621478.1188817.1235652.2480956.2576609-.7921191-.0756-1.4615883-.1393913-2.3316247-.2223566zm-22.0773501.4240174c-.0136143-.0504-.0272893-.1008-.0409036-.1512608-.7313412-.0900261-1.4622569-.1836435-2.1944489-.2660609-.1002229-.0112609-.2777553.0034087-.2992099.0556956-.208043.505887-.6467383.2684957-.9801662.3008783-.4601499.0446174-.927897.0112-1.4983589.0112.1523095.0755391.212662.1112087.2770259.1365304.6245543.2460957 1.2289911.7346348 1.9244732.1609392.0352513-.0290348.1067869-.0166174.1616086-.0188087.5756281-.0228261 1.1522286-.0306174 1.7264587-.0723739.3099676-.0224609.6158023-.1025653.9235211-.1567392zm3.7512763-.71619128c-.0068071-.0567913-.0136143-.11358261-.0204214-.17037391-.5529578-.0182-1.1061588-.03086087-1.6588128-.05618261-.5363655-.0245913-1.0912074.01326957-1.6024716-.11650435-.4532213-.11498261-.8272488-.13793043-1.2619935.1490087.1138371.12825217.1914505.29698265.2850486.30641735.3162277.0318957.6524514-.19545213.9525121.080774.3368315-.34178266.7182739-.1108435 1.0881686-.0956261.6294773.0259304 1.2602917.0257478 1.8904376.0211826.1094003-.0007305.2183144-.07718263.3275324-.11869568zm43.5347042 48.86687828c.068983-1.1019826-.0310575-1.9980435-.3210899-2.5640696-.1924838.2454261-.3697123.4714348-.4930308.6286.302735.7196609.5638979 1.3405305.8141207 1.9354696zm-30.5841369-41.9032174c.0026134-.0847913.0052269-.1696435.0079011-.2544348-1.1823744-.0741391-2.3654781-.0172869-3.6701985.0531391.3836304.4145218.7235008.3490261 1.0820299.3078174.5381281-.0618434 1.0816654-.0802261 1.6234401-.1039652.3183549-.0139391.6378039-.0025565.9568274-.0025565zm30.5812804 8.0465304c.3630267-.315.3630267-.315.0475891-.9107913.0976094-.2061043.1968598-.4158.3195097-.6748608-.2936791-.035487-.5232374-.0631827-.8569692-.1034783.3535454.5372348-.1410048 1.2048522.4898704 1.6891304zm-57.1354133-.3613217c-.1534036-.892287.354457-1.3494174.9184157-1.7764783-.041329.7066348-.1966167 1.3523392-.9184157 1.7764783zm2.2323136-.3849391c.6152552-.3255913.9531199-.7324435.9323946-1.5110261-.4766207.4056348-.8756888.7422434-1.2691045 1.0854869-.0324554.0283044-.0260737.1012261-.0500203.2079913.1231362.0692087.2590357.1456609.3867302.2175479zm39.3832658-13.5241218c-.0044976.0152174-.0089344.0304957-.0133712.0457131.8922205.1546087 1.7843801.3092782 2.6766005.4638869-.013675-.2596695-.1142018-.4889043-.2231766-.4929826-.812419-.0306174-1.6265397-.0166174-2.4400527-.0166174zm12.7577188 45.0572957c-.2209279.7367043.3922609.5835565.6553687.742913.0963331.0583131.3115478-.0804087.4725486-.1292869-.089769-.1721392-.1396069-.4347913-.2782415-.4961479-.2349675-.1039652-.5259116-.0807739-.8496758-.1174782zm-47.429295-43.4892348c.4767423-.4746609 1.4576986-.7091913 2.3009319-.5729044-.716876.4010696-1.544611.3372783-2.3009319.5729044zm19.5003647-3.01578262c-.0088128-.05624348-.0175649-.11248696-.0263777-.16873044-.430004.02574783-.8597042.0594087-1.2900121.07505218-.3941451.01430435-.809684-.11303479-1.1728323.07553913.0086913.06573913.0174433.13153913.0261346.19727826.8210494-.05977391 1.642038-.11942609 2.4630875-.17913913zm23.1235818 4.35241742c.1151135.2042174.2105956.3736174.2835292.5029652.4005875-.1074348.7881686-.2114 1.1727107-.3145739-.4233185-.4888435-.9346434-.3193826-1.4562399-.1883913zm-14.8275729-6.03253916c-.2717383.05685217-.4922407.13184348-.7155389.1414-.2099879.00894783-.4229538-.05113044-.6345827-.08083478-.0117909.08162608-.0236426.16325217-.0354335.24487826.4730956.07760869.9461912.15515652 1.4804295.24280869-.0415114-.23994782-.0669773-.3871913-.0948744-.54825217zm-27.9802269 18.04770436c.0406604.0481478.0813209.0962348.1219813.1443826.4432537-.2737913.8864466-.5475217 1.3297002-.821313-.0323946-.0516174-.0647893-.1032957-.0971839-.1549131-.54609.1202783-.9634522.4542087-1.3544976.8318435zm39.2250608-13.3719478c.4730956.0514347.946252.1028695 1.4193476.1542434-.9218193.2290522-.9218193.2290522-1.4193476-.1542434zm-11.4986427-.2772c-.4120745-.0866783-.8241491-.1733566-1.2362236-.2600957-.0147691.0724957-.0295381.1449913-.0443072.217487.4047812.1244782.7864668.3631478 1.2805308.0426087zm5.8848866 3.2881739c.4252026.0854.7498784.283713.8958063.8056087-.518983-.098487-.6498987-.5236609-.8958063-.8056087zm18.634218 9.9001913c.0547001-.0601392.1094003-.1202783.1641005-.1804174-.3496556-.1757304-.4405187-.6604957-.9678282-.6335913.2679092.2712956.5358184.5426522.8037277.8140087zm-22.0892018-16.65397393c.0168963-.0868.0337925-.1736.050628-.2604-.3901337-.0468087-.7802066-.0936174-1.1703403-.14042609-.0099068.06987826-.0198744.13969565-.0297812.20957391.383205.06373044.7663492.12746087 1.1494935.19125218zm17.1274716 14.12806953c.0773096.0188696.1546799.0378.2319895.0566696.1433144-.3257739.3106361-.6474696.0889789-1.1344261-.1259319.4231044-.2234197.7504-.3209684 1.0777565zm-4.1274919-7.0590434c-.0026134.0669565-.0052269.133913-.0079011.2008695.3430916.0788261.6754254.2437218 1.0345016.1939913.009299-.059713.0185373-.1194261.0278363-.1792-.3514789-.0718869-.7029578-.1437739-1.0544368-.2156608zm-44.409846 7.627626c.045705.052774.0914101.1055479.1370543.1583218.2582455-.1874174.5164303-.3747739.7746759-.5621913-.0302675-.0426087-.0605957-.0851565-.0908631-.1277652-.2736224.1771913-.5472447.3543826-.8208671.5316347zm23.9113857-15.40389561c-.0035859.05441739-.0072325.10889565-.0108184.16331304.7069084.11729565.7069084.11729565 1.0737034-.16331304-.3560373 0-.7094611 0-1.062885 0zm3.4571111 4.78489561c.0062601-.0422434.012581-.084426.0188411-.1266695-.3516612-.0591652-.7033833-.1183913-1.0550445-.1775565-.0092383.0703652-.0185373.1407304-.0277756.2110956.3546394.0310435.7092788.062087 1.063979.0931304zm-28.1445705.7039566c-.0002432.0497304-.0004255.0994-.0006686.1491304h1.1762966c.0002431-.0497304.0004862-.0994.0007293-.1491304-.3921393 0-.7842787 0-1.1763573 0zm-1.2909239 1.8156782c.3714749-.0893565.6409036-.1541217.9799231-.2356869-.2144855.569313-.5174636.5038782-.9799231.2356869zm41.4242504-8.27345215c-.358286.03907826-.6141004.06695652-.9295988.10140869.5682131-.5509913.5799433-.55263478.9295988-.10140869zm-21.7346231 6.73053045c-.0134927.0734087-.0269854.1468782-.0405389.2202869.2900932.0320783.5801864.0641566.8702795.0962348.0075973-.0589826.0151945-.1179652.0227918-.1768869-.2841978-.0465653-.5683955-.0930696-.8525324-.1396348zm11.7379862 1.1174435c-.0023096-.0669566-.0045584-.1339131-.0068679-.2008696-.1506078.0155217-.3011548.0310435-.4517626.0465043.0033428.0427305.0066248.0854609.0099676.1281913.1495746.0087653.2991491.0174696.4486629.026174zm-33.1537682 9.8576434c-.057496-.0245913-.1150527-.0492434-.1725487-.0738347-.0855146.2242434-.1710291.4484869-.2565437.6726695.0549432.0206348.1098257.0412696.164769.0619044.0881281-.220287.1762561-.4405131.2643234-.6607392zm23.4574351-7.274826c.000547-.0460783.0010333-.0922174.0015803-.1382957-.2456646 0-.4913291 0-.7369936 0 .0004255.0320174.0009117.0640348.0013372.0960522.244692.0140608.4893841.0281217.7340761.0422435zm34.9450162 13.626626c.0968801-.0309217.1796597-.0524087.1786265-.057826-.0361022-.1890609-.0801054-.3766-.1229539-.5643218-.0597447.0137565-.1194286.0275739-.1791734.0413304.0407213.1916783.0814425.3832957.1235008.5808174zm-3.2001418-3.8489043c.0333063.0062087.0665519.0124174.0998582.0186869.0504457-.1624608.1093395-.3233391.1420989-.4893304.0047406-.0239826-.1155997-.0728-.2419571-.1482782zm-30.2085899-13.4132783c.0153768.0627566.0307536.1255739.0461304.1883305.2394044-.0393826.4788088-.0788261.7182132-.1182087-.0073542-.0401739-.0147083-.0803479-.0220624-.1205218-.2474271.0168-.4948542.0336-.7422812.0504zm24.4298217 1.8403913c-.0175648.0500957-.0350689.1002522-.0526337.1503479.1818476.0581913.3636345.1163217.5454214.174513.0133711-.040113.026803-.0802261.0401742-.1203391-.1775932-.0681131-.3552472-.1363479-.5329619-.2045218zm-26.4119125-2.1460782c-.0027958-.0504609-.0056523-.1009826-.0084481-.1514435-.1368112.0075478-.2736832.0151565-.4104944.0227043.0027958.0504609.0056524.1009827.0084482.1514435.1368112-.0075478.2736831-.0151565.4104943-.0227043zm-4.8713533-4.28783481c.0127026-.04656522.0254659-.09313043.0381685-.13969565-.1627026-.04193913-.3254051-.08387826-.4881685-.12581739-.0089952.03968695-.0180511.07937391-.0270462.11912174.1589951.04875652.3179903.09757391.4770462.1463913zm7.3214951 6.53288691c.0096637-.0536869.0193274-.1073739.0290519-.1610608-.1290316-.0289739-.2580024-.0579478-.3870341-.0869218-.0116085.0449826-.0231564.0899653-.0347649.1350087.1309157.0376174.2618314.0752957.3927471.1129739zm27.5693072 6.5325218c.0480145.0225217.0960899.0449826.1441045.0675043.048987-.1362261.0980348-.2724521.1470219-.4086782-.0431524-.0176522-.0863047-.0353044-.1293963-.0529565-.0539101.1313565-.1078201.2627739-.1617301.3941304zm-10.8764587-14.50935653c-.0203606-.0614174-.0407213-.12289566-.0610211-.18437392-.1541937.07511305-.3083266.15022609-.4625202.22533913.0210899.04845218.0421799.09684348.0632698.14529565.1534643-.06208695.3068679-.12417391.4602715-.18626086zm-36.0112439 2.11765217c-.0146475-.06543478-.0293558-.13086957-.0440033-.19630435-.108671.03859131-.2174027.07718261-.3260737.11583478.0100891.03944348.0201783.07882609.0302066.11826957.1132901-.01266087.2265802-.02526087.3398704-.0378zm6.9035859-.21365217c-.0013372.0253826-.0026135.05076521-.0039506.07614782.1926661.0126.3853322.02513913.5779984.03773913.0015802-.03798261.0032212-.07590435.0048014-.11382609-.1929092-.00006086-.3858792-.00006086-.5788492-.00006086zm29.6879051.74413043c.0819895.1382348.1098866.2157217.1299433.213713.0787683-.0078521.1550446-.0406608.2322326-.0642782-.0931726-.0384696-.1863452-.0768783-.3621759-.1494348zm.7492707 1.2990174c.0134319-.0373131.0268639-.0746261.0402958-.1119391-.1205227-.0426087-.2410454-.0851566-.3615681-.1277653-.0127633.0355479-.0255267.0710957-.0382901.1065827.1197934.0444347.2397083.0888086.3595624.1331217zm-12.4512763 2.3659304c.0099676-.0333056.0199351-.0666943.0299027-.1-.1233792 0-.2467585 0-.3701377 0-.0013372.0214286-.0026135.0427741-.0039506.0642027.1147488.0118771.2294368.0238372.3441856.0357973zm19.8145259 4.5117218c-.0434562-.0665913-.0734198-.1399392-.0929295-.1372609-.065154.0090087-.1265397.0452261-.1893841.0710348.0261953.0371304.0500202.1030522.0790721.1054261.0623582.0051739.1274514-.0224.2032415-.0392zm-5.2758914 29.1134869c.387581.179687.2511345.4494609.0850284.678087-.1862237.2562608-.4198542.4780087-.6920179.7805913.2956848.0664087.5163696.1159565.7918153.1778609-.1193679.2359304-.2256686.4461739-.3880673.7672.1258104.0766347.2836507.1727478.4518841.2751913-.1022285.0684782-.1425851.1174173-.1878646.1225913-.9800446.1118782-1.9611832.1765217-2.912419.5026-.9121556.3127478-1.8305713.0483304-2.8360819-.099887.1903566-.3512174.3396273-.6265913.4988655-.9203478-.5246353-.5699218-1.1451175-.4935913-1.770158-.3624783-.1591167.0333565-.3026135.137687-.4612439.1784696-.4655592.1196695-.6511143.0207565-1.004842-.5379652.5332658-.2761044.7730956-.7075479.6003647-1.361287-.3548825.0771217-.398278.3866435-.5155795.599687-.300547.5461217-.7404578.7880782-1.356564.7407217-.6796799-.052287-1.3624595-.0739565-2.0385535-.1544261-.1488452-.017713-.3297204-.2005043-.4018638-.3520695-.2791532-.5864174-.5203201-1.1909131-.8088939-1.8664435-.5812803.241713-1.0934562.6592782-1.3603322 1.4745043.418517.2402522.8352107.4794087 1.4417139.8275826-1.3471434.070487-2.6225689-.1841913-3.4602714.9087218-.7290316-.1935652-.7688412-.1810261-1.323197.4583478.3904376.0487565.7236224.0903304 1.126641.1406087-.3595016.7299478.1040519 1.1228.7188817 1.4453478-.0359805.0421826-.0719611.0843044-.1079416.126487-.1961305-.0401131-.3909239-.0891131-.5886953-.1184522-.3711102-.0550261-.5224474.091913-.4537075.4602348.0514789.2757391.1395462.5446609.211325.8166261-.0692261.0296434-.1383914.0592869-.2076175.0889304-.1507294-.2425043-.3105754-.4798956-.4496961-.7289739-.1541937-.2761044-.3383509-.5891565-.6788898-.4632783-.2104133.0777305-.3877026.3585826-.4926054.5882435-.309299.6772957-.2036669 1.3491131.1630065 1.9750348.1720016.2935739.2303485.5783826.2543558.9231478.0288087.4136696.1827593.8629478.4149311 1.2072261.3117301.4621217.3831442.9149913.3839343 1.4080348-.066491.0323826-.1330429.0647652-.199534.0971478-.1526134-.2003217-.370624-.3784869-.4468395-.6046174-.368983-1.0952261-.9170786-2.0452782-1.8539101-2.7677391-.2865073-.2209565-.494064-.5901304-.643517-.9327044-.2067058-.4738695-.3872772-.939826-.7220421-1.3567826-.2095017-.2608869-.0976094-.637.1381483-.916513.2923419-.3465913.5527147-.6987217.1961304-1.1558522-.0237642-1.3426-.2047001-2.6889739.1235616-4.0228087.0650324-.2642956.0470421-.5479478.0937196-.8181478.0502634-.2907739.1222853-.578687.2014789-.8631913.1002229-.3601652.2171597-.7156435.3756078-1.2318174.0313007-.0183826.2138169-.1255739.3724474-.2187652.0757901-.2630174.0790113-.5789305.2382496-.7318348.1319489-.1266696.4790518-.1390261.6742098-.0605652.2287075.091913.3960292.336913.5995138.5242695.7041127-1.136313 1.6277553-1.6387913 2.9170381-1.4436434.3703809.0560608.7710292-.0160696 1.147184-.0862522.7221029-.1347652 1.4358792-.3139044 2.1549432-.4660783.1873177-.0396261.3811994-.0479043.5721029-.0705478.7072124-.0837565 1.4124798-.1995913 2.1221232-.2440869 1.256949-.0788261 2.5215559-.2144435 3.7594814.1664782.1568679.0482696.3785859.0757218.447265.1881478.3290518.5386348.9424838.6252522 1.4018436.9496261.3134927.2213826.6176864.4597479.9035251.7157652.5783023.518 1.1340559 1.0613827 1.7169165 1.5740261.1133509.0997044.3085697.1041479.4640397.1583218.2511346.0875304.5005673.1798087.7916329.2848087-.058286.2815217-.0754862.4985217-.1487844.6944608-.2441451.6522174.0937196 1.3048609-.0218193 1.9540957-.6317869-.0672609-1.2396272.0155826-1.7840154.3538348-.1647083.1023217-.3858792.2994782-.3822326.4483043.0072326.2961305.2986021.2404348.5175851.2319739.7523096-.0292782 1.3238655-.3351478 1.6283023-1.0557826zm-11.5132901-2.3297217c.2050648.0580087.3247366.1160782.4472042.122713 1.368051.0738348 2.7379862.119487 4.1041532.2174261.5647487.0404783 1.1262155.1683044 1.6809967.2930261.5616491.1262435 1.1127836.2893739 1.7268234-.1186348-.2015398-.2052522-.4080025-.566513-.5606767-.5449652-.6523906.0920348-1.1609198-.1759739-1.6965559-.4587739-.3725689-.1967304-.784218-.3192-1.2871556-.5178174-.5351499.5684609-1.3007091.4984-2.0736832.4014348-.2442666-.0306783-.4919975-.057887-.7372974-.0518609-.577269.0141826-1.11485.1436522-1.6038087.6574522zm7.9632496 1.7930348c.3353727-.073287.6707455-.1465739 1.0061183-.2199218-.0130673-.0556348-.0261953-.1112695-.0392626-.1669043-.3644246-.0457131-.7443476-.1553392-.9668557.3868261zm-7.017423-.4357044c-.3196921.0986087-.5029376.1550957-.801479.2470696.2788493-.4441044.2788493-.4441044.801479-.2470696zm-4.24765 1.7885305c.0088736-.0517392.017808-.1034174.0266816-.1551566-.0996759-.0077304-.2019044-.0328695-.2981767-.0183217-.0983387.0148522-.190782.0687217-.4611224.1734783zm-18.3655794-.2267392c.3170179-.0780348.5920989-.1068261.8302877-.2162087.2050041-.0941043.4859198-.2582695.5177067-.4312.0343395-.1868695-.145624-.4518956-.2986629-.6231826-.1383307-.1547913-.3664911-.229113-.6300851-.3826261-.1562602.3739218-.3274109.7096783-.4374798 1.064487-.16094.5187304-.5080429.7530174-1.0242301.8084696-.2722853.0292173-.5463331.1540608-.8099879.1300782-.6804092-.0618435-1.3616693-.1542435-2.028282-.3001478-.1603322-.0350609-.2771475-.3178-.3921393-.5005304-.1546799-.2458522-.2880876-.5050957-.5136953-.906287-.2721637.3283913-.6385333.6261652-.5888169.7374348.150547.3367913.4623379.6012695.7065438.8883304-.4936994 0-1.0784441-.0215478-1.6610616.0049913-.9035252.0411478-1.7859603.1744522-2.6006888.6250696-.2278566.126-.5363047.2023304-.7898704.1681826-1.0255065-.1381739-2.0440843-.3283304-3.0564627-.6139304.4230754-.0234348.8462115-.0468696 1.3309157-.0737131-.019145-.1888174-.0341572-.3367913-.0500202-.4929217.0221231-.0110783.0650931-.0518.106179-.0500348.2742302.0118696.5481564.0482087.8220219.0470522.360231-.0015218.5365478-.2178522.7597853-.5094174.6252228-.8163218 1.2863655-1.6523652 2.5019246-1.5728087.2087723.0136956.4322528-.0370696.6338533-.1037218.7814222-.2583913 1.5623582-.493226 2.4020665-.4472695.2727715.014913.5495543-.0267218.8234198-.0532609.5964141-.0577652 1.1926458-.1183913 1.7877228-.188087.1035656-.012113.2012966-.0741391.2961102-.1109652-.065154-.5529391-.3061993-.8848-.8440235-.9041565-.7541329-.0270869-1.4497974-.2731217-2.1734198-.4008261-.5285859-.093313-1.0868922-.0924-1.6461709.1676957-.6024919.2801826-1.2973663.3563913-1.9413696.5557391-.1220421.0378-.1947933.2352609-.3004862.3721565-.565782.1006783-1.1814627.2101826-1.7971434.3197479.3137358.1297739.6635129.1716521.6994935.6974434-.2263979-.0150348-.4334076-.0017043-.62656-.0472956-.3696515-.0872261-.6819894-.042487-1.0134724.1762174-.6263169.4133652-.8921597.3303391-1.454295-.3754435.1113452-.1054261.2172812-.2251565.3427877-.3185304.1053282-.0783392.2335089-.1259392.3590154-.1910087-.1597245-.7822957.3693476-1.0967479.8919165-1.4084609.1360211-.0811391.3599878-.0831478.4312804-.1939913.743983-1.1568261 2.1218193-1.2881826 3.1599676-1.9649304.2224473-.1450522.5873582-.070974.9367099-.1023218.1785656-.3484174.4196718-.6822869.9274108-.5386348.9819287-.5170261 2.0020867-.1713478 2.998359-.0927652.4916937.0387739.9665519.2949739 1.4481564.4554261.15547.0518.3062602.1538783.4624595.161.7780186.035487 1.5047407.2014783 2.1941451.5967652.1929092.1106.5268841-.0416348.7965559-.0453478.4045381-.0056.8108387-.0023131 1.2133103.0328087.1065438.009313.2820706.1427391.2886346.2296.0313006.4149478.3762155.4958435.6382901.5357739.5609805.0855217 1.1363047.0762696 1.8371961.1126696.033671.1401826.1087925.4165304.165316.696713.0838736.4160435.16015.8337913.2294976 1.2525131.1034441.6250086.1863452 1.2379043-.0734805 1.8654695-.092261.2229044.0285048.5374174.0619935.8088957.1003444.8145565-.044611 1.5631304-.5543558 2.2802956-.1594206-.4856782-.292889-.9036087-.4337723-1.3191043-.2417747-.7130261-.3228525-.749487-1.0307334-.4991913-.0734805.0259913-.1561993.0257478-.2346029.0376174.0171394.2436.1152958.518.0230349.689713-.0715357.1331826-.3776135.1555217-.5854133.1967304-.5052472.1001913-1.0139587.1826087-1.5731159.2814.0377431.2973479.0638776.5029653.0900729.709374-1.0024108.6533739-4.8293557 1.428-5.9143638 1.1643739.2665113-.4842174.7253241-.5537305 1.1228728-.4549392 1.3882901.3450696 2.5851904-.3541391 3.8546596-.6420521.1575365-.0357305.3644854-.2815826.3747569-.4413044.0160454-.2492609-.1958266-.2668522-.4586305-.2896174-.6205429-.0533826-1.2677674-.1710435-1.5295381-1.064zm-2.4681321-1.935713c-.3022488-.3441565-.4969205-.3344783-.6681321-.0222783-.0164708.0300087.0268031.092887.0663696.2138957.1761953-.0561218.3526945-.1123044.6017625-.1916174zm6.3130673-45.35421741h-.9992504l-.0154376-.18589565c1.7383711.16927826 3.3688614-.441 5.0732577-.54953044-1.0507293.29570435-2.101094.59256522-3.1522488.88662609-.6056523.1694-1.2080835.35401739-1.8202391.49578261-.6672812.15448695-1.3417342.33149565-2.0217787.02361739-.088432-.04005218-.2105349-.00547826-.4939425-.00547826.2916127.21596521.4542545.33636521.6813817.50460869-.2152148.05338261-.3650324.10938261-.5188007.12429565-.2432333.0236174-.4914505-.02112174-.626256.2826174-.0407213.0917913-.2347853.17055652-.3533631.16373913-1.015782-.05825218-1.8937804.44641739-2.8380267.67553043-.0781605.01893044-.1530389.08296522-.2276135.07998261-.4321313-.01746957-.9393233-.20239131-1.2761548-.03609565-.4121353.20342608-.7986223.29631304-1.3528565.36363478.1334684-.20233044.1979538-.40697391.2868719-.41823478.836791-.10585218 1.4667545-.70182609 2.2497569-.92454783.1290316-.03670435.2642018-.10238261.3903161-.09014783.714688.06945218 1.3534643-.07730434 1.9288492-.53528695.1580835-.12581739.4117099-.13933044.6256483-.18504348.5068274-.10834783 1.0217991-.18309565 1.5230957-.31183478.719064-.18461739 1.4283428-.35030435 2.181017-.18644348.2411669.05253043.507739-.01235652.7627026-.02355652-.0023096-.04942609-.0046191-.09885218-.0069287-.14833913zm24.1042342 51.06128691c-.483671.0843044-.8036669.1401218-1.1546597.2012957.0159239.1761565.0291735.3233391.0489263.5416783-1.3109198 0-2.6139992.1397565-3.8727715-.0369479-1.4273703-.2003826-2.8143841-.6867913-4.2205429-1.0426348-.2855349-.0722521-.5780592-.1169913-.8696718-.1748782.0034643-.0290957.0046799-.1174783.0154376-.1186348 1.3072123-.1435304 2.6152147-.2598522 3.9240681-.0158261.0269246.0050522.0535453.0209391.0796799.0196 1.2674635-.0636087 2.4474675.5068 3.7030186.5127652.3221232.0015218.6564019-.0307391.9641815-.119913.4467788-.1294087.8503444-.1218 1.3823339.2334956zm-41.0993922-45.4217217c-.4411872.50844348-.8823744 1.01682609-1.3321313 1.53513044.0647893.08083478.1310373.16355652.2132698.26618261-1.4985413 1.127-2.9964141 2.25351305-4.62094809 3.47528695.15066856-.5644435.39317261-.8755478.72094814-1.1662.23095624-.2047652.40307941-.486287.56693679-.75472173.40393026-.66183479 1.00885336-1.06643479 1.69205836-1.37942609-.0269854-.17104348-.1333469-.39102609-.0647285-.49395652.2168557-.32522609.4443476-.70943479.7681726-.88279131.6088128-.32589565 1.2875202-.52086087 1.9372974-.76993913-.0731159.08442609.0150121.21042609.1191248.17043478zm1.3594813 2.2372c.0442464-.41896521.1777756-.66396521.545543-.77882608.4661061-.14547826.914769-.34695652 1.3710292-.52414783.1009521-.0392.2289505-.05058261.2991491-.12046087.8439627-.84006087 2.025547-.67309565 3.0308752-1.02772174.013675-.00480869.0416936.03116522.135474.10566957-.2012358.09550435-.372812.18327826-.5494327.25918261-.2484603.10676521-.566329.14194782-.7367504.32047826-.2914303.30526087-.6057739.37057391-1.00156.43716521-.5921596.09964348-1.1699149.32936522-1.7281604.5648087-.2116897.08929565-.130308.52104348-.4955835.56097391-.2688817.0294-.531017.12106957-.8705835.20287826zm55.3527958 12.9566957c.0719611-.1085913.1439222-.2171827.2327796-.3512783-.3648501-.0393217-.6816856-.0734696-1.0225891-.1101739-.0768842-.5259131-.6720219-.8414609-.5734401-1.6140174.3750608.5206783.6534238.9072.9702593 1.3471043.0679498-.1377478.1118315-.2268.1845827-.3744087.347893.3039827.824453.4725305.8816451 1.0365479-.2408631.2179739-.4624595.1740869-.6899514.0460174-.0011548-.0014609.0167139.0202087.0167139.0202087zm-40.4212317-17.55697396c.2865072 0 .5740478-.01515652.8593395.0034087.4695705.03061739.8770867-.03286957 1.3016207-.31433044.4198542-.27841739.950385-.28407826 1.4174636.00413913-.5632901.21462609-1.0836102.52609566-1.6334684.59274783-.6334887.07675652-1.2930511-.06263478-1.9413088-.10822609-.0012763-.05922608-.0024919-.11845217-.0036466-.17773913zm4.8458265-1.80265217c-.5499797.40892174-1.0242909.52798261-1.4907617.59335652-.8119935.11370435-1.6332861.16154783-2.4512358.231-.0963939.00815652-.1959482-.02118261-.3001824-.13330435 1.3515803-.22016521 2.7031605-.44033043 4.2421799-.69105217zm-10.1616491 2.79093043c-1.1858995.37629566-2.371799.75259131-3.6359805 1.15378261.1038695-.31481739.2246353-.53985217.5445097-.6174.7690843-.18650434 1.5351297-.3864 2.3073136-.5586.250466-.05587826.5163088-.04266956.7751013-.06105217.0029781.02769565.006017.05551304.0090559.08326956zm10.9431321-2.51689565c1.1730754-.27829565 2.2867707-.87713043 3.6241289-.78028695-1.154295.79063478-2.4281402.59609565-3.6241289.78028695zm10.2593801-.02629565c-1.0966167.07608696-2.1188412.71162609-3.2610413.44471304-.0083266-.05709565-.0165924-.11425217-.024919-.17134782 1.0942463-.15406087 2.1885535-.30806087 3.2827998-.46212174.0010333.06293913.0020665.12587826.0031605.18875652zm-28.9895057 3.65893043c.4745543-.30483478.919996-.6805826 1.4330227-.89155652.3969408-.16325217.8784238-.12021739 1.3371758-.1085913-.8305915.6104-1.8671596.64801739-2.7701985 1.00014782zm46.6522488 3.86777387c.231017.3550522.4162074.6396783.6310575.9698957-.5417747.206713-.9687398.0906957-1.4482172-.2583913.2815235-.2451217.5155795-.4488522.8171597-.7115044zm-59.7069287 10.2506783c-.02856564.6367565-.28115883.9862696-.80093192 1.1649217-.22816046-.7473565-.22816046-.7473565.80093192-1.1649217zm51.6254052-14.92984347c-.8207456-.03822609-1.6414911-.07645217-2.4622366-.11467826.8279781-.2268 1.6522487-.32705217 2.4622366.11467826zm-52.00478121 14.28468697c.32358185-.5438696.29179498-1.1938348 1.07649919-1.4154-.21667342.6027913-.27289303 1.193713-1.07649919 1.4154zm48.75309971-16.41706958c.8449351-.0371913 1.5806523.25187826 2.2420988.76214783-.7473257-.2540087-1.4947123-.50807826-2.2420988-.76214783zm-10.3035049-.28785217c-.1264181.27555652-.148906.3997913-.1923015.40764348-.5449959.0981826-1.0930915.17956521-1.6617301.1568.5180105-.34689566 1.1558752-.2058 1.8540316-.56444348zm-3.1941248 1.14946087c.4067869-.25693044.8567261-.1686087 1.3179092-.02532174-.4298217.07535652-.8597042.15065217-1.2895259.22600869-.0094206-.06689565-.0189019-.1337913-.0283833-.20068695zm-14.762419 4.36714782c.4874393-.07468695.8746556-.13397391 1.261872-.19326087-.3696515.16532174-.7151742.46674783-1.261872.19326087zm-18.34363853 9.80468696c-.0559765.0122957-.09341572.028-.11146677.0463217-.39116694-.1938695.01926661-.4248087-.02886953-.6340174 0 0-.02777553.0264174-.02771475.0264174.13723663-.0451652.27453403-.0903913.41177066-.1356174.03476499.0375566.06952999.0751131.10429498.1126087-.11602512.1947827-.23198947.3895653-.34801459.584287zm45.20980553 31.0951565c.2015397.0533826.4030794.1067044.7496961.1985565-.4069692.2889479-.6046191.1933827-.7916329.0114435.0139789-.0700608.0279579-.14.0419368-.21zm-21.6993112-44.76512172c-.3148298 0-.6296596 0-.9771272 0 .2850486-.33727826.2939222-.33776521.9771272 0zm-14.4692261 3.99499131c-.2428687.06866087-.4857374.13732174-.7286062.20592174.1430714-.40009566.4147488-.37459131.6777958-.3772087.0168963.05709565.0338534.1141913.0508104.17128696zm1.2825972.56608695c-.4440437.17877392-.7711507.31049566-1.2611426.50777392.3779174-.50205218.7008307-.64588696 1.2611426-.50777392zm-5.3640194 3.47845216c-.1692666.1484609-.3385332.2969218-.6218193.5453305.0123987-.5523914.2184968-.6596435.6218193-.5453305zm1.127188-2.99082607c-.1913898.13324348-.3827188.26654783-.7043557.49054787.1004051-.53291309.3579213-.57418265.7043557-.49054787zm2.6675446-2.07175652.0195097.02166956c-.3196313.02191305-.6990073-.12922608-.8275527.40849566.2693679-.14334783.5386751-.28675653.808043-.43016522zm38.7127633-1.50932174c-.2595826.01625217-.5191045.03256522-.7786871.04881739-.0027958-.04053913-.0055916-.08101739-.0083874-.12155652.2595827-.01570435.5192261-.0314087.7788695-.04711304.002735.03993043.00547.07992173.008205.11985217zm-2.254376-3.01237391c-.2222042-.05971305-.4444692-.11936522-.6666734-.17907826.0028566-.0182.0057131-.0364.0085697-.0546.2273096.03153043.4546191.063.6819895.09453043-.0079619.04644348-.0158631.09276522-.0238858.13914783zm-11.2006483.51282608c-.0868517.02489566-.179538.08107826-.2589141.06610435-.0853322-.01606956-.158205-.09885217-.1987439-.27616522.1520057.02033044.3040114.0406.456017.06093044.000547.04973043.001094.0994.001641.14913043zm-22.470158 1.00343479c.166167-.10573044.3323339-.21146087.4985616-.31719131.0279579.04175652.0558549.08345218.083752.1252087-.167504.1085913-.3349473.21712174-.5024513.32571304-.0266208-.04455652-.0532415-.08917391-.0798623-.13373043zm2.2975284-1.12693913c-.2380673.06945217-.4761953.13890434-.7142626.20835652-.0159846-.05837392-.0319692-.11674783-.0479538-.17512174.2384319-.06841739.4768639-.13689565.715235-.20531305.0156807.05733914.0313007.11473914.0469814.17207827zm-5.0655997 4.15404347c.1357172-.29686087.4033833-.3521913.6565235-.434.0255875.05575653.0511143.11157392.0767018.16733044-.2507091.08180869-.5014182.16355652-.7524919.24518261-.0002431-.00018261.0192666.02148695.0192666.02148695zm-6.33829011 6.18477393s.01701783-.0185044.01908428-.021c.31124392.2121304.41189222-.0541131.69408428-.371487-.34904782.1921044-.53113858.2922957-.71316856.392487zm-5.41561994 8.1863478c.13407618-.0647652.26815235-.1294696.40222853-.1942348.02710697.0247739.05421394.0496087.08132091.0743826-.09493517.104574-.18993112.2092087-.28486629.3137826-.06624798-.0646434-.13249595-.1292869-.19868315-.1939304zm20.56039305-13.39775433c-.1421597 0-.2843193 0-.4264182 0 0-.0235.0000608-.047.0000608-.0705h.4264789c-.0000607.0235-.0000607.047-.0001215.0705zm17.1435778 3.03747393h.5277958c0 .0279 0 .0558.0000607.0837-.1759521 0-.3519043 0-.5278565 0 0-.0279 0-.0558 0-.0837zm-18.5161264-7.53865872c.1661669-.10573043.3323338-.2114.4985616-.3171913.027897.04175652.0558549.08345217.083752.12520869-.1675041.10859131-.3349473.21718261-.5024514.32571305-.0266207-.04455652-.0532415-.08917392-.0798622-.13373044zm1.3660453 62.99032172c-.2567261 1.1905478 2.2834279 2.0849652 2.2834279 2.0846-.2284643.1250261-.428363.2343478-.7233185.3957131.2300446.1864434.3549433.3246782.5095624.4068521.9193882.4887826 1.8204214 1.0347218 2.9090762 1.0588261.2197123.0048696.4424028.0357913.65859.0104696 2.1719611-.2545565 4.3362034-.1658087 6.4963736.1302.4424635.0606869.441491.0679913 1.0787479-.3123826.0165316.0788261.034218.1439565.0428485.2103043.0064424.0497913.0012763.1010435.0012763.1746957.5329012.1702522 1.0165114-.0210609 1.5136143-.1918.3585899-.1232.7368719-.2403739 1.1110211-.2571131 1.1471231-.0513739 2.2964951-.0508869 3.4448946-.0756608.2638979-.0056609.4229538-.1157739.3241896-.469487-.2640194-.0432174-.5475486-.0896609-.9383509-.1536348.1861629-.2151739.3115479-.3601043.5262764-.6083304-.2750203 0-6.8549636-.9446957-7.2421799-1.0274783-.20859-.812913.3695907-.6662782.3695907-1.0364261-.0089343-.1816347-5.2562601-3.2720434-5.5532212-3.8947391-.3282617-.6883739-.0415721-1.1067913.7182131-1.1733826.4926662-.0431565.9869733-.0806522 1.4757496-.1531478 1.2003039-.1780435 2.2706038.1833391 3.2891208.7663478.1651945.0945913.3144651.2562.4558954.3404435 1.3143842.7830261 2.7708671.0256261 2.7708671.0256261.6133104-.5011392.7611224-1.0193826.3615073-2.030487-.2287682-.5786869-.0581645-.8012261.521718-.8842522.1146272-.0163739.5906402.0197218 1.1364263.1160174 1.1234805.1981913 2.5424635.6513044 1.7121758 1.4259305.4985008.4099565 1.0547407.5897652 1.6194895.5028434.4778363-.0735304 1.0172407-1.1124521.9819287-1.6786608-.0182334-.2922957-.0516613-.5836174-.078282-.8753652.0554902-.0314696.1109197-.0628783.16641-.0943479.1953404.2047653.4228323.3878.5793355.6189826.3252229.4802609.753829.7804696 1.3041734.9537044 1.4096232.4436174 2.5369935 1.2787478 3.4184563 2.4723391.4237439.5738174.9257698 1.0892 1.3827593 1.6389739.437966.526887.8730146 1.0567566 1.2917139 1.5989826.3571921.4625479.7630673.7874087 1.3932739.6003566.31562.5013217.3089952.9960087.072812 1.4493652-.277269.5322435-.3923217 1.0820174-.3894651 1.6675217.0052269 1.0699652-.7904174 1.6507826-1.4533226 2.2759739-.2163695.2040957-.6750607.2155392-1.0191855.2038522-.5820705-.0197826-.9442464.2317913-1.1681524.7339044-.2845624.6380956-2.9519854 4.3051217-2.9693679 4.4894956-.018598.1975826-.020239.4959044.0952998.581487.1380876.1023217.4263574.0773043.6158631.0108956.1611831-.0564869.303282-.2310609.4044165-.3857913.5557537-.8504696 1.0918153-1.7138435 1.6487237-2.5635826.0608387-.0928261.2117504-.1264261.3911669-.2269217.1291532.8933217-1.2079619 2.7303652-1.4607982 3.0320956-.3712318.4431305-.7183955.9064087-1.0834279 1.3548348-.3244327.3985739-2.0906402 1.9845304-2.7360413 2.5439217-.3567666.3092783-4.9890802 2.0239131-12.8696718 1.4156435-.3068679.0435218-.6415113-.1093217-.9866086-.1765826 2.145705-.5985913-2.83906-3.5172869-2.8879254-4.1339565-.0488655-.6166696.8881483-.3422696 1.350547-.2137131 1.0708468.297774 2.1972447.412087 3.3083266.5354696.2483387.0275739.5264586-.2133478.9313006-.392913.753829.4749652 1.6577796.441 2.5586305-.0592261-1.0986224-.3276609-2.3790316.0804695-3.3229133-.7813218.001641-.0722521.0032212-.1445652.0048622-.2168174.3361021-.0521652.6726297-.1493739 1.0082456-.1461478.5167949.0049305 1.0332252.1172957 1.5492909.1138261.6900121-.0046261 1.3873784-.0604435 1.728282-.9033043.1459886.2773826.2604943.4948695.3749392.7123565.0570705.0012782.114141.0024956.1712115.0037739.1005875-.3476261.2011143-.695313.3254052-1.1249913-.7967382-.1948435-1.5073541-.1078609-2.107111.2821304-.5618922.3654-1.0642828.5138609-1.6949149.2374522-.2111426-.0925217-.4839141-.0441913-.7746151-.0632435-.2981159-.7566087-1.0888979-.7598956-1.7120543-1.048113.0017626.0043217.0035251.0086435.0052877.0129652-.531017-.2632609-1.062034-.5264609-1.5787075-.7826-.1259927.427487-.2395867.8127304-.3838735 1.3021826.5586709.3207826 1.2130672.6965913 2.026094 1.1634609-.362419.0368869-.5848663.1249652-.7566856.0657391-.8022691-.2764696-1.5905592-.5936609-2.3838331-.8962435-.4904173-1.0201739-1.6453201-1.2265217-2.3875405-1.9534869-.838128-.8208261-1.6948541-1.6162696-2.4191451-2.5448348-.6925648-.8878435-1.5275324-1.5798087-2.6518638-1.8588957-.1833671-.0455304-.3530592-.1462695-.5737439-.2406174-.3178688.2256435-.6412075.4552435-1.02812.7299479.7182739.4790434.7079417 2.491513.5039709 3.5934956-.1735819-.4690608-.3827796-.9285043-.5127229-1.4094348-.2099878-.7771826-.4730956-1.5196087-.9127026-2.2037826-.2353322-.366313-.3758509-.7930695-.5672407-1.1886608-.0708671-.1464522-.1724878-.2915044-.2537479-.4139131-1.013594-1.5261826-.7940641-1.6546782-1.1077999-2.5062435-.1016207-.2756782-1.1753241-3.328713 1.7943477-2.4254087 1.108833.4442261 2.0205632-.8874173 2.5151134-1.4136347.7321921-.7790087 1.4902755-1.5335479 2.2393639-2.2965479.1154173-.1176 1.7339343-1.3530087 2.5552877-1.6587565.2220826.4749652-.1940641.7969652-.5089547 1.0750783-1.2910453 1.1403913-2.0792139 2.4616261-2.9035453 3.9789217-.3237034.5957913-.8310778 1.0916957-1.2565235 1.6317304-.2172205.2757392-.4383307.548374-.6590154.824174.3455834.6295739.662662.0776695.9627836-.0010348.3334886-.0874696.646799-.2520609 1.0264181-.406487zm18.5556929 8.2201305c.3217585-.4488522.347893-1.4731653-.0069287-1.7976609-.6322123-.5780174-1.1585494-.0180783-1.6833063.2425043-1.0213128-1.0318-2.4856361-1.0428782-3.5992099-.044313-.0541531-.0571565-.1109805-.112487-.1626418-.1723217-.6883711-.7974522-2.002269-1.0678348-2.9040924-.5467914-.3260737.1883914-.5615883.1586261-.8140599-.0637913-.3480754-.3065391-.7636143-.3720956-1.1546597-.1862-.4341977.2064087-.8399514.3086696-1.3279984.2311218-.339141-.0538696-.6423622.1264869-.7049027.5380869-.0636953.4192087.0936588.9427479.3951783.9942435.5305307.0905739.8972649.3675305 1.3128038.6894696.4697529.3639391 1.1201378.404113 1.742808.1318435.170786.3441565.3187196.674313.758205.6773565.7636751.0052348 1.5274109.0476 2.2906605.0386522.1975283-.0023131.3934765-.1374435.5758711-.2062261.7958874.6054087 2.7185981.3724608 3.8145462-.4424.828282.3554174 1.166876.3361217 1.4677269-.0835739zm1.0906605-.3106174c.4369327-.4424.7007698-.9300261.4881685-1.6982609-.4254457.2509043-.7484805.4413652-1.0804497.6371826.1214951.4008261-.0691653.9371478.5922812 1.0610783zm-14.8945503 14.3435478c.1598461.2501739.313432.545513.4854943.8492522-2.2716977-1.0591305-4.8376823-2.6611566-8.6389789-4.8819218-4.6249595-3.1581565-6.6655794-6.7243217-7.530389-8.8494608.2386143-2.8082783-.5270664-5.7524174-.7100081-8.6351392-.0445502-.7017652-.5339951-3.5057217.6617504-2.8796174 4.5294166 5.3212783 4.8915924 16.1128435 6.1224068 17.2157392.7409441.6639043 3.504761 2.4477478 6.3705025 4.079113.7799027.5399131 2.3691248 1.7403826 3.239222 3.1020348zm33.110312-22.7656435c.4793558 1.5254522 1.0364465 3.1761131 1.2486832 4.7863565-.3901338 1.7896261-.9859401 3.9366174-1.8900122 6.1354696-2.2747974 5.5329826-8.1244935 8.4622087-10.7243314 10.0895565-1.6832456 1.0536522-4.7291937 2.5164696-8.1669773 3.4169739 1.5421799-.7550261 3.4247163-3.4765043 4.393517-3.9257826.055551-.0258087.0761548-.0475391.0689222-.0661043.8904578-.4378957 2.9493719-1.6676435 3.6187196-2.556887 2.5430105-3.3782608 3.7340762-5.900513 5.9625608-9.4854869.7593598-1.2216522 1.1338128-2.1376174.7883509-4.593887-.345462-2.4563304.0498379-2.2078 1.0847042-3.7624696 1.0348663-1.5546695 3.0922001-1.704226 3.615863-.0377391z" fill="#1d253c" transform="translate(13 12)"/></g></svg>