<svg id="Layer_1" data-name="Layer 1" xmlns="http://www.w3.org/2000/svg" viewBox="0 0 490.59 303.75"><defs><style>.cls-1{fill:#1d253c;}.cls-2{fill:#f2ba42;}</style></defs><title>PFA-LOGO</title><path class="cls-1" d="M166.25,134.75v42.83q0,14.82-10,24t-26.18,9.19H72.7V282l-36.84,6.92V101.11l94.23.58q16.14,0,26.15,9.18T166.25,134.75ZM72.7,179.34h48.09q8.74,0,8.62-7.94V141.74q0-8.06-8.62-8.05H72.7Z" transform="translate(-2.46 -101.11)"/><path class="cls-1" d="M190.21,270.41V101.23h140l-10.39,32h-92.8v36.13h79.24l-10.39,32H227.05v69.05Z" transform="translate(-2.46 -101.11)"/><path class="cls-1" d="M418.41,232.44H358.83l-12.24,39.12-38.1-1.15,59.33-169.18h43l59.32,186.5L434,279.65Zm-9.87-32-19.49-62.05-20,62.05Z" transform="translate(-2.46 -101.11)"/><path class="cls-1" d="M31.69,371.18q-10-3.1-19.92-6.48c-3.71-1.27-6.36-3.24-7.92-5.87a9.49,9.49,0,0,1-.72-8.46L14.57,318.6a10,10,0,0,1,5.78-6.18,12.9,12.9,0,0,1,9.22.06q9.2,3.13,18.46,6a12.75,12.75,0,0,1,7.45,5.37,10,10,0,0,1,1,8.39c-.83,2.83-1.65,5.66-2.48,8.49-4-1.18-8-2.38-12.05-3.63l2-6.37q.76-2.46-2.06-3.31-6.43-2-12.84-4.18c-1.86-.62-3.06-.13-3.58,1.49q-4.76,14-9.5,27.89c-.56,1.64.12,2.79,2.06,3.44,4.47,1.5,9,3,13.46,4.38,2,.62,3.21.1,3.72-1.56l2-6.38q6.15,1.9,12.32,3.7l-2.46,8.46a9.5,9.5,0,0,1-5.54,6.42Q37.31,372.91,31.69,371.18Z" transform="translate(-2.46 -101.11)"/><path class="cls-1" d="M87.9,386.26q-10.74-2.44-21.42-5.2c-3.79-1-6.57-2.74-8.33-5.24a9.53,9.53,0,0,1-1.34-8.38q4.52-16.28,9-32.55a9.93,9.93,0,0,1,5.29-6.59,12.8,12.8,0,0,1,9.17-.65q9.9,2.57,19.86,4.83a12.74,12.74,0,0,1,7.83,4.77,10,10,0,0,1,1.66,8.29l-6.93,33a9.51,9.51,0,0,1-5,6.83C95,386.84,91.71,387.13,87.9,386.26ZM77.3,340.05q-3.7,14.34-7.4,28.69c-.44,1.68.34,2.78,2.32,3.28Q79.6,373.9,87,375.61q3,.69,3.53-1.86,3.28-14.44,6.58-28.89c.39-1.7-.36-2.74-2.24-3.15q-7-1.65-14.08-3.42Q77.94,337.53,77.3,340.05Z" transform="translate(-2.46 -101.11)"/><path class="cls-1" d="M180.67,346.07q-2.92,27.24-5.86,54.47-6.08-.65-12.16-1.4,2.25-18.12,4.49-36.24-8.4,12.94-17.3,25.68c-3.08-.44-6.17-.9-9.25-1.38q-4.82-14.79-9.09-29.63l-6.3,36c-4-.71-8.06-1.44-12.07-2.22q5.16-26.9,10.33-53.8,6.5,1.25,13,2.37,5,17.16,10.77,34.27,10.5-14.67,20.3-29.63Q174.1,345.36,180.67,346.07Z" transform="translate(-2.46 -101.11)"/><path class="cls-1" d="M251.7,350.07l-.3,54.79q-6.12,0-12.23-.16.41-18.26.8-36.51-7,13.72-14.58,27.31-4.66-.19-9.33-.44-6.27-14.22-12-28.55-1.31,18.21-2.62,36.42-6.09-.44-12.19-1,2.4-27.3,4.81-54.58,6.57.57,13.16,1,6.71,16.57,14.14,33,8.94-15.66,17.17-31.54Q245.11,350,251.7,350.07Z" transform="translate(-2.46 -101.11)"/><path class="cls-1" d="M298.51,403.8q-10.42.6-20.85.9-5.81.17-9.35-2.72a9.54,9.54,0,0,1-3.58-7.67L264.19,350q6.06-.07,12.11-.25.63,21.06,1.25,42.14c.05,1.73,1.09,2.57,3.13,2.5q7.05-.24,14.11-.61c2-.1,3-1,2.9-2.76q-1.19-21-2.38-42.09,6-.34,12.09-.79,1.56,22.08,3.1,44.17a9.51,9.51,0,0,1-2.91,8C305.41,402.4,302.37,403.58,298.51,403.8Z" transform="translate(-2.46 -101.11)"/><path class="cls-1" d="M354.87,343q5.63-.81,11.24-1.7l8.64,54.1q-7,1.11-13.92,2.09-14.54-16.81-27.93-34.18l4,37.16q-6.07.66-12.17,1.21-2.5-27.27-5-54.56,6.5-.58,13-1.31,13.16,17.34,27.46,34.18Q357.52,361.52,354.87,343Z" transform="translate(-2.46 -101.11)"/><path class="cls-1" d="M388.94,393l-9.66-53.93q6-1.08,12-2.25,5.31,26.88,10.6,53.75Q395.4,391.87,388.94,393Z" transform="translate(-2.46 -101.11)"/><path class="cls-1" d="M445.32,334.49q-7.8,2.16-15.64,4.14l10.92,43.25q-6.37,1.62-12.78,3.11l-10.17-43.44q-7.86,1.84-15.75,3.5-1-5-2.09-10,21.51-4.51,42.79-10.41Q444,329.59,445.32,334.49Z" transform="translate(-2.46 -101.11)"/><path class="cls-1" d="M492.3,366.85q-6.29,2.07-12.59,4-2.81-9-5.62-18.09-14.8-14.18-28.73-28.88,6.47-1.82,12.9-3.76,8.91,9.56,18.17,18.89,2.13-13,3.88-26,6.39-2.16,12.74-4.45-2.85,20.08-6.69,40.22Z" transform="translate(-2.46 -101.11)"/><g id="star-rate"><polygon class="cls-2" points="250.53 222.39 269.03 235.89 262.03 213.89 280.53 200.89 258.03 200.89 250.53 178.39 243.03 200.89 220.53 200.89 239.03 213.89 232.03 235.89 250.53 222.39"/></g></svg>